<svg width="24" height="24" viewBox="0 0 24 24" fill="none" xmlns="http://www.w3.org/2000/svg">
<path d="M12.2249 10.594L6.71592 16.104L4.84592 15.327L4.67892 15.496L7.05892 17.083L8.64692 19.4629L8.81492 19.295L8.03892 17.425L13.5479 11.917L17.8759 18.169L18.0859 17.961L15.1989 10.265L19.5989 5.86695C19.6858 5.78008 19.7547 5.67695 19.8017 5.56345C19.8487 5.44995 19.8729 5.3283 19.8729 5.20545C19.8729 5.0826 19.8487 4.96095 19.8017 4.84745C19.7547 4.73395 19.6858 4.63082 19.5989 4.54395C19.5121 4.45708 19.4089 4.38817 19.2954 4.34116C19.1819 4.29415 19.0603 4.26995 18.9374 4.26995C18.8146 4.26995 18.6929 4.29415 18.5794 4.34116C18.4659 4.38817 18.3628 4.45708 18.2759 4.54395L13.8759 8.94295L6.18192 6.05695L5.97192 6.26595L12.2249 10.594ZM17.6149 21.077L13.2849 14.824L10.2449 17.864L11.0219 19.7339L8.35592 22.399L5.71092 18.4319L1.74292 15.786L4.40892 13.12L6.27792 13.896L9.31792 10.856L3.06492 6.52795L5.71092 3.88295L13.4059 6.76795L16.9529 3.22095C17.2123 2.95528 17.5219 2.74373 17.8636 2.59856C18.2054 2.4534 18.5726 2.37751 18.9439 2.37529C19.3152 2.37308 19.6832 2.44457 20.0267 2.58564C20.3702 2.72671 20.6822 2.93455 20.9448 3.1971C21.2073 3.45966 21.4152 3.77171 21.5562 4.11518C21.6973 4.45865 21.7688 4.8267 21.7666 5.19801C21.7644 5.56931 21.6885 5.93648 21.5433 6.27824C21.3981 6.62 21.1866 6.92955 20.9209 7.18895L17.3739 10.736L20.2599 18.4319L17.6139 21.077H17.6149Z" fill="white"/>
</svg>
