<svg width="24" height="24" viewBox="0 0 24 24" fill="none" xmlns="http://www.w3.org/2000/svg">
<path d="M12.9999 11.9999H14.9999C15.2651 11.9999 15.5195 12.1053 15.707 12.2928C15.8946 12.4804 15.9999 12.7347 15.9999 12.9999C15.9999 13.2651 15.8946 13.5195 15.707 13.707C15.5195 13.8946 15.2651 13.9999 14.9999 13.9999H11.9999C11.7347 13.9999 11.4803 13.8946 11.2928 13.707C11.1053 13.5195 10.9999 13.2651 10.9999 12.9999V7.99992C10.9999 7.73471 11.1053 7.48035 11.2928 7.29282C11.4803 7.10528 11.7347 6.99992 11.9999 6.99992C12.2651 6.99992 12.5195 7.10528 12.707 7.29282C12.8946 7.48035 12.9999 7.73471 12.9999 7.99992V11.9999ZM20.6299 10.4379C21.0273 11.7806 21.1059 13.1974 20.8595 14.5757C20.6131 15.9541 20.0485 17.2559 19.2105 18.3778C18.3726 19.4996 17.2845 20.4104 16.0328 21.0378C14.781 21.6653 13.4001 21.992 11.9999 21.992C10.5997 21.992 9.21882 21.6653 7.96706 21.0378C6.7153 20.4104 5.6272 19.4996 4.78929 18.3778C3.95138 17.2559 3.38677 15.9541 3.14037 14.5757C2.89396 13.1974 2.97256 11.7806 3.36992 10.4379C2.89981 9.94175 2.53643 9.35446 2.30222 8.71233C2.068 8.0702 1.96793 7.38686 2.00819 6.70454C2.04845 6.02221 2.22818 5.35539 2.53627 4.74525C2.84437 4.13512 3.27429 3.59463 3.79948 3.15718C4.32467 2.71973 4.93397 2.3946 5.58975 2.20188C6.24553 2.00916 6.93386 1.95295 7.61222 2.03671C8.29058 2.12047 8.94456 2.34242 9.53377 2.68886C10.123 3.0353 10.6349 3.49886 11.0379 4.05092C11.6774 3.98295 12.3224 3.98295 12.9619 4.05092C13.3649 3.49886 13.8769 3.0353 14.4661 2.68886C15.0553 2.34242 15.7093 2.12047 16.3876 2.03671C17.066 1.95295 17.7543 2.00916 18.4101 2.20188C19.0659 2.3946 19.6752 2.71973 20.2004 3.15718C20.7255 3.59463 21.1555 4.13512 21.4636 4.74525C21.7717 5.35539 21.9514 6.02221 21.9916 6.70454C22.0319 7.38686 21.9318 8.0702 21.6976 8.71233C21.4634 9.35446 21.1 9.94175 20.6299 10.4379ZM19.6919 8.32492C19.9898 7.72109 20.0759 7.0346 19.9363 6.37592C19.7968 5.71723 19.4397 5.12464 18.9225 4.69349C18.4054 4.26233 17.7582 4.01768 17.0852 3.9989C16.4121 3.98011 15.7523 4.18829 15.2119 4.58992C17.0773 5.30508 18.6529 6.61863 19.6919 8.32492ZM8.78692 4.58992C8.24652 4.18829 7.58672 3.98011 6.91367 3.9989C6.24063 4.01768 5.59347 4.26233 5.07631 4.69349C4.55916 5.12464 4.20208 5.71723 4.06252 6.37592C3.92296 7.0346 4.00905 7.72109 4.30692 8.32492C5.34597 6.61863 6.92154 5.30508 8.78692 4.58992ZM11.9999 19.9999C12.9192 19.9999 13.8294 19.8189 14.6787 19.4671C15.528 19.1153 16.2997 18.5997 16.9497 17.9497C17.5997 17.2997 18.1153 16.528 18.4671 15.6787C18.8189 14.8294 18.9999 13.9192 18.9999 12.9999C18.9999 12.0807 18.8189 11.1704 18.4671 10.3211C18.1153 9.47186 17.5997 8.70019 16.9497 8.05018C16.2997 7.40017 15.528 6.88455 14.6787 6.53277C13.8294 6.18098 12.9192 5.99992 11.9999 5.99992C10.1434 5.99992 8.36292 6.73742 7.05017 8.05018C5.73741 9.36293 4.99992 11.1434 4.99992 12.9999C4.99992 14.8564 5.73741 16.6369 7.05017 17.9497C8.36292 19.2624 10.1434 19.9999 11.9999 19.9999Z" fill="white"/>
</svg>
