<svg width="24" height="24" viewBox="0 0 24 24" fill="none" xmlns="http://www.w3.org/2000/svg">
<path d="M9.30506 7.26166L7.007 5.21691V19.0002C7.007 19.5 6.5062 20 6.0054 20C5.5046 20 5.0038 19.5 5.0038 19.0002V5.21691L2.69503 7.26166C2.30724 7.65216 1.67863 7.65216 1.29084 7.26166C0.903052 6.87116 0.903052 6.23816 1.29084 5.84766L5.30331 2.293C5.48802 2.1065 5.74373 2 6.0054 2C6.26707 2 6.52279 2.1065 6.7075 2.293L10.7092 5.84766C11.097 6.23816 11.097 6.87116 10.7092 7.26166C10.3215 7.65216 9.69285 7.65216 9.30506 7.26166Z" fill="white"/>
<path d="M21.3051 16.7383L19.007 18.7831V4.99983C19.007 4.5 18.5062 4 18.0054 4C17.5046 4 17.0038 4.5 17.0038 4.99983L17.0038 18.7831L14.695 16.7383C14.3072 16.3478 13.6786 16.3478 13.2908 16.7383C12.9031 17.1288 12.9031 17.7618 13.2908 18.1523L17.3033 21.707C17.488 21.8935 17.7437 22 18.0054 22C18.2671 22 18.5228 21.8935 18.7075 21.707L22.7092 18.1523C23.097 17.7618 23.097 17.1288 22.7092 16.7383C22.3215 16.3478 21.6928 16.3478 21.3051 16.7383Z" fill="white"/>
</svg>
