<svg width="24" height="24" viewBox="0 0 24 24" fill="none" xmlns="http://www.w3.org/2000/svg"><path d="M9.75705 12.0002L14.707 16.9502C14.8026 17.0424 14.8787 17.1528 14.9311 17.2748C14.9836 17.3968 15.0111 17.528 15.0123 17.6608C15.0135 17.7936 14.9882 17.9252 14.9379 18.0481C14.8876 18.171 14.8133 18.2827 14.7194 18.3766C14.6256 18.4705 14.5139 18.5447 14.391 18.595C14.2681 18.6453 14.1364 18.6706 14.0036 18.6694C13.8709 18.6683 13.7396 18.6407 13.6176 18.5883C13.4956 18.5359 13.3853 18.4597 13.293 18.3642L7.63605 12.7072C7.44858 12.5197 7.34326 12.2653 7.34326 12.0002C7.34326 11.735 7.44858 11.4807 7.63605 11.2932L13.293 5.63618C13.4817 5.45402 13.7343 5.35323 13.9964 5.35551C14.2586 5.35778 14.5095 5.46295 14.6949 5.64836C14.8803 5.83377 14.9854 6.08458 14.9877 6.34678C14.99 6.60898 14.8892 6.86158 14.707 7.05018L9.75705 12.0002Z" fill="white"/></svg>