<svg width="24" height="24" viewBox="0 0 24 24" fill="none" xmlns="http://www.w3.org/2000/svg">
<path d="M12.071 10.3281L7.12098 15.2781C6.93238 15.4603 6.67978 15.561 6.41758 15.5588C6.15538 15.5565 5.90457 15.4513 5.71916 15.2659C5.53375 15.0805 5.42859 14.8297 5.42631 14.5675C5.42403 14.3053 5.52482 14.0527 5.70698 13.8641L11.364 8.20709C11.5515 8.01962 11.8058 7.91431 12.071 7.91431C12.3361 7.91431 12.5905 8.01962 12.778 8.20709L18.435 13.8641C18.6171 14.0527 18.7179 14.3053 18.7157 14.5675C18.7134 14.8297 18.6082 15.0805 18.4228 15.2659C18.2374 15.4513 17.9866 15.5565 17.7244 15.5588C17.4622 15.561 17.2096 15.4603 17.021 15.2781L12.071 10.3281Z" fill="white"/>
</svg>
