<svg width="24" height="24" viewBox="0 0 24 24" fill="none" xmlns="http://www.w3.org/2000/svg">
<path d="M10.9999 18.5729V5.41894L8.46392 7.95394C8.27531 8.1361 8.02271 8.23689 7.76052 8.23461C7.49832 8.23233 7.24751 8.12716 7.0621 7.94176C6.87669 7.75635 6.77152 7.50554 6.76924 7.24334C6.76696 6.98114 6.86776 6.72854 7.04992 6.53994L11.2929 2.29694C11.4804 2.10947 11.7348 2.00415 11.9999 2.00415C12.2651 2.00415 12.5194 2.10947 12.7069 2.29694L16.9499 6.53994C17.0454 6.63218 17.1216 6.74253 17.174 6.86453C17.2264 6.98654 17.254 7.11776 17.2552 7.25054C17.2563 7.38332 17.231 7.515 17.1807 7.63789C17.1305 7.76079 17.0562 7.87244 16.9623 7.96633C16.8684 8.06022 16.7568 8.13448 16.6339 8.18476C16.511 8.23504 16.3793 8.26034 16.2465 8.25919C16.1137 8.25803 15.9825 8.23045 15.8605 8.17804C15.7385 8.12563 15.6282 8.04945 15.5359 7.95394L12.9999 5.41994V18.5739L15.5359 16.0379C15.6282 15.9424 15.7385 15.8662 15.8605 15.8138C15.9825 15.7614 16.1137 15.7338 16.2465 15.7327C16.3793 15.7315 16.511 15.7568 16.6339 15.8071C16.7568 15.8574 16.8684 15.9316 16.9623 16.0255C17.0562 16.1194 17.1305 16.2311 17.1807 16.354C17.231 16.4769 17.2563 16.6086 17.2552 16.7413C17.254 16.8741 17.2264 17.0053 17.174 17.1273C17.1216 17.2493 17.0454 17.3597 16.9499 17.4519L12.7069 21.6949C12.6143 21.7881 12.5041 21.8621 12.3828 21.9125C12.2614 21.963 12.1313 21.989 11.9999 21.989C11.8685 21.989 11.7384 21.963 11.6171 21.9125C11.4957 21.8621 11.3856 21.7881 11.2929 21.6949L7.04992 17.4509C6.95441 17.3587 6.87822 17.2483 6.82582 17.1263C6.77341 17.0043 6.74582 16.8731 6.74467 16.7403C6.74351 16.6076 6.76881 16.4759 6.8191 16.353C6.86938 16.2301 6.94363 16.1184 7.03752 16.0245C7.13141 15.9306 7.24307 15.8564 7.36596 15.8061C7.48886 15.7558 7.62054 15.7305 7.75332 15.7317C7.8861 15.7328 8.01732 15.7604 8.13932 15.8128C8.26133 15.8652 8.37167 15.9414 8.46392 16.0369L10.9999 18.5729Z" fill="white"/>
</svg>
