<svg width="24" height="24" viewBox="0 0 24 24" fill="none" xmlns="http://www.w3.org/2000/svg">
<path d="M5.42309 10.996H18.5771L16.0401 8.46C15.8526 8.27236 15.7473 8.01791 15.7474 7.75264C15.7474 7.6213 15.7734 7.49124 15.8237 7.36991C15.874 7.24858 15.9477 7.13834 16.0406 7.0455C16.1335 6.95265 16.2438 6.87902 16.3652 6.8288C16.4865 6.77857 16.6166 6.75275 16.7479 6.7528C17.0132 6.75289 17.2676 6.85836 17.4551 7.046L21.6971 11.289C21.8846 11.4765 21.9899 11.7308 21.9899 11.996C21.9899 12.2612 21.8846 12.5155 21.6971 12.703L17.4551 16.945C17.3622 17.0379 17.252 17.1116 17.1307 17.1619C17.0093 17.2122 16.8793 17.2382 16.7479 17.2382C16.6166 17.2382 16.4865 17.2124 16.3652 17.1622C16.2438 17.112 16.1335 17.0383 16.0406 16.9455C15.9477 16.8527 15.874 16.7424 15.8237 16.6211C15.7734 16.4998 15.7474 16.3697 15.7474 16.2384C15.7473 15.9731 15.8526 15.7186 16.0401 15.531L18.5761 12.996H5.42309L7.96009 15.53C8.05294 15.6229 8.12657 15.7332 8.17679 15.8546C8.22702 15.9759 8.25284 16.106 8.25279 16.2374C8.25275 16.3687 8.22683 16.4988 8.17652 16.6201C8.12621 16.7414 8.0525 16.8517 7.95959 16.9445C7.86668 17.0373 7.75639 17.111 7.63503 17.1612C7.51366 17.2114 7.38359 17.2372 7.25224 17.2372C7.12089 17.2372 6.99084 17.2112 6.8695 17.1609C6.74817 17.1106 6.63794 17.0369 6.54509 16.944L2.30209 12.703C2.20891 12.6103 2.13496 12.5002 2.0845 12.3789C2.03403 12.2575 2.00806 12.1274 2.00806 11.996C2.00806 11.8646 2.03403 11.7345 2.0845 11.6131C2.13496 11.4918 2.20891 11.3817 2.30209 11.289L6.54409 7.046C6.7316 6.85822 6.98602 6.75263 7.25138 6.75244C7.51675 6.75225 7.77132 6.85749 7.95909 7.045C8.14686 7.23251 8.25246 7.48693 8.25265 7.75229C8.25284 8.01765 8.1476 8.27222 7.96009 8.46L5.42309 10.996Z" fill="white"/>
</svg>
