<svg width="24" height="24" viewBox="0 0 24 24" fill="none" xmlns="http://www.w3.org/2000/svg">
<path fill-rule="evenodd" clip-rule="evenodd" d="M7.53028 8.74295L12 4.21028L16.4697 8.74295C16.64 8.90976 16.8681 9.00205 17.1049 8.99997C17.3416 8.99788 17.5681 8.90158 17.7355 8.7318C17.9029 8.56202 17.9979 8.33236 18 8.09227C18.002 7.85217 17.911 7.62087 17.7465 7.44817L12.6384 2.2681C12.4691 2.09644 12.2394 2 12 2C11.7606 2 11.5309 2.09644 11.3616 2.2681L6.25348 7.44817C6.08899 7.62087 5.99798 7.85217 6.00003 8.09227C6.00209 8.33236 6.09706 8.56202 6.26447 8.7318C6.43189 8.90158 6.65837 8.99788 6.89513 8.99997C7.13188 9.00205 7.35998 8.90976 7.53028 8.74295ZM7.53028 15.257L12 19.7897L16.4697 15.257C16.64 15.0902 16.8681 14.9979 17.1049 15C17.3416 15.0021 17.5681 15.0984 17.7355 15.2682C17.9029 15.438 17.9979 15.6676 18 15.9077C18.002 16.1478 17.911 16.3791 17.7465 16.5518L12.6384 21.7319C12.4691 21.9036 12.2394 22 12 22C11.7606 22 11.5309 21.9036 11.3616 21.7319L6.25348 16.5518C6.08899 16.3791 5.99798 16.1478 6.00003 15.9077C6.00209 15.6676 6.09706 15.438 6.26447 15.2682C6.43189 15.0984 6.65837 15.0021 6.89513 15C7.13188 14.9979 7.35998 15.0902 7.53028 15.257Z" fill="white"/>
</svg>
