<svg width="24" height="24" viewBox="0 0 24 24" fill="none" xmlns="http://www.w3.org/2000/svg">
<path d="M15.0001 19.5001C15.0001 20.2957 14.684 21.0588 14.1214 21.6214C13.5588 22.184 12.7958 22.5001 12.0001 22.5001C11.2045 22.5001 10.4414 22.184 9.87879 21.6214C9.31618 21.0588 9.00011 20.2957 9.00011 19.5001H6.65711L8.65711 17.5001H18.7101C18.3402 16.2587 17.6326 15.1445 16.6661 14.2821L16.0001 13.6861V10.1561L17.9901 8.16608C17.9971 8.27608 18.0001 8.38808 18.0001 8.50008V12.7921C18.945 13.6354 19.7008 14.669 20.2178 15.8251C20.7349 16.9812 21.0015 18.2336 21.0001 19.5001H15.0001ZM3.29511 17.2051C3.74509 15.5009 4.68568 13.9664 6.00011 12.7921V8.50008C5.99997 7.31329 6.35179 6.15311 7.01107 5.16628C7.67035 4.17946 8.60747 3.41031 9.70392 2.95613C10.8004 2.50194 12.0069 2.38312 13.1709 2.61469C14.3348 2.84626 15.404 3.41782 16.2431 4.25708L14.8281 5.67208C14.2687 5.11284 13.5561 4.73202 12.7802 4.57775C12.0044 4.42348 11.2003 4.50269 10.4695 4.80537C9.7387 5.10805 9.11404 5.62061 8.67451 6.27825C8.23497 6.93589 8.00028 7.70908 8.00011 8.50008V12.5001L3.29511 17.2051ZM12.0001 20.5001C12.2653 20.5001 12.5197 20.3947 12.7072 20.2072C12.8948 20.0197 13.0001 19.7653 13.0001 19.5001H11.0001C11.0001 19.7653 11.1055 20.0197 11.293 20.2072C11.4805 20.3947 11.7349 20.5001 12.0001 20.5001ZM21.0921 2.20708C21.2796 2.39461 21.3849 2.64892 21.3849 2.91408C21.3849 3.17925 21.2796 3.43355 21.0921 3.62108L4.12211 20.5911C4.02993 20.6867 3.91964 20.7629 3.79768 20.8154C3.67571 20.8679 3.54451 20.8956 3.41173 20.8968C3.27896 20.8981 3.14726 20.8729 3.02433 20.8227C2.9014 20.7725 2.7897 20.6983 2.69574 20.6045C2.60178 20.5106 2.52745 20.3991 2.47708 20.2762C2.42671 20.1533 2.40132 20.0217 2.40238 19.8889C2.40343 19.7561 2.43093 19.6249 2.48325 19.5028C2.53557 19.3808 2.61167 19.2704 2.70711 19.1781L19.6771 2.20808C19.77 2.11511 19.8803 2.04135 20.0017 1.99102C20.1231 1.9407 20.2532 1.91479 20.3846 1.91479C20.516 1.91479 20.6462 1.9407 20.7676 1.99102C20.889 2.04135 20.9992 2.11511 21.0921 2.20808V2.20708Z" fill="white"/>
</svg>
