<svg width="24" height="24" viewBox="0 0 24 24" fill="none" xmlns="http://www.w3.org/2000/svg">
<path d="M12 16.3579C10.9391 16.3579 9.92172 15.9365 9.17157 15.1863C8.42143 14.4362 8 13.4188 8 12.3579C8 11.297 8.42143 10.2796 9.17157 9.52948C9.92172 8.77934 10.9391 8.35791 12 8.35791C13.0609 8.35791 14.0783 8.77934 14.8284 9.52948C15.5786 10.2796 16 11.297 16 12.3579C16 13.4188 15.5786 14.4362 14.8284 15.1863C14.0783 15.9365 13.0609 16.3579 12 16.3579ZM18 11.3579H19C19.2652 11.3579 19.5196 11.4633 19.7071 11.6508C19.8946 11.8383 20 12.0927 20 12.3579C20 12.6231 19.8946 12.8775 19.7071 13.065C19.5196 13.2526 19.2652 13.3579 19 13.3579H18C17.7348 13.3579 17.4804 13.2526 17.2929 13.065C17.1054 12.8775 17 12.6231 17 12.3579C17 12.0927 17.1054 11.8383 17.2929 11.6508C17.4804 11.4633 17.7348 11.3579 18 11.3579ZM12 17.3579C12.2652 17.3579 12.5196 17.4633 12.7071 17.6508C12.8946 17.8383 13 18.0927 13 18.3579V19.3579C13 19.6231 12.8946 19.8775 12.7071 20.065C12.5196 20.2526 12.2652 20.3579 12 20.3579C11.7348 20.3579 11.4804 20.2526 11.2929 20.065C11.1054 19.8775 11 19.6231 11 19.3579V18.3579C11 18.0927 11.1054 17.8383 11.2929 17.6508C11.4804 17.4633 11.7348 17.3579 12 17.3579ZM12 4.35791C12.2652 4.35791 12.5196 4.46327 12.7071 4.6508C12.8946 4.83834 13 5.09269 13 5.35791V6.35791C13 6.62313 12.8946 6.87748 12.7071 7.06502C12.5196 7.25255 12.2652 7.35791 12 7.35791C11.7348 7.35791 11.4804 7.25255 11.2929 7.06502C11.1054 6.87748 11 6.62313 11 6.35791V5.35791C11 5.09269 11.1054 4.83834 11.2929 4.6508C11.4804 4.46327 11.7348 4.35791 12 4.35791ZM5 11.3579H6C6.26522 11.3579 6.51957 11.4633 6.70711 11.6508C6.89464 11.8383 7 12.0927 7 12.3579C7 12.6231 6.89464 12.8775 6.70711 13.065C6.51957 13.2526 6.26522 13.3579 6 13.3579H5C4.73478 13.3579 4.48043 13.2526 4.29289 13.065C4.10536 12.8775 4 12.6231 4 12.3579C4 12.0927 4.10536 11.8383 4.29289 11.6508C4.48043 11.4633 4.73478 11.3579 5 11.3579ZM16.95 15.8929L17.657 16.6009C17.7525 16.6932 17.8287 16.8035 17.8811 16.9255C17.9335 17.0475 17.9611 17.1787 17.9623 17.3115C17.9634 17.4443 17.9381 17.576 17.8878 17.6989C17.8375 17.8218 17.7633 17.9334 17.6694 18.0273C17.5755 18.1212 17.4639 18.1955 17.341 18.2457C17.2181 18.296 17.0864 18.3213 16.9536 18.3202C16.8208 18.319 16.6896 18.2914 16.5676 18.239C16.4456 18.1866 16.3352 18.1104 16.243 18.0149L15.536 17.3079C15.3484 17.1204 15.2429 16.866 15.2428 16.6008C15.2427 16.3355 15.348 16.0811 15.5355 15.8934C15.723 15.7058 15.9774 15.6003 16.2426 15.6002C16.5079 15.6001 16.7624 15.7054 16.95 15.8929ZM8.464 15.8929C8.55698 15.9858 8.63074 16.0961 8.68106 16.2175C8.73138 16.3389 8.75729 16.469 8.75729 16.6004C8.75729 16.7318 8.73138 16.862 8.68106 16.9834C8.63074 17.1047 8.55698 17.215 8.464 17.3079L7.757 18.0149C7.66409 18.1078 7.5538 18.1814 7.43243 18.2316C7.31107 18.2818 7.18099 18.3077 7.04965 18.3076C6.78438 18.3075 6.53001 18.2021 6.3425 18.0144C6.15499 17.8268 6.0497 17.5723 6.0498 17.3071C6.04989 17.0418 6.15536 16.7874 6.343 16.5999L7.05 15.8919C7.23753 15.7044 7.49184 15.5991 7.757 15.5991C8.02216 15.5991 8.27647 15.7044 8.464 15.8919V15.8929ZM17.657 6.70091C17.8445 6.88844 17.9498 7.14275 17.9498 7.40791C17.9498 7.67307 17.8445 7.92738 17.657 8.11491L16.95 8.82191C16.7614 9.00407 16.5088 9.10486 16.2466 9.10258C15.9844 9.10031 15.7336 8.99514 15.5482 8.80973C15.3628 8.62432 15.2576 8.37351 15.2553 8.11131C15.253 7.84911 15.3538 7.59651 15.536 7.40791L16.243 6.70091C16.4305 6.51344 16.6848 6.40812 16.95 6.40812C17.2152 6.40812 17.4695 6.51344 17.657 6.70091ZM7.757 6.70091L8.464 7.40791C8.55951 7.50016 8.63569 7.6105 8.6881 7.73251C8.74051 7.85451 8.7681 7.98573 8.76925 8.11851C8.7704 8.25129 8.7451 8.38297 8.69482 8.50586C8.64454 8.62876 8.57029 8.74041 8.4764 8.83431C8.3825 8.9282 8.27085 9.00245 8.14795 9.05273C8.02506 9.10301 7.89338 9.12831 7.7606 9.12716C7.62782 9.12601 7.4966 9.09842 7.3746 9.04601C7.25259 8.9936 7.14225 8.91742 7.05 8.82191L6.343 8.11491C6.16084 7.92631 6.06005 7.67371 6.06233 7.41151C6.0646 7.14931 6.16977 6.8985 6.35518 6.71309C6.54059 6.52768 6.7914 6.42251 7.0536 6.42024C7.3158 6.41796 7.5684 6.51875 7.757 6.70091Z" fill="white"/>
</svg>
