<svg width="24" height="24" viewBox="0 0 24 24" fill="none" xmlns="http://www.w3.org/2000/svg">
<path fill-rule="evenodd" clip-rule="evenodd" d="M21.8837 11.2136C22.0256 10.9934 22.0384 10.7185 21.918 10.4871L19.4589 5.77084C19.3269 5.51776 19.0573 5.35812 18.7623 5.35812H16.4672V3.74669C16.4672 3.33429 16.1186 3 15.6885 3H8.31144C7.88141 3 7.53275 3.33429 7.53275 3.74669V5.35808H5.23766C4.94267 5.35808 4.67305 5.51773 4.5411 5.7708L2.08204 10.487C1.96151 10.7185 1.9745 10.9935 2.11629 11.2136C2.2581 11.4335 2.50865 11.5677 2.77865 11.5677H3.84426V20.2533C3.84426 20.6657 4.19287 21 4.62291 21H19.3771C19.8071 21 20.1557 20.6657 20.1557 20.2533V11.5677H21.2213C21.4913 11.5677 21.7419 11.4334 21.8837 11.2136ZM2.22871 10.5573C2.13354 10.74 2.14376 10.9571 2.25572 11.1309C2.36768 11.3046 2.56552 11.4105 2.77865 11.4105H4.00819V20.2533C4.00819 20.5789 4.28341 20.8428 4.62291 20.8428H19.3771C19.4085 20.8428 19.4395 20.8405 19.4697 20.8361C19.4395 20.8405 19.4086 20.8428 19.3772 20.8428H16.9182H12.6149H4.62309C4.28359 20.8428 4.00837 20.5788 4.00837 20.2533V11.4104H2.77883C2.5657 11.4104 2.36786 11.3045 2.2559 11.1309C2.14394 10.9571 2.13372 10.74 2.22889 10.5572L4.68791 5.84107C4.77212 5.67956 4.92735 5.56624 5.10682 5.52875C4.92727 5.5662 4.77197 5.67954 4.68773 5.8411L2.22871 10.5573ZM7.69668 5.51525H7.69686V3.74665C7.69686 3.4682 7.89821 3.23484 8.1689 3.17313C7.89812 3.23478 7.69668 3.46818 7.69668 3.74669V5.51525ZM21.3193 11.4029C21.2873 11.4079 21.2546 11.4104 21.2215 11.4104H19.992V11.4105H21.2213C21.2544 11.4105 21.2872 11.4079 21.3193 11.4029ZM9.09016 4.49345H14.9098V5.35808H9.09016V4.49345ZM10.149 6.85153H13.851L14.6911 10.0742H9.30886L10.149 6.85153ZM10.0212 6.69432H13.979L14.9011 10.2314H14.9013L13.9792 6.69428H10.0212L10.0212 6.69432ZM4.03869 10.0742L5.71901 6.85153H8.5436L7.70343 10.0742H4.03869ZM5.61786 6.69432H8.75356L7.83144 10.2314H7.83161L8.75374 6.69428H8.31166H5.61788L5.61786 6.69432ZM13.3934 19.5065V14.5153H16.1393V19.5065H13.3934ZM18.5984 19.5065H17.6967V13.7686C17.6967 13.3562 17.3481 13.0218 16.9181 13.0218H12.6148C12.1847 13.0218 11.8361 13.3562 11.8361 13.7686V19.5065H5.40164V11.5677H18.5984V19.5065ZM19.9613 10.0742H16.2966L15.4564 6.85153H18.281L19.9613 10.0742ZM15.2467 6.69432L15.2467 6.69428H15.6887H18.3825L20.2267 10.2314H20.2265L18.3823 6.69432H15.2467ZM8.92641 4.33624V4.33621H15.074V5.51525H15.0738V4.33624H8.92641ZM16.3033 19.6637H16.3035V14.358H13.2297V14.3581H16.3033V19.6637ZM18.7623 19.6637H18.7625V11.4104H5.23788V11.4105H18.7623V19.6637ZM12.4627 13.1972C12.1968 13.2622 12.0002 13.4933 12.0002 13.7685V19.6637H12V13.7686C12 13.4933 12.1968 13.2621 12.4627 13.1972ZM10.2798 17.8832C10.2397 17.8911 10.1982 17.8952 10.1557 17.8952H7.08197C6.74243 17.8952 6.46722 17.6313 6.46722 17.3057V13.7686C6.46722 13.4919 6.66592 13.2598 6.93394 13.1962C6.666 13.2598 6.46738 13.4919 6.46738 13.7685V17.3056C6.46738 17.6312 6.74259 17.8952 7.08213 17.8952H10.1559C10.1983 17.8952 10.2398 17.891 10.2798 17.8832ZM7.69688 14.3581H9.54099V16.7161H9.54115V14.358H7.69688V14.3581ZM10.9344 13.7686C10.9344 13.3561 10.5858 13.0218 10.1557 13.0218H7.08197C6.65189 13.0218 6.30328 13.3561 6.30328 13.7686V17.3057C6.30328 17.7181 6.65189 18.0524 7.08197 18.0524H10.1557C10.5858 18.0524 10.9344 17.7181 10.9344 17.3057V13.7686ZM9.37705 16.559H7.86066V14.5153H9.37705V16.559Z" fill="white"/>
</svg>
