<svg width="24" height="24" viewBox="0 0 24 24" fill="none" xmlns="http://www.w3.org/2000/svg">
<path d="M9.07812 13.8281H11.0312C10.9688 14.5729 10.7604 15.237 10.4062 15.8203C10.0521 16.3984 9.55469 16.8542 8.91406 17.1875C8.27344 17.5208 7.49479 17.6875 6.57812 17.6875C5.875 17.6875 5.24219 17.5625 4.67969 17.3125C4.11719 17.0573 3.63542 16.6979 3.23438 16.2344C2.83333 15.7656 2.52604 15.2005 2.3125 14.5391C2.10417 13.8776 2 13.138 2 12.3203V11.375C2 10.5573 2.10677 9.81771 2.32031 9.15625C2.53906 8.49479 2.85156 7.92969 3.25781 7.46094C3.66406 6.98698 4.15104 6.625 4.71875 6.375C5.29167 6.125 5.9349 6 6.64844 6C7.55469 6 8.32031 6.16667 8.94531 6.5C9.57031 6.83333 10.0547 7.29427 10.3984 7.88281C10.7474 8.47135 10.9609 9.14583 11.0391 9.90625H9.08594C9.03385 9.41667 8.91927 8.9974 8.74219 8.64844C8.57031 8.29948 8.3151 8.03385 7.97656 7.85156C7.63802 7.66406 7.19531 7.57031 6.64844 7.57031C6.20052 7.57031 5.8099 7.65365 5.47656 7.82031C5.14323 7.98698 4.86458 8.23177 4.64062 8.55469C4.41667 8.8776 4.2474 9.27604 4.13281 9.75C4.02344 10.2188 3.96875 10.7552 3.96875 11.3594V12.3203C3.96875 12.8932 4.01823 13.4141 4.11719 13.8828C4.22135 14.3464 4.3776 14.7448 4.58594 15.0781C4.79948 15.4115 5.07031 15.6693 5.39844 15.8516C5.72656 16.0339 6.11979 16.125 6.57812 16.125C7.13542 16.125 7.58594 16.0365 7.92969 15.8594C8.27865 15.6823 8.54167 15.4245 8.71875 15.0859C8.90104 14.7422 9.02083 14.3229 9.07812 13.8281Z" fill="white"/>
<path d="M21.8359 6.15625V17.5312H19.875L14.7734 9.38281V17.5312H12.8125V6.15625H14.7734L19.8906 14.3203V6.15625H21.8359Z" fill="white"/>
</svg>
