<svg width="24" height="24" viewBox="0 0 24 24" fill="none" xmlns="http://www.w3.org/2000/svg">
<path fill-rule="evenodd" clip-rule="evenodd" d="M5.09344 5.94134C5.09078 5.95004 5.0908 5.95372 5.0908 5.95449L5.0908 5.95455L5.0908 5.9546C5.0908 5.95465 5.0908 5.95471 5.0908 5.95478C5.0908 5.95585 5.09095 5.95959 5.09344 5.96775C5.09637 5.97738 5.1036 5.99639 5.12109 6.02487C5.15775 6.08459 5.2325 6.17437 5.37255 6.28473C5.6577 6.50946 6.12385 6.74961 6.77685 6.96728C8.07382 7.3996 9.9205 7.68182 11.9999 7.68182C14.0793 7.68182 15.926 7.3996 17.2229 6.96728C17.8759 6.74961 18.3421 6.50946 18.6272 6.28473C18.7673 6.17437 18.842 6.08459 18.8787 6.02487C18.8962 5.99639 18.9034 5.97738 18.9063 5.96775C18.9089 5.95948 18.909 5.95575 18.909 5.95474C18.909 5.95469 18.909 5.95464 18.909 5.9546V5.95455V5.95449C18.909 5.95372 18.909 5.95004 18.9063 5.94134C18.9034 5.93172 18.8962 5.9127 18.8787 5.88422C18.842 5.8245 18.7673 5.73473 18.6272 5.62436C18.3421 5.39963 17.8759 5.15948 17.2229 4.94181C15.926 4.50949 14.0793 4.22727 11.9999 4.22727C9.9205 4.22727 8.07382 4.50949 6.77685 4.94181C6.12385 5.15948 5.6577 5.39963 5.37255 5.62436C5.2325 5.73473 5.15775 5.8245 5.12109 5.88422C5.1036 5.9127 5.09637 5.93172 5.09344 5.94134ZM18.909 8.13661C18.5625 8.3138 18.1778 8.4697 17.7691 8.60591C16.2529 9.11131 14.2133 9.40909 11.9999 9.40909C9.78652 9.40909 7.74684 9.11131 6.23063 8.60591C5.822 8.4697 5.43731 8.3138 5.0908 8.13661V12C5.0908 12.0016 5.09087 12.0061 5.09373 12.0156C5.0968 12.0257 5.10414 12.045 5.12152 12.0735C5.15792 12.1332 5.23199 12.2228 5.37078 12.3328C5.65353 12.5568 6.11669 12.7965 6.76769 13.0139C8.06077 13.4456 9.90709 13.7273 11.9999 13.7273C14.0927 13.7273 15.939 13.4456 17.2321 13.0139C17.8831 12.7965 18.3462 12.5568 18.629 12.3328C18.7678 12.2228 18.8419 12.1332 18.8783 12.0735C18.8956 12.045 18.903 12.0257 18.906 12.0156C18.9089 12.0061 18.909 12.0016 18.909 12V8.13661ZM20.6363 12V5.95455C20.6363 5.21877 20.1881 4.65528 19.6964 4.26774C19.1949 3.87252 18.5227 3.55437 17.7691 3.30318C16.2529 2.79778 14.2133 2.5 11.9999 2.5C9.78652 2.5 7.74684 2.79778 6.23063 3.30318C5.47705 3.55437 4.8049 3.87252 4.30341 4.26774C3.81166 4.65528 3.36353 5.21877 3.36353 5.95455V12V18.0455C3.36353 18.779 3.80674 19.3427 4.29803 19.732C4.79795 20.1281 5.46831 20.4465 6.22072 20.6977C7.73447 21.2031 9.7745 21.5 11.9999 21.5C14.2253 21.5 16.2653 21.2031 17.7791 20.6977C18.5315 20.4465 19.2018 20.1281 19.7017 19.732C20.193 19.3427 20.6363 18.779 20.6363 18.0455V12ZM18.909 14.1866C18.5653 14.3624 18.1841 14.517 17.7791 14.6523C16.2653 15.1576 14.2253 15.4545 11.9999 15.4545C9.7745 15.4545 7.73447 15.1576 6.22072 14.6523C5.81571 14.517 5.43448 14.3624 5.0908 14.1866V18.0455C5.0908 18.0471 5.09087 18.0515 5.09373 18.061C5.0968 18.0712 5.10414 18.0904 5.12152 18.119C5.15792 18.1787 5.23199 18.2682 5.37078 18.3782C5.65353 18.6023 6.11669 18.842 6.76769 19.0593C8.06077 19.491 9.90709 19.7727 11.9999 19.7727C14.0927 19.7727 15.939 19.491 17.2321 19.0593C17.8831 18.842 18.3462 18.6023 18.629 18.3782C18.7678 18.2682 18.8419 18.1787 18.8783 18.119C18.8956 18.0904 18.903 18.0712 18.906 18.061C18.9089 18.0515 18.909 18.0471 18.909 18.0455V14.1866Z" fill="#F2F2F2"/>
</svg>
