<svg width="24" height="24" viewBox="0 0 24 24" fill="none" xmlns="http://www.w3.org/2000/svg">
<path d="M9.82809 5H20.0001C20.5305 5 21.0392 5.21071 21.4143 5.58579C21.7894 5.96086 22.0001 6.46957 22.0001 7V17C22.0001 17.5304 21.7894 18.0391 21.4143 18.4142C21.0392 18.7893 20.5305 19 20.0001 19H9.82809C9.2977 18.9999 8.78908 18.7891 8.41409 18.414L2.70709 12.707C2.51962 12.5195 2.41431 12.2652 2.41431 12C2.41431 11.7348 2.51962 11.4805 2.70709 11.293L8.41409 5.586C8.78908 5.2109 9.2977 5.00011 9.82809 5V5ZM9.82809 17H20.0001V7H9.82809L4.82809 12L9.82809 17ZM16.4141 12L17.8281 13.414C18.0103 13.6026 18.111 13.8552 18.1088 14.1174C18.1065 14.3796 18.0013 14.6304 17.8159 14.8158C17.6305 15.0012 17.3797 15.1064 17.1175 15.1087C16.8553 15.111 16.6027 15.0102 16.4141 14.828L15.0001 13.414L13.5861 14.828C13.4938 14.9235 13.3835 14.9997 13.2615 15.0521C13.1395 15.1045 13.0083 15.1321 12.8755 15.1333C12.7427 15.1344 12.611 15.1091 12.4881 15.0588C12.3652 15.0085 12.2536 14.9343 12.1597 14.8404C12.0658 14.7465 11.9916 14.6349 11.9413 14.512C11.891 14.3891 11.8657 14.2574 11.8668 14.1246C11.868 13.9918 11.8956 13.8606 11.948 13.7386C12.0004 13.6166 12.0766 13.5062 12.1721 13.414L13.5861 12L12.1721 10.586C12.0766 10.4938 12.0004 10.3834 11.948 10.2614C11.8956 10.1394 11.868 10.0082 11.8668 9.8754C11.8657 9.74262 11.891 9.61094 11.9413 9.48805C11.9916 9.36515 12.0658 9.2535 12.1597 9.15961C12.2536 9.06571 12.3652 8.99146 12.4881 8.94118C12.611 8.8909 12.7427 8.8656 12.8755 8.86675C13.0083 8.8679 13.1395 8.89549 13.2615 8.9479C13.3835 9.00031 13.4938 9.07649 13.5861 9.172L15.0001 10.586L16.4141 9.172C16.5063 9.07649 16.6167 9.00031 16.7387 8.9479C16.8607 8.89549 16.9919 8.8679 17.1247 8.86675C17.2575 8.8656 17.3892 8.8909 17.512 8.94118C17.6349 8.99146 17.7466 9.06571 17.8405 9.15961C17.9344 9.2535 18.0086 9.36515 18.0589 9.48805C18.1092 9.61094 18.1345 9.74262 18.1333 9.8754C18.1322 10.0082 18.1046 10.1394 18.0522 10.2614C17.9998 10.3834 17.9236 10.4938 17.8281 10.586L16.4141 12Z" fill="white"/>
</svg>
