<svg width="24" height="24" viewBox="0 0 24 24" fill="none" xmlns="http://www.w3.org/2000/svg">
<path d="M4.328 8.86797L11.345 15.121C11.5281 15.284 11.7648 15.3741 12.01 15.3741C12.2552 15.3741 12.4919 15.284 12.675 15.121L19.684 8.87497L12.547 4.20997C12.3844 4.10369 12.1943 4.0471 12 4.0471C11.8057 4.0471 11.6156 4.10369 11.453 4.20997L4.328 8.86797ZM20 9.08197V11.272L14.006 16.614C13.4565 17.1037 12.7461 17.3743 12.01 17.3743C11.2739 17.3743 10.5635 17.1037 10.014 16.614L4 11.254V9.08297V20H20V9.08197ZM2.906 7.40797L10.359 2.53597C10.8469 2.21715 11.4172 2.04736 12 2.04736C12.5828 2.04736 13.1531 2.21715 13.641 2.53597L21.094 7.40797C21.3722 7.58975 21.6007 7.838 21.7589 8.13027C21.9171 8.42255 22 8.74963 22 9.08197V20C22 20.5304 21.7893 21.0391 21.4142 21.4142C21.0391 21.7893 20.5304 22 20 22H4C3.46957 22 2.96086 21.7893 2.58579 21.4142C2.21071 21.0391 2 20.5304 2 20V9.08197C2.00004 8.74963 2.0829 8.42255 2.24109 8.13027C2.39927 7.838 2.62779 7.58975 2.906 7.40797Z" fill="white"/>
</svg>
