<svg width="24" height="24" viewBox="0 0 24 24" fill="none" xmlns="http://www.w3.org/2000/svg">
<path d="M18.6404 1.63294L17.4689 0.331098C17.2793 0.120346 17.0091 0 16.7256 0H5.59393C4.759 0 4.43689 0.619489 4.43689 1.10273V4.64822C4.43689 5.09649 4.80029 5.45989 5.24855 5.45989C5.69682 5.45989 6.06022 5.09649 6.06022 4.64822V1.98277C6.06022 1.79717 6.21562 1.64198 6.3961 1.64198H14.6792C14.8618 1.64198 14.9528 1.67443 14.9528 1.82341V5.6077C14.9528 6.71227 15.8483 7.6077 16.9528 7.6077H20.8492C21.0809 7.6077 21.1706 7.72693 21.1706 7.9038V22.0262C21.1706 22.3222 21.0513 22.367 20.8708 22.367H6.3961C6.21405 22.367 6.06022 22.2085 6.06022 22.0262V21.5423C6.06022 21.0968 5.69908 20.7357 5.2536 20.7357C4.80811 20.7357 4.44697 21.0968 4.44697 21.5423V22.7696C4.42592 23.4889 4.80991 24 5.59393 24H21.6729C22.5129 24 22.8 23.3915 22.8 22.8373V7.73276V6.61435C22.8 6.36334 22.7056 6.12151 22.5355 5.93688L22.3805 5.76864L18.6404 1.63294ZM16.6033 1.82341L17.0671 2.34423L20.1824 5.76864L20.3541 5.97605H17.171C16.9306 5.97605 16.7785 5.93636 16.7147 5.85699C16.6509 5.77763 16.6138 5.6522 16.6033 5.48073V1.82341ZM15.2941 13.6009C15.2941 13.1591 15.6523 12.8009 16.0942 12.8009H19.9873C20.4292 12.8009 20.7874 13.1591 20.7874 13.6009C20.7874 14.0428 20.4292 14.401 19.9874 14.401H16.0942C15.6523 14.401 15.2941 14.0428 15.2941 13.6009ZM15.2941 10.4007C15.2941 9.95884 15.6523 9.60064 16.0942 9.60064H19.9873C20.4292 9.60064 20.7874 9.95884 20.7874 10.4007C20.7874 10.8425 20.4292 11.2007 19.9874 11.2007H16.0942C15.6523 11.2007 15.2941 10.8425 15.2941 10.4007ZM15.2941 16.8011C15.2941 16.3593 15.6523 16.0011 16.0942 16.0011H19.9873C20.4292 16.0011 20.7874 16.3593 20.7874 16.8011C20.7874 17.243 20.4292 17.6012 19.9874 17.6012H16.0942C15.6523 17.6012 15.2941 17.243 15.2941 16.8011ZM2.19995 6.75088C1.64767 6.75088 1.19995 7.19859 1.19995 7.75088V18.5517C1.19995 19.104 1.64767 19.5517 2.19995 19.5517H12.7576C13.3099 19.5517 13.7576 19.104 13.7576 18.5517V7.75088C13.7576 7.19859 13.3099 6.75088 12.7576 6.75088H2.19995ZM7.47957 14.1962L6.71047 15.369H7.47957V16.7996H3.61858L6.42174 12.5896L3.93878 8.80059H6.01212L7.48117 11.004L8.94866 8.80059H11.0204L8.53428 12.5881L11.339 16.7996H9.18722L7.47957 14.1962Z" fill="white"/>
</svg>
