<svg width="24" height="24" viewBox="0 0 24 24" fill="none" xmlns="http://www.w3.org/2000/svg">
<g clip-path="url(#clip0_60_957)">
<path d="M8.75709 7.34288L16.2427 7.34286C16.7949 7.34286 17.2425 6.89526 17.2425 6.34301C17.2425 5.79076 16.7949 5.34316 16.2427 5.34316L6.34315 5.34318C6.07975 5.34283 5.82237 5.44961 5.63604 5.63593C5.44972 5.82225 5.34294 6.07964 5.3433 6.34304L5.34327 16.2426C5.34327 16.7948 5.79087 17.2424 6.34312 17.2424C6.89537 17.2424 7.34297 16.7948 7.34297 16.2426L7.343 8.75722L17.0204 18.4346C17.372 18.7862 17.9732 18.7546 18.3639 18.3639C18.7546 17.9732 18.7862 17.372 18.4346 17.0204L8.75709 7.34288Z" fill="white"/>
</g>
<defs>
<clipPath id="clip0_60_957">
<rect width="24" height="24" fill="white"/>
</clipPath>
</defs>
</svg>
