<svg width="24" height="24" viewBox="0 0 24 24" fill="none" xmlns="http://www.w3.org/2000/svg">
<path d="M10.9999 17.5861L5.70681 12.293C5.31631 11.9025 4.6833 11.9025 4.2928 12.293C3.9023 12.6835 3.9023 13.3165 4.2928 13.707L11.2928 20.707C11.4788 20.8935 11.7363 21 11.9998 21C12.2633 21 12.5208 20.8935 12.7068 20.707L19.7069 13.707C20.0974 13.3165 20.0974 12.6835 19.7069 12.293C19.3164 11.9025 18.6834 11.9025 18.2929 12.293L12.9999 17.5859L12.9999 3.90001C12.9999 3.40276 12.5524 3.00001 11.9999 3.00001C11.4474 3.00001 10.9999 3.40276 10.9999 3.90001L10.9999 17.5861Z" fill="white"/>
</svg>
