<svg width="24" height="24" viewBox="0 0 24 24" fill="none" xmlns="http://www.w3.org/2000/svg">
<path d="M12.9998 6.41391L18.2929 11.707C18.6834 12.0975 19.3165 12.0975 19.707 11.707C20.0975 11.3165 20.0975 10.6835 19.707 10.293L12.7069 3.293C12.5209 3.1065 12.2634 3 11.9999 3C11.7364 3 11.4789 3.1065 11.2929 3.293L4.29288 10.293C3.90237 10.6835 3.90237 11.3165 4.29288 11.707C4.68338 12.0975 5.31638 12.0975 5.70689 11.707L10.9998 6.41408V20.1C10.9998 20.5972 11.4473 21 11.9998 21C12.5523 21 12.9998 20.5972 12.9998 20.1V6.41391Z" fill="white"/>
</svg>
