<svg width="24" height="24" viewBox="0 0 24 24" fill="none" xmlns="http://www.w3.org/2000/svg">
<g clip-path="url(#clip0_60_947)">
<path d="M7.34288 15.2429L7.34286 7.75734C7.34286 7.20509 6.89526 6.75749 6.34301 6.75748C5.79075 6.75748 5.34315 7.20508 5.34316 7.75733L5.34318 17.6568C5.34283 17.9202 5.44961 18.1776 5.63593 18.364C5.82225 18.5503 6.07964 18.6571 6.34304 18.6567L16.2426 18.6567C16.7948 18.6567 17.2424 18.2091 17.2424 17.6569C17.2424 17.1046 16.7948 16.657 16.2425 16.657L8.75722 16.657L18.4346 6.9796C18.7862 6.62799 18.7546 6.02678 18.3639 5.6361C17.9732 5.24542 17.372 5.21378 17.0204 5.56539L7.34288 15.2429Z" fill="white"/>
</g>
<defs>
<clipPath id="clip0_60_947">
<rect width="24" height="24" fill="white"/>
</clipPath>
</defs>
</svg>
