<svg width="24" height="24" viewBox="0 0 24 24" fill="none" xmlns="http://www.w3.org/2000/svg">
<g clip-path="url(#clip0_60_959)">
<path d="M16.6569 8.75709L16.6569 16.2427C16.6569 16.7949 17.1045 17.2425 17.6567 17.2425C18.209 17.2425 18.6566 16.7949 18.6566 16.2427L18.6566 6.34315C18.6569 6.07975 18.5501 5.82237 18.3638 5.63604C18.1775 5.44972 17.9201 5.34294 17.6567 5.3433L7.7572 5.34327C7.20495 5.34327 6.75735 5.79087 6.75735 6.34312C6.75735 6.89537 7.20495 7.34297 7.75721 7.34297L15.2425 7.343L5.56514 17.0204C5.21353 17.372 5.24517 17.9732 5.63585 18.3639C6.02653 18.7546 6.62774 18.7862 6.97935 18.4346L16.6569 8.75709Z" fill="white"/>
</g>
<defs>
<clipPath id="clip0_60_959">
<rect width="24" height="24" fill="white"/>
</clipPath>
</defs>
</svg>
