<svg width="24" height="24" viewBox="0 0 24 24" fill="none" xmlns="http://www.w3.org/2000/svg">
<g clip-path="url(#clip0_60_949)">
<path d="M15.2429 16.6569L7.75734 16.6569C7.20509 16.6569 6.75748 17.1045 6.75748 17.6567C6.75748 18.209 7.20508 18.6566 7.75733 18.6566L17.6568 18.6566C17.9202 18.6569 18.1776 18.5501 18.364 18.3638C18.5503 18.1775 18.6571 17.9201 18.6567 17.6567L18.6567 7.7572C18.6567 7.20495 18.2091 6.75735 17.6569 6.75735C17.1046 6.75735 16.657 7.20495 16.657 7.75721L16.657 15.2425L6.9796 5.56514C6.628 5.21353 6.02678 5.24517 5.6361 5.63585C5.24543 6.02652 5.21378 6.62774 5.56539 6.97935L15.2429 16.6569Z" fill="white"/>
</g>
<defs>
<clipPath id="clip0_60_949">
<rect width="24" height="24" fill="white"/>
</clipPath>
</defs>
</svg>
