<svg width="24" height="24" viewBox="0 0 24 24" fill="none" xmlns="http://www.w3.org/2000/svg">
<path d="M6.41391 11.0002L11.707 5.70705C12.0975 5.31655 12.0975 4.68355 11.707 4.29305C11.3165 3.90254 10.6835 3.90254 10.293 4.29305L3.293 11.2931C3.1065 11.4791 3 11.7366 3 12.0001C3 12.2636 3.1065 12.5211 3.293 12.7071L10.293 19.7071C10.6835 20.0976 11.3165 20.0976 11.707 19.7071C12.0975 19.3166 12.0975 18.6836 11.707 18.2931L6.41408 13.0002L20.1 13.0002C20.5972 13.0002 21 12.5527 21 12.0002C21 11.4477 20.5972 11.0002 20.1 11.0002L6.41391 11.0002Z" fill="white"/>
</svg>
