<svg width="24" height="24" viewBox="0 0 24 24" fill="none" xmlns="http://www.w3.org/2000/svg">
<path d="M17.5861 12.9998L12.293 18.2929C11.9025 18.6834 11.9025 19.3165 12.293 19.707C12.6835 20.0975 13.3165 20.0975 13.707 19.707L20.707 12.7069C20.8935 12.5209 21 12.2634 21 11.9999C21 11.7364 20.8935 11.4789 20.707 11.2929L13.707 4.29288C13.3165 3.90237 12.6835 3.90237 12.293 4.29288C11.9025 4.68338 11.9025 5.31638 12.293 5.70689L17.5859 10.9998L3.90001 10.9998C3.40276 10.9998 3.00001 11.4473 3.00001 11.9998C3.00001 12.5523 3.40276 12.9998 3.90001 12.9998L17.5861 12.9998Z" fill="white"/>
</svg>
