<svg width="24" height="24" viewBox="0 0 24 24" fill="none" xmlns="http://www.w3.org/2000/svg">
<path d="M9 17H5C4.46957 17 3.96086 16.7893 3.58579 16.4142C3.21071 16.0391 3 15.5304 3 15V4C3 3.46957 3.21071 2.96086 3.58579 2.58579C3.96086 2.21071 4.46957 2 5 2H13C13.5304 2 14.0391 2.21071 14.4142 2.58579C14.7893 2.96086 15 3.46957 15 4V7H17.1716C17.702 7 18.2107 7.21071 18.5858 7.58579L20.4142 9.41421C20.7893 9.78929 21 10.298 21 10.8284V20C21 20.5304 20.7893 21.0391 20.4142 21.4142C20.0391 21.7893 19.5304 22 19 22H11C10.4696 22 9.96086 21.7893 9.58579 21.4142C9.21071 21.0391 9 20.5304 9 20V17ZM9 15V9C9 8.46957 9.21071 7.96086 9.58579 7.58579C9.96086 7.21071 10.4696 7 11 7H13V5C13 4.44772 12.5523 4 12 4H6C5.44772 4 5 4.44772 5 5V14C5 14.5523 5.44772 15 6 15H9ZM17.4649 9.29289C17.2774 9.10536 17.023 9 16.7578 9H12C11.4477 9 11 9.44772 11 10V19C11 19.5523 11.4477 20 12 20H18C18.5523 20 19 19.5523 19 19V11.2422C19 10.977 18.8946 10.7226 18.7071 10.5351L17.4649 9.29289Z" fill="white"/>
</svg>
