<svg width="24" height="24" viewBox="0 0 24 24" fill="none" xmlns="http://www.w3.org/2000/svg">
<path fill-rule="evenodd" clip-rule="evenodd" d="M3.87868 1.87868C4.44129 1.31607 5.20435 1 6 1H14C14.2652 1 14.5196 1.10536 14.7071 1.29289L20.7071 7.29289C20.8946 7.48043 21 7.73478 21 8V20C21 20.7957 20.6839 21.5587 20.1213 22.1213C19.5587 22.6839 18.7957 23 18 23H6C5.20435 23 4.44129 22.6839 3.87868 22.1213C3.31607 21.5587 3 20.7957 3 20V4C3 3.20435 3.31607 2.44129 3.87868 1.87868ZM6 3C5.73478 3 5.48043 3.10536 5.29289 3.29289C5.10536 3.48043 5 3.73478 5 4V20C5 20.2652 5.10536 20.5196 5.29289 20.7071C5.48043 20.8946 5.73478 21 6 21H18C18.2652 21 18.5196 20.8946 18.7071 20.7071C18.8946 20.5196 19 20.2652 19 20V9H14C13.4477 9 13 8.55228 13 8V3H6ZM15 4.41421L17.5858 7H15V4.41421ZM9.1715 12.1716C9.56203 11.781 10.1952 11.781 10.5857 12.1716L12 13.5858L13.4142 12.1716C13.8047 11.7811 14.4379 11.7811 14.8284 12.1716C15.219 12.5622 15.219 13.1953 14.8284 13.5858L13.4142 15.0001L14.8284 16.4142C15.2189 16.8047 15.2189 17.4379 14.8284 17.8284C14.4378 18.219 13.8047 18.219 13.4141 17.8284L12 16.4143L10.5858 17.8285C10.1953 18.219 9.5621 18.219 9.17157 17.8285C8.78105 17.438 8.78105 16.8048 9.17157 16.4143L10.5858 15.0001L9.1715 13.5858C8.78098 13.1953 8.78098 12.5621 9.1715 12.1716Z" fill="white"/>
</svg>
