<svg width="24" height="24" viewBox="0 0 24 24" fill="none" xmlns="http://www.w3.org/2000/svg">
<g clip-path="url(#clip0_60_1488)">
<path d="M23.8584 16.7877L20.056 6.70162C19.697 5.7497 19.1091 5.60748 18.7906 5.60748C18.4722 5.60748 17.8841 5.74962 17.5252 6.7017L16.2704 10.0299L13.1922 1.86534C12.8331 0.91334 12.2452 0.771118 11.9267 0.771118C11.6082 0.771118 11.0202 0.91326 10.6612 1.86534L7.65648 9.83552L6.47482 6.70162C6.11587 5.7497 5.52791 5.60748 5.20945 5.60748C4.89098 5.60748 4.30294 5.74962 3.94399 6.7017L0.141569 16.7876C-0.0916436 17.4062 -0.0347547 18.0367 0.29769 18.5173C0.630134 18.9979 1.19999 19.2736 1.86108 19.2736H3.22941V22.4578C3.22941 22.8836 3.57462 23.2288 4.0004 23.2288H6.4185C6.84428 23.2288 7.18949 22.8836 7.18949 22.4578V19.2735H9.94658V22.4577C9.94658 22.8835 10.2918 23.2287 10.7176 23.2287H13.1357C13.5615 23.2287 13.9067 22.8835 13.9067 22.4577V19.2735H16.8103V22.4577C16.8103 22.8835 17.1555 23.2287 17.5813 23.2287H19.9994C20.4252 23.2287 20.7704 22.8835 20.7704 22.4577V19.2735H22.1387C22.7998 19.2735 23.3698 18.9979 23.7021 18.5172C24.0347 18.0367 24.0916 17.4062 23.8584 16.7877ZM12.3648 21.6868H11.4886V19.2735H12.3648V21.6868ZM11.9266 2.88005L17.4326 17.4845C17.493 17.6447 17.4804 17.7508 17.4511 17.7929C17.422 17.8352 17.3272 17.8844 17.156 17.8844H6.69737C6.52613 17.8844 6.43135 17.8352 6.40217 17.793C6.37292 17.7508 6.3604 17.6447 6.42076 17.4846L11.9266 2.88005ZM1.56589 17.6401C1.53664 17.5979 1.52411 17.4918 1.58448 17.3317L5.20937 7.71633L6.83232 12.0213L4.97777 16.9405C4.87757 17.2063 4.83127 17.4742 4.83708 17.7315H1.86108C1.68985 17.7315 1.59506 17.6822 1.56589 17.6401ZM5.64751 21.6868H4.77147V19.2735H5.64751V21.6868ZM19.2285 21.6868H18.3525V19.2735H19.2285V21.6868ZM22.4341 17.6401C22.4049 17.6823 22.3101 17.7315 22.1389 17.7315H19.0163C19.0221 17.4742 18.9758 17.2064 18.8756 16.9406L17.0943 12.2156L18.7905 7.71633L22.4154 17.3318C22.4759 17.4918 22.4633 17.5979 22.4341 17.6401Z" fill="white"/>
</g>
<defs>
<clipPath id="clip0_60_1488">
<rect width="24" height="24" fill="white"/>
</clipPath>
</defs>
</svg>
