<svg width="24" height="24" viewBox="0 0 24 24" fill="none" xmlns="http://www.w3.org/2000/svg">
<path d="M20.4129 3.89991L4.13191 10.2259L8.96091 12.2319C10.3724 12.8174 11.4939 13.9392 12.0789 15.3509L14.0849 20.1789L20.4129 3.89991ZM22.2599 4.58191L15.9319 20.8629C15.5319 21.8929 14.3809 22.4199 13.3609 22.0429C13.1124 21.9511 12.8855 21.809 12.6945 21.6254C12.5034 21.4417 12.3524 21.2206 12.2509 20.9759L10.2439 16.1459C9.85348 15.2052 9.10577 14.4579 8.16491 14.0679L3.33691 12.0619C2.33291 11.6449 1.87491 10.4859 2.31391 9.47191C2.42176 9.22405 2.57756 8.99997 2.77235 8.81256C2.96714 8.62515 3.19707 8.47811 3.44891 8.37991L19.7299 2.05191C20.0836 1.90977 20.4713 1.87469 20.8447 1.95103C21.2182 2.02737 21.561 2.21176 21.8305 2.4813C22.1001 2.75084 22.2845 3.09364 22.3608 3.4671C22.4371 3.84056 22.4021 4.22822 22.2599 4.58191Z" fill="white"/>
</svg>
