<svg width="24" height="24" viewBox="0 0 24 24" fill="none" xmlns="http://www.w3.org/2000/svg">
<path d="M20.919 4.63503L14.966 20.715C14.59 21.731 13.507 22.253 12.548 21.88C12.3105 21.786 12.095 21.6437 11.9152 21.4624C11.7353 21.281 11.595 21.0643 11.503 20.826L9.61595 16.056C9.26134 15.1404 8.55837 14.4025 7.66095 14.004L3.11895 12.023C2.17395 11.61 1.74395 10.465 2.15695 9.46503C2.25464 9.22357 2.39924 9.00388 2.58239 8.81867C2.76554 8.63346 2.9836 8.48641 3.22395 8.38603L18.54 2.13603C19.507 1.74103 20.58 2.23703 20.935 3.24503C21.092 3.69103 21.086 4.18503 20.92 4.63503H20.919Z" fill="white"/>
</svg>
