<svg width="24" height="24" viewBox="0 0 24 24" fill="none" xmlns="http://www.w3.org/2000/svg">
<path d="M5.63597 11.208L12 17.572L18.364 11.208C18.9266 10.6454 19.2427 9.88227 19.2427 9.08655C19.2427 8.29083 18.9266 7.52771 18.364 6.96505C18.0854 6.68645 17.7546 6.46545 17.3906 6.31468C17.0266 6.1639 16.6365 6.08629 16.2425 6.08629C15.4467 6.08629 14.6836 6.40239 14.121 6.96505L12 9.08605L9.87897 6.96605C9.31488 6.41094 8.55429 6.10122 7.76288 6.10435C6.97146 6.10748 6.21335 6.4232 5.65367 6.98275C5.09398 7.5423 4.77808 8.30035 4.77476 9.09176C4.77145 9.88317 5.08099 10.6438 5.63597 11.208ZM11.293 5.55005L12 6.25705L12.707 5.55005C13.1705 5.08242 13.7219 4.71095 14.3294 4.45698C14.9369 4.203 15.5885 4.07152 16.247 4.07008C16.9054 4.06863 17.5577 4.19726 18.1663 4.44857C18.7749 4.69989 19.3279 5.06894 19.7935 5.53453C20.2591 6.00013 20.6281 6.5531 20.8794 7.16171C21.1308 7.77031 21.2594 8.42256 21.2579 9.08101C21.2565 9.73946 21.125 10.3911 20.871 10.9986C20.6171 11.6061 20.2456 12.1575 19.778 12.621L12.708 19.692C12.6151 19.785 12.5048 19.8588 12.3834 19.9091C12.262 19.9594 12.1319 19.9853 12.0005 19.9853C11.869 19.9853 11.7389 19.9594 11.6175 19.9091C11.4961 19.8588 11.3858 19.785 11.293 19.692L4.22196 12.622C3.74798 12.16 3.37045 11.6084 3.11129 10.9993C2.85214 10.3902 2.7165 9.73571 2.71226 9.07378C2.70802 8.41186 2.83526 7.75567 3.08659 7.1433C3.33792 6.53093 3.70834 5.97456 4.17637 5.50646C4.6444 5.03837 5.20072 4.66786 5.81306 4.41645C6.42539 4.16503 7.08156 4.0377 7.74349 4.04185C8.40541 4.04599 9.05993 4.18153 9.66907 4.44061C10.2782 4.69968 10.8298 5.07712 11.292 5.55105L11.293 5.55005Z" fill="white"/>
</svg>
