<svg width="24" height="24" viewBox="0 0 24 24" fill="none" xmlns="http://www.w3.org/2000/svg">
<path d="M11.293 5.55005L12 6.25805L12.707 5.55105C13.1705 5.08342 13.7219 4.71195 14.3294 4.45798C14.9369 4.204 15.5885 4.07252 16.247 4.07108C16.9054 4.06963 17.5577 4.19826 18.1663 4.44957C18.7749 4.70089 19.3279 5.06994 19.7935 5.53553C20.2591 6.00113 20.6281 6.5541 20.8794 7.16271C21.1308 7.77131 21.2594 8.42356 21.2579 9.08201C21.2565 9.74046 21.125 10.3921 20.871 10.9996C20.6171 11.6071 20.2456 12.1585 19.778 12.622L12.708 19.693C12.6151 19.786 12.5048 19.8598 12.3834 19.9101C12.262 19.9604 12.1319 19.9863 12.0005 19.9863C11.869 19.9863 11.7389 19.9604 11.6175 19.9101C11.4961 19.8598 11.3858 19.786 11.293 19.693L4.22196 12.622C3.74798 12.16 3.37045 11.6084 3.11129 10.9993C2.85214 10.3902 2.7165 9.73571 2.71226 9.07378C2.70802 8.41186 2.83526 7.75567 3.08659 7.1433C3.33792 6.53093 3.70834 5.97456 4.17637 5.50646C4.6444 5.03837 5.20072 4.66786 5.81306 4.41645C6.42539 4.16503 7.08156 4.0377 7.74349 4.04185C8.40541 4.04599 9.05993 4.18153 9.66907 4.44061C10.2782 4.69968 10.8298 5.07712 11.292 5.55105L11.293 5.55005Z" fill="white"/>
</svg>
