<svg width="24" height="24" viewBox="0 0 24 24" fill="none" xmlns="http://www.w3.org/2000/svg">
<path fill-rule="evenodd" clip-rule="evenodd" d="M7.67273 3.81812H7.67224C7.16486 3.81838 6.6676 3.96019 6.2364 4.22759C5.80561 4.49472 5.4578 4.87662 5.232 5.33042L5.23134 5.33175L2.10439 11.5766C2.03773 11.703 2 11.8471 2 11.9999V17.4545C2 18.1778 2.28734 18.8715 2.7988 19.383C3.31026 19.8944 4.00395 20.1818 4.72727 20.1818H19.2727C19.996 20.1818 20.6897 19.8944 21.2012 19.383C21.7127 18.8715 22 18.1778 22 17.4545V11.9999C22 11.9883 21.9998 11.9768 21.9993 11.9652C21.9941 11.8253 21.9572 11.6934 21.8956 11.5766L18.7687 5.33175L18.7681 5.33055C18.5423 4.8767 18.1944 4.49475 17.7636 4.22759C17.3324 3.96019 16.8351 3.81838 16.3278 3.81812H16.3273H7.67273ZM19.619 11.0908L17.1417 6.14333L17.1404 6.14084C17.0652 5.98938 16.9491 5.86192 16.8054 5.77279C16.6617 5.68369 16.496 5.63642 16.327 5.6363H7.67304C7.50397 5.63642 7.33828 5.68369 7.19459 5.77279C7.05086 5.86192 6.93484 5.98938 6.85957 6.14084L6.85834 6.14333L6.85833 6.14333L4.38099 11.0908H8.36364C8.66759 11.0908 8.95144 11.2428 9.12005 11.4957L10.6683 13.8181H13.3317L14.88 11.4957C15.0486 11.2428 15.3324 11.0908 15.6364 11.0908H19.619ZM3.81818 12.909V17.4545C3.81818 17.6956 3.91396 17.9268 4.08445 18.0973C4.25494 18.2678 4.48617 18.3636 4.72727 18.3636H19.2727C19.5138 18.3636 19.7451 18.2678 19.9156 18.0973C20.086 17.9268 20.1818 17.6956 20.1818 17.4545V12.909H16.1229L14.5746 15.2315C14.406 15.4844 14.1221 15.6363 13.8182 15.6363H10.1818C9.87786 15.6363 9.59401 15.4844 9.42541 15.2315L7.87711 12.909H3.81818Z" fill="#F2F2F2"/>
</svg>
