<svg width="24" height="24" viewBox="0 0 24 24" fill="none" xmlns="http://www.w3.org/2000/svg">
<path d="M14 16.0001V13.7021L14.856 13.1051C15.7298 12.497 16.3868 11.6258 16.7311 10.6185C17.0755 9.61114 17.0894 8.52016 16.7708 7.50438C16.4521 6.4886 15.8175 5.60104 14.9595 4.97092C14.1014 4.34079 13.0646 4.001 12 4.001C10.9354 4.001 9.89861 4.34079 9.04053 4.97092C8.18246 5.60104 7.5479 6.4886 7.22924 7.50438C6.91059 8.52016 6.92446 9.61114 7.26886 10.6185C7.61325 11.6258 8.27017 12.497 9.144 13.1051L10 13.7021V16.0001H11V8.00005C11 7.73484 11.1054 7.48048 11.2929 7.29294C11.4804 7.10541 11.7348 7.00005 12 7.00005C12.2652 7.00005 12.5196 7.10541 12.7071 7.29294C12.8946 7.48048 13 7.73484 13 8.00005V16.0001H14ZM14 18.0001H10V20.0001H14V18.0001ZM5 9.00005C5.00008 7.79642 5.31051 6.61314 5.90132 5.56449C6.49213 4.51584 7.34335 3.63725 8.37279 3.01356C9.40223 2.38987 10.5751 2.04216 11.7781 2.00401C12.9811 1.96585 14.1737 2.23855 15.2406 2.79575C16.3075 3.35296 17.2126 4.17585 17.8687 5.18496C18.5248 6.19407 18.9096 7.35529 18.9859 8.5565C19.0623 9.75771 18.8276 10.9583 18.3045 12.0424C17.7815 13.1264 16.9878 14.0573 16 14.7451V20.0001C16 20.5305 15.7893 21.0392 15.4142 21.4143C15.0391 21.7893 14.5304 22.0001 14 22.0001H10C9.46957 22.0001 8.96086 21.7893 8.58579 21.4143C8.21072 21.0392 8 20.5305 8 20.0001V14.7451C7.07341 14.1007 6.31657 13.2416 5.79415 12.2411C5.27173 11.2407 4.99926 10.1287 5 9.00005Z" fill="white"/>
</svg>
