<svg width="24" height="24" viewBox="0 0 24 24" fill="none" xmlns="http://www.w3.org/2000/svg">
<path d="M6.18999 12.345C6.37183 12.1637 6.61817 12.0618 6.87499 12.0618C7.13182 12.0618 7.37816 12.1637 7.55999 12.345C7.64983 12.4347 7.72109 12.5413 7.76971 12.6586C7.81834 12.7758 7.84336 12.9016 7.84336 13.0285C7.84336 13.1555 7.81834 13.2812 7.76971 13.3985C7.72109 13.5158 7.64983 13.6223 7.55999 13.712L5.50499 15.764C5.32518 15.9435 5.18252 16.1566 5.08519 16.3913C4.98785 16.6259 4.93775 16.8775 4.93775 17.1315C4.93775 17.3856 4.98785 17.6371 5.08519 17.8718C5.18252 18.1064 5.32518 18.3196 5.50499 18.499C5.86867 18.8618 6.36135 19.0655 6.87499 19.0655C7.38864 19.0655 7.88132 18.8618 8.24499 18.499L13.039 13.712C13.1288 13.6223 13.2001 13.5158 13.2487 13.3985C13.2973 13.2812 13.3224 13.1555 13.3224 13.0285C13.3224 12.9016 13.2973 12.7758 13.2487 12.6586C13.2001 12.5413 13.1288 12.4347 13.039 12.345C12.949 12.2553 12.8776 12.1487 12.8289 12.0313C12.7802 11.9139 12.7551 11.7881 12.7551 11.661C12.7551 11.5339 12.7802 11.4081 12.8289 11.2907C12.8776 11.1734 12.949 11.0668 13.039 10.977C13.2208 10.7957 13.4672 10.6938 13.724 10.6938C13.9808 10.6938 14.2272 10.7957 14.409 10.977C14.6788 11.2462 14.8928 11.566 15.0389 11.918C15.1849 12.27 15.2601 12.6474 15.2601 13.0285C15.2601 13.4096 15.1849 13.787 15.0389 14.139C14.8928 14.4911 14.6788 14.8108 14.409 15.08L9.61399 19.867C8.88677 20.5927 7.90136 21.0003 6.87399 21.0003C5.84662 21.0003 4.86121 20.5927 4.13399 19.867C3.77437 19.5081 3.48905 19.0818 3.29438 18.6125C3.09971 18.1432 2.99951 17.6401 2.99951 17.132C2.99951 16.6239 3.09971 16.1209 3.29438 15.6515C3.48905 15.1822 3.77437 14.7559 4.13399 14.397L6.18999 12.344V12.345ZM17.81 11.655C17.6282 11.8364 17.3818 11.9382 17.125 11.9382C16.8682 11.9382 16.6218 11.8364 16.44 11.655C16.3502 11.5653 16.2789 11.4588 16.2303 11.3415C16.1817 11.2242 16.1566 11.0985 16.1566 10.9715C16.1566 10.8446 16.1817 10.7188 16.2303 10.6016C16.2789 10.4843 16.3502 10.3777 16.44 10.288L18.495 8.23602C18.6748 8.05657 18.8175 7.84342 18.9148 7.60876C19.0121 7.37411 19.0622 7.12256 19.0622 6.86852C19.0622 6.61448 19.0121 6.36294 18.9148 6.12828C18.8175 5.89363 18.6748 5.68048 18.495 5.50102C18.1313 5.1383 17.6386 4.9346 17.125 4.9346C16.6113 4.9346 16.1187 5.1383 15.755 5.50102L10.962 10.288C10.8722 10.3777 10.8009 10.4843 10.7523 10.6016C10.7037 10.7188 10.6786 10.8446 10.6786 10.9715C10.6786 11.0985 10.7037 11.2242 10.7523 11.3415C10.8009 11.4588 10.8722 11.5653 10.962 11.655C11.052 11.7448 11.1234 11.8514 11.1721 11.9687C11.2208 12.0861 11.2459 12.2119 11.2459 12.339C11.2459 12.4661 11.2208 12.5919 11.1721 12.7093C11.1234 12.8267 11.052 12.9333 10.962 13.023C10.7802 13.2044 10.5338 13.3062 10.277 13.3062C10.0202 13.3062 9.77383 13.2044 9.59199 13.023C9.3222 12.7538 9.10815 12.4341 8.9621 12.082C8.81606 11.73 8.74088 11.3526 8.74088 10.9715C8.74088 10.5904 8.81606 10.213 8.9621 9.861C9.10815 9.50898 9.3222 9.18921 9.59199 8.92002L14.387 4.13302C15.1142 3.40732 16.0996 2.99976 17.127 2.99976C18.1544 2.99976 19.1398 3.40732 19.867 4.13302C20.2266 4.49193 20.5119 4.91824 20.7066 5.38755C20.9013 5.85685 21.0015 6.35994 21.0015 6.86802C21.0015 7.3761 20.9013 7.8792 20.7066 8.3485C20.5119 8.81781 20.2266 9.24412 19.867 9.60302L17.81 11.656V11.655Z" fill="white"/>
</svg>
