<svg width="24" height="24" viewBox="0 0 24 24" fill="none" xmlns="http://www.w3.org/2000/svg">
<path fill-rule="evenodd" clip-rule="evenodd" d="M12 3C12 3.55228 11.5506 3.99356 11.0026 4.06242C9.77377 4.21683 8.59276 4.65513 7.55544 5.34824C6.23985 6.22729 5.21447 7.47672 4.60897 8.93853C4.00347 10.4003 3.84504 12.0089 4.15372 13.5607C4.4624 15.1126 5.22433 16.538 6.34315 17.6569C7.46197 18.7757 8.88743 19.5376 10.4393 19.8463C11.9911 20.155 13.5997 19.9965 15.0615 19.391C16.5233 18.7855 17.7727 17.7602 18.6518 16.4446C19.3449 15.4072 19.7832 14.2262 19.9376 12.9974C20.0064 12.4494 20.4477 12 21 12C21.5523 12 22.0052 12.4488 21.95 12.9984C21.787 14.6234 21.2277 16.1893 20.3147 17.5557C19.2159 19.2002 17.6541 20.4819 15.8268 21.2388C13.9996 21.9957 11.9889 22.1937 10.0491 21.8079C8.10929 21.422 6.32746 20.4696 4.92894 19.0711C3.53041 17.6725 2.578 15.8907 2.19215 13.9509C1.8063 12.0111 2.00433 10.0004 2.76121 8.17317C3.51809 6.3459 4.79981 4.78412 6.4443 3.6853C7.81071 2.7723 9.37657 2.213 11.0016 2.04995C11.5512 1.99482 12 2.44772 12 3Z" fill="white"/>
</svg>
