<svg width="24" height="24" viewBox="0 0 24 24" fill="none" xmlns="http://www.w3.org/2000/svg">
<path d="M6.864 17.1359C7.32755 17.6036 7.8789 17.975 8.4864 18.229C9.0939 18.483 9.74558 18.6145 10.404 18.6159C11.0625 18.6173 11.7147 18.4887 12.3233 18.2374C12.9319 17.9861 13.4849 17.617 13.9505 17.1514C14.4161 16.6858 14.7852 16.1329 15.0365 15.5243C15.2878 14.9157 15.4164 14.2634 15.415 13.605C15.4135 12.9465 15.282 12.2948 15.0281 11.6873C14.7741 11.0798 14.4026 10.5285 13.935 10.0649C12.9959 9.13403 11.7263 8.61302 10.404 8.61592C9.08175 8.61881 7.81445 9.14537 6.87945 10.0804C5.94445 11.0154 5.41789 12.2827 5.41499 13.605C5.4121 14.9272 5.9331 16.1968 6.864 17.1359ZM14.592 7.99392L17.145 5.44092H15.628C15.3628 5.44092 15.1084 5.33557 14.9209 5.14803C14.7334 4.96049 14.628 4.70614 14.628 4.44092C14.628 4.17571 14.7334 3.92135 14.9209 3.73382C15.1084 3.54628 15.3628 3.44092 15.628 3.44092H19.628C19.7594 3.44053 19.8896 3.46612 20.0111 3.51624C20.1327 3.56635 20.243 3.64 20.336 3.73293C20.4289 3.82587 20.5026 3.93627 20.5527 4.05777C20.6028 4.17928 20.6284 4.30949 20.628 4.44092V8.44092C20.628 8.70614 20.5226 8.96049 20.3351 9.14803C20.1476 9.33557 19.8932 9.44092 19.628 9.44092C19.3628 9.44092 19.1084 9.33557 18.9209 9.14803C18.7334 8.96049 18.628 8.70614 18.628 8.44092V6.78592L16.006 9.40792C17.0586 10.826 17.5365 12.5893 17.3439 14.3448C17.1513 16.1003 16.3025 17.7181 14.9676 18.8743C13.6326 20.0304 11.9101 20.6394 10.1452 20.5792C8.3802 20.5191 6.70314 19.7942 5.45 18.5499C4.19783 17.2987 3.46622 15.6195 3.40249 13.8504C3.33876 12.0814 3.94763 10.3539 5.10651 9.01574C6.26539 7.67762 7.88821 6.82825 9.64822 6.63865C11.4082 6.44906 13.1747 6.93331 14.592 7.99392Z" fill="white"/>
</svg>
