<svg width="24" height="24" viewBox="0 0 24 24" fill="none" xmlns="http://www.w3.org/2000/svg">
<path d="M4 19.6131L7.419 18.4731C7.60936 18.4095 7.80338 18.3574 8 18.3171V4.3871L4 5.7211V19.6131ZM3.338 21.9411C3.18705 21.9953 3.02528 22.0124 2.86633 21.991C2.70738 21.9695 2.55592 21.9102 2.42473 21.8179C2.29354 21.7257 2.18647 21.6032 2.11255 21.4608C2.03862 21.3185 2.00002 21.1605 2 21.0001V5.0001C1.99996 4.78619 2.06851 4.57791 2.19558 4.40584C2.32265 4.23377 2.50155 4.10699 2.706 4.0441L7.419 2.4731C8.44525 2.13105 9.55475 2.13105 10.581 2.4731L14.051 3.6301C14.667 3.83551 15.333 3.83551 15.949 3.6301L20.662 2.0591C20.8129 2.00489 20.9747 1.98778 21.1337 2.00922C21.2926 2.03066 21.4441 2.09001 21.5753 2.18228C21.7065 2.27454 21.8135 2.39701 21.8875 2.53935C21.9614 2.68168 22 2.83971 22 3.0001V19.0001C22 19.214 21.9315 19.4223 21.8044 19.5944C21.6773 19.7664 21.4985 19.8932 21.294 19.9561L16.581 21.5271C15.5548 21.8691 14.4452 21.8691 13.419 21.5271L9.949 20.3701C9.33301 20.1647 8.66699 20.1647 8.051 20.3701L3.338 21.9411ZM20 18.2801V4.3871L16.581 5.5271C16.3906 5.59071 16.1966 5.64281 16 5.6831V19.6131L20 18.2791V18.2801ZM14 19.6141V5.6831C13.8034 5.64281 13.6094 5.59071 13.419 5.5271L10 4.3871V18.3171C10.1966 18.3574 10.3906 18.4095 10.581 18.4731L14 19.6131V19.6141Z" fill="white"/>
</svg>
