<svg width="24" height="24" viewBox="0 0 24 24" fill="none" xmlns="http://www.w3.org/2000/svg">
<path d="M5.14286 5H18.8571C19.1602 5 19.4509 5.12643 19.6653 5.35147C19.8796 5.57652 20 5.88174 20 6.2C20 6.51826 19.8796 6.82348 19.6653 7.04853C19.4509 7.27357 19.1602 7.4 18.8571 7.4H5.14286C4.83975 7.4 4.54906 7.27357 4.33474 7.04853C4.12041 6.82348 4 6.51826 4 6.2C4 5.88174 4.12041 5.57652 4.33474 5.35147C4.54906 5.12643 4.83975 5 5.14286 5ZM5.14286 16.6H18.8571C19.1602 16.6 19.4509 16.7264 19.6653 16.9515C19.8796 17.1765 20 17.4817 20 17.8C20 18.1183 19.8796 18.4235 19.6653 18.6485C19.4509 18.8736 19.1602 19 18.8571 19H5.14286C4.83975 19 4.54906 18.8736 4.33474 18.6485C4.12041 18.4235 4 18.1183 4 17.8C4 17.4817 4.12041 17.1765 4.33474 16.9515C4.54906 16.7264 4.83975 16.6 5.14286 16.6ZM5.14286 10.8H18.8571C19.1602 10.8 19.4509 10.9264 19.6653 11.1515C19.8796 11.3765 20 11.6817 20 12C20 12.3183 19.8796 12.6235 19.6653 12.8485C19.4509 13.0736 19.1602 13.2 18.8571 13.2H5.14286C4.83975 13.2 4.54906 13.0736 4.33474 12.8485C4.12041 12.6235 4 12.3183 4 12C4 11.6817 4.12041 11.3765 4.33474 11.1515C4.54906 10.9264 4.83975 10.8 5.14286 10.8Z" fill="white"/>
</svg>
