<svg width="24" height="24" viewBox="0 0 24 24" fill="none" xmlns="http://www.w3.org/2000/svg">
<path fill-rule="evenodd" clip-rule="evenodd" d="M5.60244 6.26022C5.59999 6.26846 5.6 6.27195 5.6 6.27267L5.6 6.27273L5.6 6.27278C5.6 6.27283 5.6 6.27288 5.6 6.27295C5.60001 6.27396 5.60014 6.27751 5.60244 6.28524C5.60516 6.29436 5.61186 6.31237 5.62806 6.33935C5.66202 6.39592 5.73126 6.48098 5.86099 6.58554C6.12513 6.79844 6.55693 7.02595 7.16181 7.23216C8.36322 7.64173 10.0738 7.90909 12 7.90909C13.9262 7.90909 15.6368 7.64173 16.8382 7.23216C17.4431 7.02595 17.8749 6.79844 18.139 6.58554C18.2687 6.48098 18.338 6.39592 18.3719 6.33935C18.3881 6.31237 18.3948 6.29436 18.3976 6.28524C18.3999 6.2774 18.4 6.27387 18.4 6.27291C18.4 6.27286 18.4 6.27282 18.4 6.27278V6.27273V6.27267C18.4 6.27195 18.4 6.26846 18.3976 6.26022C18.3948 6.2511 18.3881 6.23309 18.3719 6.2061C18.338 6.14953 18.2687 6.06448 18.139 5.95992C17.8749 5.74702 17.4431 5.51951 16.8382 5.3133C15.6368 4.90373 13.9262 4.63636 12 4.63636C10.0738 4.63636 8.36322 4.90373 7.16181 5.3133C6.55693 5.51951 6.12513 5.74702 5.86099 5.95992C5.73126 6.06448 5.66202 6.14953 5.62806 6.2061C5.61186 6.23309 5.60516 6.2511 5.60244 6.26022ZM18.4 8.33994C18.079 8.50781 17.7227 8.65551 17.3442 8.78455C15.9397 9.26335 14.0503 9.54545 12 9.54545C9.94972 9.54545 8.06033 9.26335 6.65585 8.78455C6.27733 8.65551 5.92098 8.50781 5.6 8.33994V12C5.6 12.0015 5.60006 12.0058 5.60272 12.0147C5.60556 12.0244 5.61236 12.0426 5.62846 12.0696C5.66218 12.1262 5.73079 12.2111 5.85935 12.3152C6.12127 12.5275 6.5503 12.7546 7.15333 12.9605C8.35113 13.3695 10.0614 13.6364 12 13.6364C13.9386 13.6364 15.6489 13.3695 16.8467 12.9605C17.4497 12.7546 17.8787 12.5275 18.1406 12.3152C18.2692 12.2111 18.3378 12.1262 18.3715 12.0696C18.3876 12.0426 18.3944 12.0244 18.3973 12.0147C18.3999 12.0058 18.4 12.0015 18.4 12V8.33994ZM20 12V6.27273C20 5.57568 19.5849 5.04185 19.1294 4.6747C18.6648 4.30028 18.0422 3.99888 17.3442 3.76091C15.9397 3.28211 14.0503 3 12 3C9.94972 3 8.06033 3.28211 6.65585 3.76091C5.95779 3.99888 5.33517 4.30028 4.87063 4.6747C4.41511 5.04185 4 5.57568 4 6.27273V12V17.7273C4 18.4222 4.41056 18.9562 4.86565 19.325C5.32873 19.7003 5.9497 20.002 6.64667 20.2399C8.04887 20.7187 9.93859 21 12 21C14.0614 21 15.9511 20.7187 17.3533 20.2399C18.0503 20.002 18.6713 19.7003 19.1344 19.325C19.5894 18.9562 20 18.4222 20 17.7273V12ZM18.4 14.0715C18.0816 14.238 17.7285 14.3846 17.3533 14.5127C15.9511 14.9914 14.0614 15.2727 12 15.2727C9.93859 15.2727 8.04887 14.9914 6.64667 14.5127C6.2715 14.3846 5.91835 14.238 5.6 14.0715V17.7273C5.6 17.7288 5.60006 17.733 5.60272 17.742C5.60556 17.7516 5.61236 17.7699 5.62846 17.7969C5.66218 17.8535 5.73079 17.9383 5.85935 18.0425C6.12127 18.2548 6.5503 18.4819 7.15333 18.6878C8.35113 19.0968 10.0614 19.3636 12 19.3636C13.9386 19.3636 15.6489 19.0968 16.8467 18.6878C17.4497 18.4819 17.8787 18.2548 18.1406 18.0425C18.2692 17.9383 18.3378 17.8535 18.3715 17.7969C18.3876 17.7699 18.3944 17.7516 18.3973 17.742C18.3999 17.733 18.4 17.7288 18.4 17.7273V14.0715Z" fill="white"/>
</svg>
