<svg width="24" height="24" viewBox="0 0 24 24" fill="none" xmlns="http://www.w3.org/2000/svg">
<path d="M19.2991 10.9569L18.1781 9.83592C17.9905 9.64841 17.885 9.39404 17.8849 9.12877C17.8848 8.8635 17.9901 8.60906 18.1776 8.42142C18.3651 8.23377 18.6195 8.12831 18.8847 8.12821C19.15 8.12812 19.4045 8.23341 19.5921 8.42092L22.4201 11.2499C22.6076 11.4374 22.7129 11.6918 22.7129 11.9569C22.7129 12.2221 22.6076 12.4764 22.4201 12.6639L19.5921 15.4919C19.4035 15.6741 19.1509 15.7749 18.8887 15.7726C18.6265 15.7703 18.3757 15.6651 18.1903 15.4797C18.0049 15.2943 17.8997 15.0435 17.8974 14.7813C17.8951 14.5191 17.9959 14.2665 18.1781 14.0779L19.2991 12.9569H12.8141V19.4419L13.9351 18.3209C14.1237 18.1388 14.3763 18.038 14.6385 18.0402C14.9007 18.0425 15.1515 18.1477 15.3369 18.3331C15.5223 18.5185 15.6275 18.7693 15.6298 19.0315C15.632 19.2937 15.5313 19.5463 15.3491 19.7349L12.5211 22.5639C12.3336 22.7514 12.0793 22.8567 11.8141 22.8567C11.5489 22.8567 11.2946 22.7514 11.1071 22.5639L8.27809 19.7349C8.09593 19.5463 7.99514 19.2937 7.99742 19.0315C7.9997 18.7693 8.10487 18.5185 8.29027 18.3331C8.47568 18.1477 8.7265 18.0425 8.98869 18.0402C9.25089 18.038 9.50349 18.1388 9.69209 18.3209L10.8141 19.4419V12.9569H4.32809L5.45009 14.0779C5.63225 14.2665 5.73305 14.5191 5.73077 14.7813C5.72849 15.0435 5.62332 15.2943 5.43791 15.4797C5.2525 15.6651 5.00169 15.7703 4.73949 15.7726C4.4773 15.7749 4.2247 15.6741 4.03609 15.4919L1.20709 12.6639C1.01962 12.4764 0.914307 12.2221 0.914307 11.9569C0.914307 11.6918 1.01962 11.4374 1.20709 11.2499L4.03609 8.41992C4.22387 8.23241 4.47844 8.12717 4.7438 8.12736C5.00916 8.12755 5.26359 8.23314 5.45109 8.42092C5.6386 8.60869 5.74384 8.86326 5.74365 9.12862C5.74346 9.39399 5.63787 9.64841 5.45009 9.83592L4.32809 10.9559H10.8141V4.47292L9.69209 5.59292C9.50349 5.77507 9.25089 5.87587 8.98869 5.87359C8.7265 5.87131 8.47568 5.76614 8.29027 5.58073C8.10487 5.39533 7.9997 5.14451 7.99742 4.88232C7.99514 4.62012 8.09593 4.36752 8.27809 4.17892L11.1071 1.34992C11.2946 1.16244 11.5489 1.05713 11.8141 1.05713C12.0793 1.05713 12.3336 1.16244 12.5211 1.34992L15.3491 4.17892C15.4446 4.27116 15.5208 4.38151 15.5732 4.50351C15.6256 4.62551 15.6532 4.75673 15.6543 4.88951C15.6555 5.02229 15.6302 5.15397 15.5799 5.27687C15.5296 5.39977 15.4554 5.51142 15.3615 5.60531C15.2676 5.6992 15.1559 5.77346 15.033 5.82374C14.9102 5.87402 14.7785 5.89932 14.6457 5.89817C14.5129 5.89701 14.3817 5.86943 14.2597 5.81702C14.1377 5.76461 14.0273 5.68843 13.9351 5.59292L12.8141 4.47192V10.9569H19.2991Z" fill="white"/>
</svg>
