<svg width="24" height="24" viewBox="0 0 24 24" fill="none" xmlns="http://www.w3.org/2000/svg">
<path d="M4.79892 13.4247V20.0944H15.5924V13.4247H4.79892ZM4.79892 11.5191H15.5924C16.0695 11.5191 16.5271 11.7199 16.8645 12.0772C17.2018 12.4346 17.3914 12.9193 17.3914 13.4247V20.0944C17.3914 20.5998 17.2018 21.0845 16.8645 21.4419C16.5271 21.7992 16.0695 22 15.5924 22H4.79892C4.32182 22 3.86425 21.7992 3.52689 21.4419C3.18953 21.0845 3 20.5998 3 20.0944V13.4247C3 12.9193 3.18953 12.4346 3.52689 12.0772C3.86425 11.7199 4.32182 11.5191 4.79892 11.5191ZM12.9049 9.61346H11.1059V4.90562C11.1059 4.40022 11.2955 3.91552 11.6328 3.55814C11.9702 3.20077 12.4278 3 12.9049 3H19.2011C19.6782 3 20.1357 3.20077 20.4731 3.55814C20.8105 3.91552 21 4.40022 21 4.90562V16.3394C21 16.8448 20.8105 17.3295 20.4731 17.6868C20.1357 18.0442 19.6782 18.245 19.2011 18.245H19.1903V16.3394H19.2011V4.90562H12.9049V9.61346Z" fill="white"/>
</svg>
