<svg width="24" height="24" viewBox="0 0 24 24" fill="none" xmlns="http://www.w3.org/2000/svg">
<path d="M9.67096 15.4399L21.9998 1.99982C22.4998 2.49994 22.4998 3 21.9998 4.5L15.615 20.7139C15.22 21.7299 14.083 22.2519 13.075 21.8789C12.8294 21.7883 12.6051 21.6478 12.4164 21.4665C12.2276 21.2851 12.0783 21.0667 11.978 20.8249L9.99696 16.0549C9.90696 15.8389 9.79696 15.6319 9.67096 15.4379V15.4399ZM8.26096 14.1519C8.15761 14.0977 8.05183 14.0484 7.94396 14.0039L3.17396 12.0229C2.18496 11.6099 1.73196 10.4649 2.16496 9.46489C2.2713 9.21992 2.42511 8.99844 2.61752 8.81325C2.80992 8.62805 3.03711 8.4828 3.28596 8.38589L19.366 2.13589C20.9998 1.5 21.4998 1.49989 21.9998 1.99982L8.26096 14.1519Z" fill="white"/>
</svg>
