<svg width="24" height="24" viewBox="0 0 24 24" fill="none" xmlns="http://www.w3.org/2000/svg">
<path d="M18.9069 6.44006L11.2519 14.0951C11.4789 14.4201 11.6719 14.7711 11.8269 15.1431L13.7369 19.7421L18.9069 6.43906V6.44006ZM9.90491 12.7481L17.5609 5.09206L4.25791 10.2621L8.85691 12.1731C9.22606 12.3262 9.57746 12.519 9.90491 12.7481ZM21.5229 4.88606L15.4959 20.3921C15.1159 21.3721 14.0189 21.8751 13.0469 21.5161C12.8101 21.4286 12.594 21.293 12.4121 21.118C12.2302 20.943 12.0865 20.7323 11.9899 20.4991L10.0799 15.9001C9.70826 15.0038 8.99614 14.2917 8.09991 13.9201L3.49991 12.0101C2.54591 11.6131 2.10991 10.5101 2.52791 9.54406C2.6304 9.30802 2.7786 9.0946 2.96396 8.91611C3.14932 8.73761 3.36817 8.59757 3.60791 8.50406L19.1139 2.47506C19.4508 2.33928 19.8203 2.30558 20.1762 2.37817C20.5321 2.45075 20.8588 2.6264 21.1157 2.88326C21.3726 3.14012 21.5482 3.46685 21.6208 3.82278C21.6934 4.17871 21.6597 4.54813 21.5239 4.88506L21.5229 4.88606Z" fill="white"/>
</svg>
