<svg width="24" height="24" viewBox="0 0 24 24" fill="none" xmlns="http://www.w3.org/2000/svg">
<path fill-rule="evenodd" clip-rule="evenodd" d="M13.1875 3.6875C13.1875 3.03166 12.6558 2.5 12 2.5C11.3442 2.5 10.8125 3.03166 10.8125 3.6875L10.8125 10.8125L3.6875 10.8125C3.03166 10.8125 2.5 11.3442 2.5 12C2.5 12.6558 3.03166 13.1875 3.6875 13.1875L10.8125 13.1875L10.8125 20.3125C10.8125 20.9683 11.3442 21.5 12 21.5C12.6558 21.5 13.1875 20.9683 13.1875 20.3125L13.1875 13.1875L20.3125 13.1875C20.9683 13.1875 21.5 12.6558 21.5 12C21.5 11.3442 20.9683 10.8125 20.3125 10.8125L13.1875 10.8125L13.1875 3.6875Z" fill="#151515"/>
</svg>
