<svg width="24" height="24" viewBox="0 0 24 24" fill="none" xmlns="http://www.w3.org/2000/svg">
<path d="M13 15.6653H10.407C10.4147 14.9153 10.4767 14.2863 10.593 13.7782C10.7093 13.2621 10.9031 12.7944 11.1744 12.375C11.4535 11.9556 11.8217 11.5121 12.2791 11.0444C12.6357 10.6895 12.9574 10.3548 13.2442 10.0403C13.531 9.71774 13.7597 9.37903 13.9302 9.02419C14.1008 8.66129 14.186 8.24597 14.186 7.77823C14.186 7.27016 14.1047 6.83871 13.9419 6.48387C13.7791 6.12903 13.5388 5.85887 13.2209 5.67339C12.9109 5.4879 12.5233 5.39516 12.0581 5.39516C11.6705 5.39516 11.3062 5.47581 10.9651 5.6371C10.624 5.79032 10.3488 6.03226 10.1395 6.3629C9.93023 6.68548 9.81783 7.1129 9.80233 7.64516H7C7.0155 6.62903 7.24806 5.77419 7.69767 5.08065C8.14729 4.3871 8.75194 3.86694 9.51163 3.52016C10.2713 3.17339 11.1202 3 12.0581 3C13.0969 3 13.9845 3.18548 14.7209 3.55645C15.4574 3.91935 16.0194 4.45161 16.407 5.15323C16.8023 5.84677 17 6.68548 17 7.66935C17 8.37903 16.8643 9.02419 16.593 9.60484C16.3217 10.1774 15.969 10.7137 15.5349 11.2137C15.1008 11.7056 14.6318 12.1976 14.1279 12.6895C13.6938 13.1008 13.3992 13.5484 13.2442 14.0323C13.0891 14.5081 13.0078 15.0524 13 15.6653ZM10.1744 19.4395C10.1744 19.004 10.3178 18.6371 10.6047 18.3387C10.8915 18.0323 11.2829 17.879 11.7791 17.879C12.2752 17.879 12.6667 18.0323 12.9535 18.3387C13.2403 18.6371 13.3837 19.004 13.3837 19.4395C13.3837 19.875 13.2403 20.246 12.9535 20.5524C12.6667 20.8508 12.2752 21 11.7791 21C11.2829 21 10.8915 20.8508 10.6047 20.5524C10.3178 20.246 10.1744 19.875 10.1744 19.4395Z" fill="white"/>
</svg>
