<svg width="24" height="24" viewBox="0 0 24 24" fill="none" xmlns="http://www.w3.org/2000/svg">
<path fill-rule="evenodd" clip-rule="evenodd" d="M2 12C2 17.523 6.477 22 12 22C17.523 22 22 17.523 22 12C22 6.477 17.523 2 12 2C6.477 2 2 6.477 2 12ZM17.6569 17.6569C16.1566 19.1571 14.1217 20 12 20C9.87827 20 7.84344 19.1571 6.34315 17.6569C4.84285 16.1566 4 14.1217 4 12C4 9.87827 4.84285 7.84344 6.34315 6.34315C7.84344 4.84285 9.87827 4 12 4C14.1217 4 16.1566 4.84285 17.6569 6.34315C19.1571 7.84344 20 9.87827 20 12C20 14.1217 19.1571 16.1566 17.6569 17.6569ZM11.0442 13.7399H12.6C12.6047 13.3654 12.6535 13.0327 12.7465 12.7419C12.8395 12.4462 13.0163 12.1727 13.2767 11.9214C13.5791 11.6207 13.8605 11.3201 14.1209 11.0195C14.3814 10.7139 14.593 10.3862 14.7558 10.0363C14.9186 9.68145 15 9.28719 15 8.85349C15 8.25224 14.8814 7.7397 14.6442 7.31586C14.4116 6.8871 14.0744 6.56183 13.6326 6.34005C13.1907 6.11335 12.6581 6 12.0349 6C11.4721 6 10.9628 6.10596 10.507 6.31788C10.0512 6.52979 9.68837 6.84767 9.4186 7.27151C9.14884 7.69534 9.0093 8.21774 9 8.83871H10.6814C10.6907 8.51344 10.7581 8.25224 10.8837 8.05511C11.0093 7.85305 11.1744 7.7052 11.3791 7.61156C11.5837 7.51299 11.8023 7.46371 12.0349 7.46371C12.314 7.46371 12.5465 7.52039 12.7326 7.63374C12.9233 7.74709 13.0674 7.91219 13.1651 8.12903C13.2628 8.34588 13.3116 8.60954 13.3116 8.92003C13.3116 9.20587 13.2605 9.45968 13.1581 9.68145C13.0558 9.8983 12.9186 10.1053 12.7465 10.3024C12.5744 10.4946 12.3814 10.6991 12.1674 10.916C11.893 11.2018 11.6721 11.4729 11.5047 11.7292C11.3419 11.9854 11.2256 12.2713 11.1558 12.5867C11.086 12.8972 11.0488 13.2816 11.0442 13.7399ZM11.1628 15.3737C10.9907 15.556 10.9047 15.7802 10.9047 16.0464C10.9047 16.3125 10.9907 16.5392 11.1628 16.7265C11.3349 16.9088 11.5698 17 11.8674 17C12.1651 17 12.4 16.9088 12.5721 16.7265C12.7442 16.5392 12.8302 16.3125 12.8302 16.0464C12.8302 15.7802 12.7442 15.556 12.5721 15.3737C12.4 15.1864 12.1651 15.0927 11.8674 15.0927C11.5698 15.0927 11.3349 15.1864 11.1628 15.3737Z" fill="white"/>
</svg>
