<svg width="24" height="24" viewBox="0 0 24 24" fill="none" xmlns="http://www.w3.org/2000/svg">
<path d="M7.5 6.75C7.5 6.33579 7.16166 5.99345 6.75321 6.06231C4.6295 6.42039 3 8.27805 3 10.5V17.25C3 17.6642 3.33579 18 3.75 18H9.75C10.1642 18 10.5 17.6642 10.5 17.25V11.25C10.5 10.8358 10.1642 10.5 9.75 10.5H4.5C4.5 9.09133 5.45507 7.91919 6.75739 7.5914C7.15908 7.4903 7.5 7.16421 7.5 6.75ZM18 6.75C18 6.33579 17.6617 5.99345 17.2532 6.06231C15.1295 6.42039 13.5 8.27805 13.5 10.5V17.25C13.5 17.6642 13.8358 18 14.25 18H20.25C20.6642 18 21 17.6642 21 17.25V11.25C21 10.8358 20.6642 10.5 20.25 10.5H15C15 9.09133 15.9551 7.91919 17.2574 7.5914C17.6591 7.4903 18 7.16421 18 6.75ZM4.5 12H9V16.5H4.5V12ZM15 12H19.5V16.5H15V12Z" fill="white"/>
</svg>
