<svg width="24" height="24" viewBox="0 0 24 24" fill="none" xmlns="http://www.w3.org/2000/svg">
<path d="M13.774 18.0001L14.95 19.1761C15.1322 19.3647 15.233 19.6173 15.2307 19.8795C15.2284 20.1417 15.1232 20.3925 14.9378 20.5779C14.7524 20.7633 14.5016 20.8685 14.2394 20.8708C13.9772 20.8731 13.7246 20.7723 13.536 20.5901L10.707 17.7621C10.5195 17.5746 10.4142 17.3203 10.4142 17.0551C10.4142 16.7899 10.5195 16.5356 10.707 16.3481L13.536 13.5191C13.7236 13.3316 13.9781 13.2263 14.2434 13.2264C14.5086 13.2265 14.763 13.332 14.9505 13.5196C15.138 13.7072 15.2433 13.9617 15.2432 14.227C15.2431 14.4922 15.1376 14.7466 14.95 14.9341L13.883 16.0001H16C17.0609 16.0001 18.0783 15.5787 18.8284 14.8285C19.5786 14.0784 20 13.061 20 12.0001C20 10.9392 19.5786 9.92182 18.8284 9.17167C18.0783 8.42153 17.0609 8.0001 16 8.0001C15.7348 8.0001 15.4804 7.89474 15.2929 7.70721C15.1054 7.51967 15 7.26532 15 7.0001C15 6.73488 15.1054 6.48053 15.2929 6.29299C15.4804 6.10546 15.7348 6.0001 16 6.0001C17.5913 6.0001 19.1174 6.63224 20.2426 7.75746C21.3679 8.88268 22 10.4088 22 12.0001C22 13.5914 21.3679 15.1175 20.2426 16.2427C19.1174 17.368 17.5913 18.0001 16 18.0001H13.774ZM10.273 6.0001L9.176 4.9041C9.08309 4.81119 9.00939 4.70089 8.95911 4.5795C8.90882 4.4581 8.88294 4.328 8.88294 4.1966C8.88294 3.93124 8.98836 3.67674 9.176 3.4891C9.36364 3.30146 9.61814 3.19604 9.8835 3.19604C10.1489 3.19604 10.4034 3.30146 10.591 3.4891L13.419 6.3181C13.6065 6.50563 13.7118 6.75994 13.7118 7.0251C13.7118 7.29027 13.6065 7.54457 13.419 7.7321L10.591 10.5601C10.4035 10.7477 10.1491 10.8532 9.88385 10.8533C9.61858 10.8534 9.36414 10.7481 9.1765 10.5606C8.98886 10.3731 8.88339 10.1187 8.8833 9.85345C8.8832 9.58818 8.98849 9.33374 9.176 9.1461L10.323 8.0001H8C6.93913 8.0001 5.92172 8.42153 5.17157 9.17167C4.42143 9.92182 4 10.9392 4 12.0001C4 13.061 4.42143 14.0784 5.17157 14.8285C5.92172 15.5787 6.93913 16.0001 8 16.0001C8.26522 16.0001 8.51957 16.1055 8.70711 16.293C8.89464 16.4805 9 16.7349 9 17.0001C9 17.2653 8.89464 17.5197 8.70711 17.7072C8.51957 17.8947 8.26522 18.0001 8 18.0001C6.4087 18.0001 4.88258 17.368 3.75736 16.2427C2.63214 15.1175 2 13.5914 2 12.0001C2 10.4088 2.63214 8.88268 3.75736 7.75746C4.88258 6.63224 6.4087 6.0001 8 6.0001H10.273Z" fill="white"/>
</svg>
