<svg width="24" height="24" viewBox="0 0 24 24" fill="none" xmlns="http://www.w3.org/2000/svg">
<path d="M5.99607 19.97C5.73395 19.97 5.4744 19.9184 5.23223 19.8181C4.99006 19.7178 4.77003 19.5708 4.58468 19.3854C4.39933 19.2001 4.25231 18.98 4.152 18.7379C4.05169 18.4957 4.00007 18.2362 4.00007 17.974C4.00007 17.7119 4.05169 17.4524 4.152 17.2102C4.25231 16.968 4.39933 16.748 4.58468 16.5627C4.77003 16.3773 4.99006 16.2303 5.23223 16.13C5.4744 16.0297 5.73395 15.978 5.99607 15.978C6.52544 15.978 7.03313 16.1883 7.40745 16.5627C7.78177 16.937 7.99207 17.4447 7.99207 17.974C7.99207 18.5034 7.78177 19.0111 7.40745 19.3854C7.03313 19.7597 6.52544 19.97 5.99607 19.97ZM5.12007 11.977C4.86106 12.0026 4.60231 11.926 4.39897 11.7636C4.19563 11.6011 4.06379 11.3657 4.03157 11.1074C3.99936 10.8492 4.0693 10.5885 4.2265 10.3811C4.3837 10.1737 4.61571 10.0359 4.87307 9.99704C6.01311 9.85454 7.17042 9.95611 8.26821 10.295C9.366 10.6339 10.3792 11.2024 11.2405 11.9627C12.1018 12.723 12.7916 13.6578 13.2641 14.7051C13.7366 15.7524 13.981 16.8881 13.9811 18.037V18.972C13.9811 19.2367 13.8759 19.4906 13.6888 19.6777C13.5016 19.8649 13.2478 19.97 12.9831 19.97C12.7184 19.97 12.4645 19.8649 12.2774 19.6777C12.0902 19.4906 11.9851 19.2367 11.9851 18.972V18.038C11.9849 17.1721 11.8007 16.3161 11.4445 15.5268C11.0884 14.7374 10.5684 14.0329 9.91924 13.4598C9.27005 12.8867 8.50642 12.4583 7.67901 12.2028C6.85161 11.9473 5.97934 11.8707 5.12007 11.978V11.977ZM4.00007 5.06504C3.99124 4.93416 4.0083 4.80282 4.05027 4.67853C4.09225 4.55425 4.15831 4.43946 4.24469 4.34073C4.33106 4.242 4.43606 4.16127 4.55366 4.10316C4.67126 4.04504 4.79917 4.01068 4.93007 4.00204C12.7171 3.48304 19.4481 9.37404 19.9671 17.16C20.0091 17.786 20.0091 18.414 19.9671 19.04C19.9583 19.1708 19.9239 19.2986 19.8658 19.4161C19.8077 19.5336 19.727 19.6385 19.6283 19.7248C19.5297 19.8112 19.415 19.8772 19.2908 19.9192C19.1666 19.9612 19.0354 19.9783 18.9046 19.9695C18.7738 19.9608 18.646 19.9264 18.5285 19.8683C18.411 19.8102 18.3061 19.7295 18.2198 19.6308C18.1335 19.5321 18.0674 19.4174 18.0254 19.2933C17.9834 19.1691 17.9663 19.0378 17.9751 18.907C18.0111 18.369 18.0111 17.83 17.9751 17.293C17.5301 10.607 11.7501 5.54804 5.06507 5.99404C4.93402 6.00314 4.80247 5.98628 4.67796 5.94443C4.55344 5.90258 4.43841 5.83657 4.33947 5.75016C4.24053 5.66376 4.15961 5.55868 4.10137 5.44094C4.04313 5.32319 4.0087 5.19511 4.00007 5.06404V5.06504Z" fill="white"/>
</svg>
