<svg width="24" height="24" viewBox="0 0 24 24" fill="none" xmlns="http://www.w3.org/2000/svg">
<path d="M2.88281 6H6.90625C7.77083 6 8.50781 6.13021 9.11719 6.39062C9.72656 6.65104 10.1927 7.03646 10.5156 7.54688C10.8438 8.05208 11.0078 8.67708 11.0078 9.42188C11.0078 9.98958 10.9036 10.4896 10.6953 10.9219C10.487 11.3542 10.1927 11.7188 9.8125 12.0156C9.43229 12.3073 8.97917 12.5339 8.45312 12.6953L7.85938 12.9844H4.24219L4.22656 11.4297H6.9375C7.40625 11.4297 7.79688 11.3464 8.10938 11.1797C8.42188 11.013 8.65625 10.7865 8.8125 10.5C8.97396 10.2083 9.05469 9.88021 9.05469 9.51562C9.05469 9.11979 8.97656 8.77604 8.82031 8.48438C8.66927 8.1875 8.4349 7.96094 8.11719 7.80469C7.79948 7.64323 7.39583 7.5625 6.90625 7.5625H4.84375V17.375H2.88281V6ZM9.375 17.375L6.70312 12.2656L8.75781 12.2578L11.4688 17.2734V17.375H9.375Z" fill="white"/>
<path d="M19.3438 6H21.2969V13.6016C21.2969 14.4661 21.1094 15.1901 20.7344 15.7734C20.3594 16.3568 19.849 16.7969 19.2031 17.0938C18.5625 17.3854 17.8464 17.5312 17.0547 17.5312C16.237 17.5312 15.5078 17.3854 14.8672 17.0938C14.2266 16.7969 13.7214 16.3568 13.3516 15.7734C12.987 15.1901 12.8047 14.4661 12.8047 13.6016V6H14.7578V13.6016C14.7578 14.1484 14.8516 14.599 15.0391 14.9531C15.2266 15.3021 15.4922 15.5599 15.8359 15.7266C16.1797 15.8932 16.5859 15.9766 17.0547 15.9766C17.5234 15.9766 17.9271 15.8932 18.2656 15.7266C18.6094 15.5599 18.875 15.3021 19.0625 14.9531C19.25 14.599 19.3438 14.1484 19.3438 13.6016V6Z" fill="white"/>
</svg>
