<svg width="24" height="24" viewBox="0 0 24 24" fill="none" xmlns="http://www.w3.org/2000/svg">
<g clip-path="url(#clip0_60_1453)">
<path d="M4.8412 12.6172L23.073 11.8224C23.073 12.5295 22.7195 12.883 21.1047 13.5987L5.31496 20.5495C4.31723 20.9887 3.14415 20.5538 2.69513 19.5773C2.58555 19.3395 2.52629 19.0817 2.52106 18.82C2.51583 18.5582 2.56474 18.2982 2.66473 18.0563L4.63685 13.2826C4.72594 13.0662 4.79453 12.8421 4.84262 12.6158L4.8412 12.6172ZM4.75494 10.7094C4.72014 10.5981 4.68027 10.4884 4.63543 10.3806L2.66331 5.60696C2.25602 4.6156 2.74534 3.48564 3.75862 3.08471C4.00703 2.98669 4.2724 2.93884 4.53941 2.94394C4.80642 2.94904 5.06977 3.00698 5.31426 3.11441L21.104 10.0653C22.3659 10.4082 23.073 11.1152 23.073 11.8224L4.75494 10.7094Z" fill="white"/>
</g>
<defs>
<clipPath id="clip0_60_1453">
<rect width="24" height="24" fill="white"/>
</clipPath>
</defs>
</svg>
