<svg width="24" height="24" viewBox="0 0 24 24" fill="none" xmlns="http://www.w3.org/2000/svg">
<path d="M18.0001 8.00003C18.5305 8.00003 19.0392 7.78932 19.4143 7.41425C19.7893 7.03917 20.0001 6.53046 20.0001 6.00003C20.0001 5.4696 19.7893 4.96089 19.4143 4.58582C19.0392 4.21075 18.5305 4.00003 18.0001 4.00003C17.4696 4.00003 16.9609 4.21075 16.5858 4.58582C16.2108 4.96089 16.0001 5.4696 16.0001 6.00003C16.0001 6.53046 16.2108 7.03917 16.5858 7.41425C16.9609 7.78932 17.4696 8.00003 18.0001 8.00003ZM9.92805 11.24C10.0327 11.784 10.0239 12.3437 9.90205 12.884L14.9421 15.421C15.57 14.677 16.4476 14.1876 17.4106 14.0444C18.3736 13.9012 19.3557 14.1142 20.1729 14.6433C20.9901 15.1724 21.5863 15.9814 21.8497 16.9186C22.1131 17.8559 22.0257 18.857 21.6038 19.7344C21.1819 20.6117 20.4545 21.3051 19.5579 21.6846C18.6613 22.064 17.6572 22.1035 16.7336 21.7955C15.8101 21.4876 15.0305 20.8534 14.5411 20.0118C14.0517 19.1702 13.886 18.179 14.0751 17.224L8.98505 14.662C8.44196 15.2711 7.72558 15.6995 6.93202 15.8898C6.13846 16.08 5.30571 16.023 4.54549 15.7263C3.78527 15.4297 3.13397 14.9076 2.67897 14.2302C2.22398 13.5528 1.98706 12.7524 2.00002 11.9365C2.01297 11.1205 2.27517 10.3281 2.75144 9.66544C3.22771 9.0028 3.89526 8.50168 4.66451 8.22933C5.43376 7.95697 6.26791 7.92641 7.05503 8.14175C7.84215 8.35709 8.54457 8.80802 9.06805 9.43403L14.1041 6.91203C13.882 5.96415 14.0133 4.96783 14.4733 4.10981C14.9333 3.25179 15.6904 2.59098 16.6027 2.25124C17.515 1.91149 18.52 1.91613 19.4291 2.26429C20.3383 2.61245 21.0893 3.28023 21.5413 4.14246C21.9933 5.00469 22.1154 6.00218 21.8846 6.94797C21.6538 7.89376 21.086 8.72292 20.2877 9.28004C19.4893 9.83716 18.5152 10.084 17.5478 9.97427C16.5805 9.86455 15.6864 9.40581 15.0331 8.68403L9.92805 11.24ZM6.00005 14C6.53049 14 7.03919 13.7893 7.41427 13.4142C7.78934 13.0392 8.00005 12.5305 8.00005 12C8.00005 11.4696 7.78934 10.9609 7.41427 10.5858C7.03919 10.2107 6.53049 10 6.00005 10C5.46962 10 4.96091 10.2107 4.58584 10.5858C4.21077 10.9609 4.00005 11.4696 4.00005 12C4.00005 12.5305 4.21077 13.0392 4.58584 13.4142C4.96091 13.7893 5.46962 14 6.00005 14ZM18.0001 20C18.5305 20 19.0392 19.7893 19.4143 19.4142C19.7893 19.0392 20.0001 18.5305 20.0001 18C20.0001 17.4696 19.7893 16.9609 19.4143 16.5858C19.0392 16.2107 18.5305 16 18.0001 16C17.4696 16 16.9609 16.2107 16.5858 16.5858C16.2108 16.9609 16.0001 17.4696 16.0001 18C16.0001 18.5305 16.2108 19.0392 16.5858 19.4142C16.9609 19.7893 17.4696 20 18.0001 20Z" fill="white"/>
</svg>
