<svg width="24" height="24" viewBox="0 0 24 24" fill="none" xmlns="http://www.w3.org/2000/svg">
<path d="M9.24308 12.071L4.29308 7.12102C4.19757 7.02877 4.12139 6.91843 4.06898 6.79643C4.01657 6.67442 3.98898 6.5432 3.98783 6.41042C3.98668 6.27764 4.01198 6.14596 4.06226 6.02307C4.11254 5.90017 4.18679 5.78852 4.28069 5.69463C4.37458 5.60073 4.48623 5.52648 4.60913 5.4762C4.73202 5.42592 4.8637 5.40062 4.99648 5.40177C5.12926 5.40292 5.26048 5.43051 5.38249 5.48292C5.50449 5.53533 5.61483 5.61151 5.70708 5.70702L11.3641 11.364C11.5516 11.5515 11.6569 11.8059 11.6569 12.071C11.6569 12.3362 11.5516 12.5905 11.3641 12.778L5.70708 18.435C5.51848 18.6172 5.26588 18.718 5.00368 18.7157C4.74148 18.7134 4.49067 18.6082 4.30526 18.4228C4.11985 18.2374 4.01469 17.9866 4.01241 17.7244C4.01013 17.4622 4.11092 17.2096 4.29308 17.021L9.24308 12.071ZM10.9291 17H18.9291C19.1943 17 19.4487 17.1054 19.6362 17.2929C19.8237 17.4805 19.9291 17.7348 19.9291 18C19.9291 18.2652 19.8237 18.5196 19.6362 18.7071C19.4487 18.8947 19.1943 19 18.9291 19H10.9291C10.6639 19 10.4095 18.8947 10.222 18.7071C10.0344 18.5196 9.92908 18.2652 9.92908 18C9.92908 17.7348 10.0344 17.4805 10.222 17.2929C10.4095 17.1054 10.6639 17 10.9291 17Z" fill="white"/>
</svg>
