<svg width="24" height="24" viewBox="0 0 24 24" fill="none" xmlns="http://www.w3.org/2000/svg">
<path d="M14.8 4.6131L21.501 15.7741C22.464 17.3771 21.991 19.4861 20.444 20.4841C19.9248 20.8203 19.3196 20.9995 18.701 21.0001H5.298C3.477 21.0001 2 19.4701 2 17.5811C2 16.9421 2.173 16.3171 2.498 15.7741L9.2 4.6131C10.162 3.0101 12.196 2.5191 13.743 3.5171C14.171 3.7931 14.533 4.1681 14.8 4.6131ZM12.58 5.4521C12.4576 5.37336 12.3205 5.32025 12.1769 5.29598C12.0334 5.27171 11.8865 5.27679 11.745 5.3109C11.6035 5.34502 11.4703 5.40746 11.3536 5.49446C11.2369 5.58147 11.1391 5.69122 11.066 5.8171L4.365 16.9801C4.25615 17.162 4.19877 17.3701 4.199 17.5821C4.199 18.2121 4.691 18.7221 5.299 18.7221H18.7C18.906 18.7221 19.107 18.6621 19.281 18.5501C19.5307 18.3842 19.7067 18.1284 19.7725 17.8359C19.8383 17.5435 19.7886 17.2369 19.634 16.9801L12.933 5.8171C12.8451 5.67013 12.7247 5.54526 12.581 5.4521H12.58ZM12 17.0001C11.7348 17.0001 11.4804 16.8947 11.2929 16.7072C11.1054 16.5197 11 16.2653 11 16.0001C11 15.7349 11.1054 15.4805 11.2929 15.293C11.4804 15.1055 11.7348 15.0001 12 15.0001C12.2652 15.0001 12.5196 15.1055 12.7071 15.293C12.8946 15.4805 13 15.7349 13 16.0001C13 16.2653 12.8946 16.5197 12.7071 16.7072C12.5196 16.8947 12.2652 17.0001 12 17.0001ZM12 8.0001C12.2652 8.0001 12.5196 8.10546 12.7071 8.293C12.8946 8.48053 13 8.73489 13 9.0001V13.0001C13 13.2653 12.8946 13.5197 12.7071 13.7072C12.5196 13.8947 12.2652 14.0001 12 14.0001C11.7348 14.0001 11.4804 13.8947 11.2929 13.7072C11.1054 13.5197 11 13.2653 11 13.0001V9.0001C11 8.73489 11.1054 8.48053 11.2929 8.293C11.4804 8.10546 11.7348 8.0001 12 8.0001Z" fill="white"/>
</svg>
