<svg width="24" height="24" viewBox="0 0 24 24" fill="none" xmlns="http://www.w3.org/2000/svg">
<path d="M5.8079 9.612L7.1599 8.689C7.26738 8.61562 7.38838 8.56436 7.51587 8.53821C7.64335 8.51205 7.77476 8.51153 7.90245 8.53665C8.03014 8.56178 8.15155 8.61206 8.25962 8.68457C8.36768 8.75708 8.46024 8.85037 8.5319 8.959C8.67842 9.17903 8.73264 9.4478 8.68289 9.70742C8.63313 9.96705 8.48338 10.1967 8.2659 10.347L4.9889 12.584C4.88142 12.6574 4.76042 12.7086 4.63294 12.7348C4.50545 12.7609 4.37404 12.7615 4.24635 12.7363C4.11867 12.7112 3.99725 12.6609 3.88919 12.5884C3.78112 12.5159 3.68856 12.4226 3.6169 12.314L1.4069 8.998C1.25981 8.77797 1.20526 8.50889 1.25504 8.24895C1.30482 7.98901 1.45493 7.75912 1.6729 7.609C1.78038 7.53562 1.90138 7.48436 2.02887 7.45821C2.15635 7.43205 2.28776 7.43153 2.41545 7.45665C2.54314 7.48178 2.66455 7.53206 2.77262 7.60457C2.88068 7.67708 2.97324 7.77037 3.0449 7.879L3.8839 9.138C5.0999 5.01 8.8799 2 13.3549 2C18.8129 2 23.2369 6.477 23.2369 12C23.2369 17.523 18.8129 22 13.3549 22C13.2244 21.9992 13.0953 21.9727 12.975 21.922C12.8547 21.8714 12.7455 21.7975 12.6538 21.7046C12.562 21.6118 12.4895 21.5017 12.4403 21.3808C12.391 21.2599 12.3661 21.1305 12.3669 21C12.3669 20.448 12.8099 20 13.3549 20C17.7209 20 21.2609 16.418 21.2609 12C21.2609 7.582 17.7209 4 13.3549 4C9.8109 4 6.8119 6.36 5.8079 9.612Z" fill="white"/>
</svg>
