<svg width="24" height="24" viewBox="0 0 24 24" fill="none" xmlns="http://www.w3.org/2000/svg">
<path d="M9.45229 13.2195C9.12021 13.1241 8.76865 13.1195 8.43416 13.206C8.09967 13.2925 7.79447 13.4671 7.55029 13.7115L5.49629 15.7635C5.13321 16.1266 4.92923 16.619 4.92923 17.1325C4.92923 17.646 5.13321 18.1384 5.49629 18.5015C5.85937 18.8646 6.35181 19.0686 6.86529 19.0686C7.37876 19.0686 7.87121 18.8646 8.23429 18.5015L10.2863 16.4485C10.5307 16.2043 10.7053 15.8991 10.7918 15.5646C10.8783 15.2301 10.8736 14.8786 10.7783 14.5465C10.5934 14.6559 10.3773 14.7007 10.1642 14.6737C9.951 14.6468 9.75286 14.5498 9.60093 14.3978C9.44901 14.2459 9.35195 14.0478 9.32504 13.8346C9.29813 13.6215 9.34289 13.4054 9.45229 13.2205V13.2195ZM13.8983 8.77349C14.0832 8.6641 14.2993 8.61933 14.5124 8.64624C14.7256 8.67316 14.9237 8.77022 15.0756 8.92214C15.2276 9.07406 15.3246 9.27221 15.3515 9.48537C15.3784 9.69852 15.3337 9.91458 15.2243 10.0995C15.5564 10.1949 15.9079 10.1995 16.2424 10.113C16.5769 10.0265 16.8821 9.85192 17.1263 9.60749L18.4963 8.23949C18.6761 8.05971 18.8187 7.84628 18.916 7.61139C19.0133 7.3765 19.0633 7.12474 19.0633 6.87049C19.0633 6.61625 19.0133 6.36449 18.916 6.1296C18.8187 5.8947 18.6761 5.68127 18.4963 5.50149C18.3165 5.32171 18.1031 5.1791 17.8682 5.08181C17.6333 4.98451 17.3815 4.93444 17.1273 4.93444C16.873 4.93444 16.6213 4.98451 16.3864 5.08181C16.1515 5.1791 15.9381 5.32171 15.7583 5.50149L14.3903 6.87149C14.1459 7.11568 13.9713 7.42088 13.8848 7.75537C13.7983 8.08986 13.8029 8.44142 13.8983 8.77349ZM19.8633 4.13449C20.5891 4.86026 20.9968 5.84461 20.9968 6.87099C20.9968 7.89738 20.5891 8.88173 19.8633 9.60749L18.4953 10.9755C18.1359 11.3349 17.7092 11.6199 17.2396 11.8144C16.77 12.0088 16.2667 12.1089 15.7584 12.1088C14.732 12.1087 13.7476 11.7009 13.0218 10.975C12.6624 10.6156 12.3774 10.1889 12.1829 9.71929C11.9885 9.24969 11.8884 8.7464 11.8884 8.23814C11.8885 7.21166 12.2964 6.22726 13.0223 5.50149L14.3903 4.13349C15.1161 3.40773 16.1004 3 17.1268 3C18.1532 3 19.1375 3.40773 19.8633 4.13349V4.13449ZM11.6543 12.3435C12.3797 13.0692 12.7873 14.0534 12.7873 15.0795C12.7873 16.1056 12.3797 17.0898 11.6543 17.8155L9.60229 19.8685C8.87614 20.5924 7.89238 20.9986 6.86702 20.9978C5.84167 20.997 4.85853 20.5893 4.1335 19.8643C3.40846 19.1392 3.00079 18.1561 3 17.1308C2.99921 16.1054 3.40537 15.1216 4.12929 14.3955L6.18229 12.3435C6.90801 11.618 7.89215 11.2105 8.91829 11.2105C9.94443 11.2105 10.9286 11.618 11.6543 12.3435Z" fill="white"/>
</svg>
