<svg width="24" height="24" viewBox="0 0 24 24" fill="none" xmlns="http://www.w3.org/2000/svg">
<path d="M12 18.992C11.7348 18.992 11.4805 18.8866 11.2929 18.6991C11.1054 18.5116 11 18.2572 11 17.992C11 17.7268 11.1054 17.4724 11.2929 17.2849C11.4805 17.0974 11.7348 16.992 12 16.992C12.2653 16.992 12.5196 17.0974 12.7072 17.2849C12.8947 17.4724 13 17.7268 13 17.992C13 18.2572 12.8947 18.5116 12.7072 18.6991C12.5196 18.8866 12.2653 18.992 12 18.992ZM9.89405 16.44C9.77071 16.6687 9.56317 16.8405 9.3154 16.9188C9.06763 16.9972 8.79909 16.976 8.56666 16.8598C8.33423 16.7436 8.15616 16.5414 8.07019 16.2962C7.98421 16.051 7.99707 15.7819 8.10605 15.546C8.46799 14.8233 9.02394 14.2155 9.71166 13.7908C10.3994 13.366 11.1917 13.1411 12 13.1411C12.8084 13.1411 13.6007 13.366 14.2884 13.7908C14.9762 14.2155 15.5321 14.8233 15.894 15.546C15.9576 15.6639 15.9969 15.7933 16.0094 15.9266C16.022 16.06 16.0077 16.1945 15.9673 16.3222C15.9269 16.4499 15.8613 16.5681 15.7744 16.67C15.6874 16.7718 15.5809 16.8552 15.4611 16.9151C15.3413 16.975 15.2107 17.0102 15.077 17.0186C14.9434 17.0271 14.8094 17.0086 14.683 16.9643C14.5566 16.92 14.4404 16.8508 14.3413 16.7607C14.2422 16.6706 14.1622 16.5616 14.106 16.44C13.9109 16.0484 13.6105 15.719 13.2384 15.4887C12.8664 15.2584 12.4376 15.1365 12 15.1365C11.5625 15.1365 11.1337 15.2584 10.7617 15.4887C10.3896 15.719 10.0892 16.0484 9.89405 16.44ZM6.80005 13.595C6.72126 13.7001 6.62254 13.7886 6.50954 13.8555C6.39654 13.9224 6.27147 13.9664 6.14147 13.9849C5.87892 14.0225 5.61222 13.9541 5.40005 13.795C5.18788 13.6359 5.04761 13.399 5.0101 13.1364C4.99153 13.0064 4.99874 12.874 5.03134 12.7468C5.06393 12.6196 5.12126 12.5001 5.20005 12.395C5.99217 11.3399 7.01896 10.4836 8.19918 9.89379C9.3794 9.30402 10.6807 8.997 12 8.997C13.3194 8.997 14.6207 9.30402 15.8009 9.89379C16.9811 10.4836 18.0079 11.3399 18.8 12.395C18.8788 12.5001 18.9362 12.6196 18.9688 12.7468C19.0014 12.874 19.0086 13.0064 18.99 13.1364C18.9714 13.2664 18.9274 13.3915 18.8605 13.5045C18.7936 13.6175 18.7051 13.7162 18.6 13.795C18.495 13.8738 18.3754 13.9311 18.2482 13.9637C18.121 13.9963 17.9886 14.0035 17.8586 13.9849C17.7286 13.9664 17.6036 13.9224 17.4906 13.8555C17.3776 13.7886 17.2788 13.7001 17.2 13.595C16.5942 12.7883 15.809 12.1336 14.9065 11.6826C14.004 11.2317 13.0089 10.997 12 10.997C10.9912 10.997 9.99612 11.2317 9.09361 11.6826C8.1911 12.1336 7.40588 12.7883 6.80005 13.595ZM3.74305 10.665C3.56272 10.8495 3.31803 10.9572 3.06015 10.9656C2.80226 10.9739 2.55113 10.8822 2.35926 10.7097C2.16738 10.5372 2.04961 10.2972 2.03056 10.0399C2.01151 9.7826 2.09267 9.52788 2.25705 9.329C7.10005 3.952 15.387 3.516 20.769 8.356C21.111 8.663 21.4361 8.988 21.743 9.329C21.8309 9.42657 21.8987 9.54049 21.9425 9.66426C21.9863 9.78802 22.0054 9.91921 21.9985 10.0503C21.9916 10.1814 21.959 10.3099 21.9025 10.4284C21.8459 10.5469 21.7666 10.6531 21.6691 10.741C21.5715 10.8289 21.4576 10.8966 21.3338 10.9405C21.21 10.9843 21.0788 11.0033 20.9477 10.9964C20.8166 10.9896 20.6881 10.9569 20.5696 10.9004C20.4511 10.8439 20.3449 10.7646 20.257 10.667C19.9967 10.3771 19.7209 10.1014 19.431 9.841C14.871 5.74 7.84705 6.108 3.74305 10.666V10.665Z" fill="white"/>
</svg>
