<svg width="300" height="300" fill="none" xmlns="http://www.w3.org/2000/svg">
    <g clip-path="url(#a)">
        <path d="M150 300c80.634 0 146-63.352 146-141.5S230.634 17 150 17 4 80.352 4 158.5 69.366 300 150 300Z" fill="#8D8CA5"/>
        <path d="M150 275c67.931 0 123-55.964 123-125S217.931 25 150 25 27 80.964 27 150s55.069 125 123 125Z" fill="#5E5B6E"/>
        <path d="M79.525 100.467c0-4.542 4.458-6.359 4.458-6.359l65.65-30.833 66.275 30.833s4.567 1.017 4.567 6.392v5.342H79.525v-5.375Z" fill="#D0CEE0"/>
        <path d="M216.075 116.967c0-4.867-4.208-8.809-9.392-8.809H92.742c-5.192 0-8.809 3.942-8.809 8.809 0 3.308 1.7 6.158 4.409 7.666v5.55h17.616v-4.408h17.617v4.408h17.617v-4.408h17.616v4.408h17.617v-4.408h17.617v4.408h17.625v-5.775c2.641-1.566 4.408-4.308 4.408-7.441ZM229.283 210a6.608 6.608 0 0 1-6.608 6.608H77.325a6.61 6.61 0 1 1 0-13.216h145.358c3.642 0 6.6 2.958 6.6 6.608Z" fill="#8D8CA5"/>
        <path d="M220.475 111.667a4.407 4.407 0 0 1-4.408 4.408H83.925a4.417 4.417 0 0 1 0-8.817l132.142.025a4.396 4.396 0 0 1 4.408 4.384Zm-118.925 5.116h96.908v9.884H101.55v-9.884Z" fill="#8D8CA5"/>
        <path d="M105.95 183.575c0 4.867-2.633 8.808-5.875 8.808H94.2c-3.242 0-5.875-3.941-5.875-8.808v-66.783c0-4.867 2.633-8.809 5.875-8.809h5.875c3.242 0 5.875 3.942 5.875 8.809v66.783Zm105.717 0c0 4.867-2.625 8.808-5.875 8.808h-5.875c-3.242 0-5.875-3.941-5.875-8.808v-66.783c0-4.867 2.625-8.809 5.875-8.809h5.875c3.241 0 5.875 3.942 5.875 8.809v66.783Zm-70.475 0c0 4.867-2.634 8.808-5.875 8.808h-5.875c-3.242 0-5.875-3.941-5.875-8.808v-66.783c0-4.867 2.633-8.809 5.875-8.809h5.875c3.241 0 5.875 3.942 5.875 8.809v66.783Zm35.233 0c0 4.867-2.633 8.808-5.875 8.808h-5.867c-3.241 0-5.875-3.941-5.875-8.808v-66.783c0-4.867 2.634-8.809 5.875-8.809h5.867c3.242 0 5.875 3.942 5.875 8.809v66.783Z" fill="#F1F0FC"/>
        <path d="M216.075 187.975a8.805 8.805 0 0 1-8.808 8.808H92.742a8.811 8.811 0 0 1-8.809-8.808 8.808 8.808 0 0 1 8.809-8.808h114.525c4.858 0 8.808 3.941 8.808 8.808Z" fill="#53525A"/>
        <path d="M224.883 196.783a8.806 8.806 0 0 1-8.808 8.809H83.925a8.808 8.808 0 1 1 0-17.617h132.142c4.866 0 8.816 3.942 8.816 8.808Z" fill="#F1F0FC"/>
        <path d="M229.283 203.392a6.608 6.608 0 0 1-6.608 6.608H77.325a6.61 6.61 0 0 1-6.608-6.608 6.605 6.605 0 0 1 4.08-6.106 6.61 6.61 0 0 1 2.528-.503h145.358c3.642 0 6.6 2.959 6.6 6.609Z" fill="#F1F0FC"/>
        <path d="M216.075 112.383c0-4.866-4.208-8.808-9.392-8.808H92.742c-5.192 0-8.809 3.942-8.809 8.808 0 3.309 1.7 6.159 4.409 7.667v5.55h17.616v-4.408h17.617v4.408h17.617v-4.408h17.616v4.408h17.617v-4.408h17.617v4.408h17.625v-5.775c2.641-1.567 4.408-4.308 4.408-7.442Z" fill="#53525A"/>
        <path d="M79.525 105.525c0-4.542 4.458-6.358 4.458-6.358l65.65-30.834 66.275 30.834s4.567 1.016 4.567 6.391v2.425H79.525v-2.458Z" fill="#F1F0FC"/>
        <path d="M150 79.525s-45.458 21.425-49.992 23.358c-4.541 1.925-3.025 5.092.009 5.092h99.75c4.683 0 3.575-3.575-.142-5.508C195.908 100.542 150 79.525 150 79.525Z" fill="#5C5662"/>
        <path d="M220.475 107.975a4.407 4.407 0 0 1-4.408 4.408H83.925a4.416 4.416 0 0 1 0-8.816l132.142.025a4.376 4.376 0 0 1 3.113 1.277 4.394 4.394 0 0 1 1.295 3.106Z" fill="#F1F0FC"/>
        <g clip-path="url(#b)">
            <path fill-rule="evenodd" clip-rule="evenodd" d="M150 30C83.726 30 30 83.726 30 150c0 27.737 9.397 53.26 25.201 73.586L223.586 55.201C203.26 39.397 177.737 30 150 30Zm94.799 46.415L76.415 244.799C96.74 260.603 122.263 270 150 270c66.275 0 120-53.725 120-120 0-27.737-9.397-53.259-25.201-73.585ZM0 150C0 67.157 67.157 0 150 0c41.417 0 78.938 16.806 106.067 43.934C283.194 71.062 300 108.583 300 150c0 82.843-67.157 150-150 150-41.417 0-78.938-16.806-106.066-43.933C16.806 228.938 0 191.417 0 150Z" fill="#D6514A"/>
        </g>
    </g>
    <defs>
        <clipPath id="a">
            <path fill="#fff" d="M0 0h300v300H0z"/>
        </clipPath>
        <clipPath id="b">
            <path fill="#fff" d="M0 0h300v300H0z"/>
        </clipPath>
    </defs>
</svg>
