<svg width="300" height="300" fill="none" xmlns="http://www.w3.org/2000/svg">
    <g clip-path="url(#a)">
        <path d="M150 300c82.843 0 150-63.352 150-141.5S232.843 17 150 17 0 80.352 0 158.5 67.157 300 150 300Z" fill="#F4900C"/>
        <path d="M150 283c82.843 0 150-63.352 150-141.5S232.843 0 150 0 0 63.352 0 141.5 67.157 283 150 283Z" fill="#FFCC4D"/>
        <path d="M150 266.667c64.433 0 116.667-52.234 116.667-116.667 0-64.433-52.234-116.667-116.667-116.667C85.567 33.333 33.333 85.567 33.333 150c0 64.433 52.234 116.667 116.667 116.667Z" fill="#FFE8B6"/>
        <path d="M150 258c67.931 0 123-52.159 123-116.5C273 77.159 217.931 25 150 25S27 77.159 27 141.5C27 205.841 82.069 258 150 258Z" fill="#FFAC33"/>
        <path d="M79.525 90.467c0-4.542 4.458-6.359 4.458-6.359l65.65-30.833 66.275 30.833s4.567 1.017 4.567 6.392v5.342H79.525v-5.375Z" fill="#FFE8B6"/>
        <path d="M216.075 106.967c0-4.867-4.208-8.809-9.392-8.809H92.742c-5.192 0-8.809 3.942-8.809 8.809 0 3.308 1.7 6.158 4.409 7.666v5.55h17.616v-4.408h17.617v4.408h17.617v-4.408h17.616v4.408h17.617v-4.408h17.617v4.408h17.625v-5.775c2.641-1.566 4.408-4.308 4.408-7.441ZM229.283 200a6.608 6.608 0 0 1-6.608 6.608H77.325a6.61 6.61 0 1 1 0-13.216h145.358c3.642 0 6.6 2.958 6.6 6.608Z" fill="#F4900C"/>
        <path d="M220.475 101.667a4.407 4.407 0 0 1-4.408 4.408H83.925a4.417 4.417 0 0 1 0-8.817l132.142.025a4.388 4.388 0 0 1 4.07 2.702c.222.533.337 1.104.338 1.682Zm-118.925 5.116h96.908v9.884H101.55v-9.884Z" fill="#F4900C"/>
        <path d="M105.95 173.575c0 4.867-2.633 8.808-5.875 8.808H94.2c-3.242 0-5.875-3.941-5.875-8.808v-66.783c0-4.867 2.633-8.809 5.875-8.809h5.875c3.242 0 5.875 3.942 5.875 8.809v66.783Zm105.717 0c0 4.867-2.625 8.808-5.875 8.808h-5.875c-3.242 0-5.875-3.941-5.875-8.808v-66.783c0-4.867 2.625-8.809 5.875-8.809h5.875c3.241 0 5.875 3.942 5.875 8.809v66.783Zm-70.475 0c0 4.867-2.634 8.808-5.875 8.808h-5.875c-3.242 0-5.875-3.941-5.875-8.808v-66.783c0-4.867 2.633-8.809 5.875-8.809h5.875c3.241 0 5.875 3.942 5.875 8.809v66.783Zm35.233 0c0 4.867-2.633 8.808-5.875 8.808h-5.867c-3.241 0-5.875-3.941-5.875-8.808v-66.783c0-4.867 2.634-8.809 5.875-8.809h5.867c3.242 0 5.875 3.942 5.875 8.809v66.783Z" fill="#FFD983"/>
        <path d="M216.075 177.975a8.805 8.805 0 0 1-8.808 8.808H92.742a8.811 8.811 0 0 1-8.809-8.808 8.808 8.808 0 0 1 8.809-8.808h114.525c4.858 0 8.808 3.941 8.808 8.808Z" fill="#FFCC4D"/>
        <path d="M224.883 186.783a8.806 8.806 0 0 1-8.808 8.809H83.925a8.808 8.808 0 1 1 0-17.617h132.142c4.866 0 8.816 3.942 8.816 8.808Z" fill="#FFD983"/>
        <path d="M229.283 193.392a6.608 6.608 0 0 1-6.608 6.608H77.325a6.61 6.61 0 0 1-6.608-6.608 6.605 6.605 0 0 1 4.08-6.106 6.61 6.61 0 0 1 2.528-.503h145.358c3.642 0 6.6 2.959 6.6 6.609Z" fill="#FFD983"/>
        <path d="M216.075 102.383c0-4.866-4.208-8.808-9.392-8.808H92.742c-5.192 0-8.809 3.942-8.809 8.808 0 3.309 1.7 6.159 4.409 7.667v5.55h17.616v-4.408h17.617v4.408h17.617v-4.408h17.616v4.408h17.617v-4.408h17.617v4.408h17.625v-5.775c2.641-1.567 4.408-4.308 4.408-7.442Z" fill="#FFCC4D"/>
        <path d="M79.525 95.525c0-4.542 4.458-6.358 4.458-6.358l65.65-30.834 66.275 30.834s4.567 1.016 4.567 6.391v2.425H79.525v-2.458Z" fill="#FFD983"/>
        <path d="M150 69.525s-45.458 21.425-49.992 23.358c-4.541 1.925-3.025 5.092.009 5.092h99.75c4.683 0 3.575-3.575-.142-5.508C195.908 90.542 150 69.525 150 69.525Z" fill="#FFAC33"/>
        <path d="M220.475 97.975a4.407 4.407 0 0 1-4.408 4.408H83.925a4.416 4.416 0 0 1 0-8.816l132.142.025a4.388 4.388 0 0 1 4.07 2.701c.222.533.337 1.105.338 1.682Z" fill="#FFD983"/>
    </g>
    <defs>
        <clipPath id="a">
            <path fill="#fff" d="M0 0h300v300H0z"/>
        </clipPath>
    </defs>
</svg>
