<svg width="300" height="300" fill="none" xmlns="http://www.w3.org/2000/svg">
    <path fill-rule="evenodd" clip-rule="evenodd" d="M90 80c0-5.523 4.477-10 10-10h80c5.523 0 10 4.477 10 10v50c0 5.523-4.477 10-10 10h-80c-5.523 0-10-4.477-10-10V80Zm20 10v30h60V90h-60Z" fill="#F1F0FC"/>
    <path fill-rule="evenodd" clip-rule="evenodd" d="M110 120c5.523 0 10 4.477 10 10v130c0 5.523-4.477 10-10 10s-10-4.477-10-10V130c0-5.523 4.477-10 10-10Z" fill="#F1F0FC"/>
    <path fill-rule="evenodd" clip-rule="evenodd" d="M192.366 9.632c13.371-.514 26.691 6.121 33.578 19.896 13.599 27.197-8.089 59.184-37.51 60.463A10.1 10.1 0 0 1 188 90h-48a9.999 9.999 0 0 1-8.523-15.231L158.4 30.895c7.693-13.352 20.752-20.754 33.966-21.263Zm.768 19.986c-6.239.24-13.133 3.786-17.452 11.344-.051.09-.104.18-.159.268L157.869 70h29.894c16.464-.855 26.669-18.776 20.293-31.528-3.113-6.225-8.793-9.09-14.922-8.854Z" fill="#FFA31A"/>
    <path fill-rule="evenodd" clip-rule="evenodd" d="M86.866 29.618c-6.13-.236-11.81 2.63-14.922 8.854C65.568 51.224 75.773 69.145 92.237 70h29.894l-17.654-28.77a7.637 7.637 0 0 1-.159-.268c-4.319-7.558-11.213-11.104-17.452-11.344Zm34.734 1.277c-7.693-13.352-20.752-20.754-33.966-21.263-13.37-.514-26.69 6.121-33.578 19.896-13.599 27.197 8.09 59.184 37.51 60.463.144.006.29.01.434.01h48a9.999 9.999 0 0 0 8.523-15.231L121.6 30.895Z" fill="#FFA31A"/>
    <path fill-rule="evenodd" clip-rule="evenodd" d="M20 80c0-5.523 4.477-10 10-10h220c5.523 0 10 4.477 10 10v50c0 5.523-4.477 10-10 10H30c-5.523 0-10-4.477-10-10V80Zm20 10v30h200V90H40Z" fill="#F1F0FC"/>
    <path fill-rule="evenodd" clip-rule="evenodd" d="M30 130c0-5.523 4.477-10 10-10h200c5.523 0 10 4.477 10 10v13c0 5.523-4.477 10-10 10s-10-4.477-10-10v-3H50v110h121c5.523 0 10 4.477 10 10s-4.477 10-10 10H40c-5.523 0-10-4.477-10-10V130Z" fill="#F1F0FC"/>
    <path fill-rule="evenodd" clip-rule="evenodd" d="M160 210c0-33.137 26.863-60 60-60s60 26.863 60 60-26.863 60-60 60-60-26.863-60-60Zm60-80c-44.183 0-80 35.817-80 80s35.817 80 80 80 80-35.817 80-80-35.817-80-80-80Zm37.071 67.071c3.905-3.905 3.905-10.237 0-14.142-3.905-3.905-10.237-3.905-14.142 0L210 215.858l-12.929-12.929c-3.905-3.905-10.237-3.905-14.142 0-3.905 3.905-3.905 10.237 0 14.142l20 20c3.905 3.905 10.237 3.905 14.142 0l40-40Z" fill="#FFA31A"/>
</svg>
