<svg width="24" height="24" viewBox="0 0 24 24" fill="none" xmlns="http://www.w3.org/2000/svg">
<path fill-rule="evenodd" clip-rule="evenodd" d="M19.4375 20.5H5H4.5625C2.9 20.5 1.5 19.14 1.5 17.525V7.9C1.5 7.34772 1.94772 6.9 2.5 6.9H5.875V4.5C5.875 3.94772 6.32272 3.5 6.875 3.5H21.5C22.0523 3.5 22.5 3.94772 22.5 4.5V17.525C22.5 19.14 21.1 20.5 19.4375 20.5ZM7.3625 18.8H19.4375C20.1375 18.8 20.75 18.205 20.75 17.525V6.2C20.75 5.64772 20.3023 5.2 19.75 5.2H8.625C8.07272 5.2 7.625 5.64771 7.625 6.2V17.525C7.625 17.95 7.5375 18.375 7.3625 18.8ZM4.25 8.6C3.69772 8.6 3.25 9.04772 3.25 9.6V17.525C3.25 18.205 3.8625 18.8 4.5625 18.8C5.2625 18.8 5.875 18.205 5.875 17.525V9.6C5.875 9.04772 5.42729 8.6 4.875 8.6H4.25ZM9.45836 9.73287C9.45836 9.26343 9.83891 8.88287 10.3084 8.88287H14.7334C15.2028 8.88287 15.5834 9.26343 15.5834 9.73287C15.5834 10.2023 15.2028 10.5829 14.7334 10.5829H10.3084C9.83891 10.5829 9.45836 10.2023 9.45836 9.73287ZM9.45836 13.9175C9.45836 13.4481 9.83891 13.0675 10.3084 13.0675H18.2334C18.7028 13.0675 19.0834 13.4481 19.0834 13.9175C19.0834 14.387 18.7028 14.7675 18.2334 14.7675H10.3084C9.83891 14.7675 9.45836 14.387 9.45836 13.9175Z" fill="white"/>
</svg>
