<svg width="24" height="24" viewBox="0 0 24 24" fill="none" xmlns="http://www.w3.org/2000/svg">
<path fill-rule="evenodd" clip-rule="evenodd" d="M4.44531 7.40322C4.86035 5.64621 6.43877 4.33871 8.32258 4.33871H15.6774C17.5612 4.33871 19.1396 5.64622 19.5547 7.40322H4.44531ZM4.33871 9.24193H19.6613V15.6774C19.6613 17.8776 17.8776 19.6613 15.6774 19.6613H8.32258C6.12235 19.6613 4.33871 17.8776 4.33871 15.6774V9.24193ZM2.5 8.32258C2.5 5.10686 5.10686 2.5 8.32258 2.5H15.6774C18.8931 2.5 21.5 5.10685 21.5 8.32258V15.6774C21.5 18.8931 18.8931 21.5 15.6774 21.5H8.32258C5.10685 21.5 2.5 18.8931 2.5 15.6774V8.32258ZM9.85484 15.6774C9.85484 15.1697 10.2665 14.7581 10.7742 14.7581H13.2258C13.7335 14.7581 14.1452 15.1697 14.1452 15.6774C14.1452 16.1851 13.7335 16.5968 13.2258 16.5968H10.7742C10.2665 16.5968 9.85484 16.1851 9.85484 15.6774Z" fill="white"/>
</svg>
