<svg width="24" height="24" viewBox="0 0 24 24" fill="none" xmlns="http://www.w3.org/2000/svg">
<path fill-rule="evenodd" clip-rule="evenodd" d="M4.86585 3C3.8543 3 3 3.83561 3 4.9112V9.35907C3 10.4347 3.8543 11.2703 4.86585 11.2703H19.1341C20.1457 11.2703 21 10.4347 21 9.35907V4.9112C21 3.8356 20.1457 3 19.1341 3H4.86585ZM4.53659 4.9112C4.53659 4.75853 4.66507 4.59846 4.86585 4.59846H19.1341C19.3349 4.59846 19.4634 4.75854 19.4634 4.9112V9.35907C19.4634 9.51173 19.3349 9.67181 19.1341 9.67181H4.86585C4.66507 9.67181 4.53659 9.51174 4.53659 9.35907V4.9112ZM4.86585 12.7297C3.85429 12.7297 3 13.5654 3 14.6409V19.0888C3 20.1644 3.85429 21 4.86585 21H19.1341C20.1457 21 21 20.1644 21 19.0888V14.6409C21 13.5654 20.1457 12.7297 19.1341 12.7297H4.86585ZM4.53659 14.6409C4.53659 14.4883 4.66508 14.3282 4.86585 14.3282H19.1341C19.3349 14.3282 19.4634 14.4883 19.4634 14.6409V19.0888C19.4634 19.2414 19.3349 19.4015 19.1341 19.4015H4.86585C4.66508 19.4015 4.53659 19.2415 4.53659 19.0888V14.6409Z" fill="white"/>
</svg>
