<svg width="24" height="24" viewBox="0 0 24 24" fill="none" xmlns="http://www.w3.org/2000/svg">
<path d="M22 12.3462C21.999 11.4292 21.7481 10.5312 21.2762 9.75611C20.8043 8.98104 20.1307 8.36055 19.3334 7.96641L19.3333 7.15385C19.3336 6.26128 19.057 5.39236 18.5444 4.6759C18.0318 3.95945 17.3105 3.43359 16.4875 3.17628C15.6644 2.91897 14.7835 2.94391 13.9752 3.2474C13.1669 3.55089 12.4743 4.11678 12 4.86117C11.5257 4.11678 10.8331 3.5509 10.0248 3.24741C9.21653 2.94391 8.33558 2.91897 7.51256 3.17627C6.68954 3.43358 5.96826 3.95943 5.45564 4.67588C4.94303 5.39233 4.66637 6.26124 4.66667 7.1538L4.66663 7.96641C3.86874 8.35948 3.19462 8.97958 2.72259 9.75467C2.25056 10.5298 2 11.428 2 12.3451C2 13.2622 2.25058 14.1604 2.72262 14.9355C3.19465 15.7106 3.86877 16.3307 4.66667 16.7238V16.8462C4.66636 17.7387 4.94302 18.6076 5.45563 19.3241C5.96824 20.0406 6.68951 20.5664 7.51254 20.8237C8.33556 21.081 9.21652 21.0561 10.0248 20.7526C10.8331 20.4491 11.5257 19.8832 12 19.1388C12.4743 19.8832 13.1669 20.4491 13.9752 20.7526C14.7835 21.0561 15.6644 21.081 16.4875 20.8237C17.3105 20.5664 18.0318 20.0406 18.5444 19.3241C19.057 18.6076 19.3336 17.7387 19.3333 16.8462V16.7238C20.1307 16.3302 20.8043 15.7102 21.2763 14.9354C21.7482 14.1607 21.9992 13.2629 22 12.3462ZM8.66667 19.6154C8.00936 19.6145 7.37546 19.3619 6.88633 18.9059C6.39719 18.45 6.08719 17.8227 6.01567 17.1441C6.23132 17.1759 6.44885 17.192 6.66667 17.1923H7.33333C7.51014 17.1923 7.67971 17.1194 7.80474 16.9895C7.92976 16.8597 8 16.6836 8 16.5C8 16.3164 7.92976 16.1403 7.80474 16.0105C7.67971 15.8806 7.51014 15.8077 7.33333 15.8077H6.66667C5.88029 15.8075 5.11929 15.5187 4.51812 14.9923C3.91695 14.4659 3.51431 13.7357 3.38134 12.9309C3.24838 12.126 3.39364 11.2982 3.79148 10.5938C4.18932 9.88944 4.81411 9.35374 5.55546 9.0814C5.68544 9.03369 5.79797 8.9453 5.87757 8.82841C5.95717 8.71153 5.99991 8.57189 5.99992 8.42873L6 7.15385C6 6.4194 6.28095 5.71504 6.78105 5.1957C7.28115 4.67637 7.95942 4.38462 8.66667 4.38462C9.37391 4.38462 10.0522 4.67637 10.5523 5.1957C11.0524 5.71504 11.3333 6.4194 11.3333 7.15385V13.7534C10.6013 13.0696 9.65129 12.6916 8.66667 12.6923C8.48986 12.6923 8.32029 12.7652 8.19526 12.8951C8.07024 13.0249 8 13.201 8 13.3846C8 13.5682 8.07024 13.7443 8.19526 13.8742C8.32029 14.004 8.48986 14.0769 8.66667 14.0769C9.37391 14.0769 10.0522 14.3687 10.5523 14.888C11.0524 15.4073 11.3333 16.1117 11.3333 16.8462C11.3333 17.5806 11.0524 18.285 10.5523 18.8043C10.0522 19.3236 9.37391 19.6154 8.66667 19.6154ZM17.3333 15.8077H16.6667C16.4899 15.8077 16.3203 15.8806 16.1953 16.0105C16.0702 16.1403 16 16.3164 16 16.5C16 16.6836 16.0702 16.8597 16.1953 16.9895C16.3203 17.1194 16.4899 17.1923 16.6667 17.1923H17.3333C17.5511 17.192 17.7687 17.1759 17.9843 17.1441C17.9289 17.676 17.7263 18.1798 17.401 18.5946C17.0757 19.0095 16.6416 19.3176 16.1513 19.4817C15.661 19.6458 15.1354 19.6589 14.638 19.5194C14.1407 19.38 13.6929 19.0939 13.3488 18.6957C13.0047 18.2976 12.779 17.8045 12.699 17.276C12.619 16.7475 12.6882 16.2063 12.8981 15.7177C13.108 15.2292 13.4497 14.8142 13.8819 14.523C14.314 14.2319 14.8182 14.0769 15.3333 14.0769C15.5101 14.0769 15.6797 14.004 15.8047 13.8742C15.9298 13.7443 16 13.5682 16 13.3846C16 13.201 15.9298 13.0249 15.8047 12.8951C15.6797 12.7652 15.5101 12.6923 15.3333 12.6923C14.3487 12.6916 13.3987 13.0696 12.6667 13.7534V7.15385C12.6667 6.4194 12.9476 5.71504 13.4477 5.19571C13.9478 4.67638 14.6261 4.38463 15.3334 4.38464C16.0406 4.38464 16.7189 4.67641 17.219 5.19574C17.7191 5.71508 18 6.41944 18 7.15389L18.0001 8.42873C18.0001 8.57189 18.0428 8.71153 18.1224 8.82841C18.202 8.9453 18.3146 9.03369 18.4445 9.0814C19.1859 9.35374 19.8107 9.88944 20.2085 10.5938C20.6064 11.2982 20.7516 12.126 20.6187 12.9309C20.4857 13.7357 20.0831 14.4659 19.4819 14.9923C18.8807 15.5187 18.1197 15.8075 17.3333 15.8077ZM6.33333 12C6.15652 12 5.98695 11.9271 5.86193 11.7972C5.7369 11.6674 5.66667 11.4913 5.66667 11.3077C5.66667 11.1241 5.7369 10.948 5.86193 10.8182C5.98695 10.6883 6.15652 10.6154 6.33333 10.6154C6.77521 10.6149 7.19884 10.4324 7.51129 10.1079C7.82375 9.78341 7.9995 9.34349 8 8.88462V8.19231C8 8.0087 8.07024 7.83261 8.19526 7.70277C8.32029 7.57294 8.48986 7.5 8.66667 7.5C8.84348 7.5 9.01305 7.57294 9.13807 7.70277C9.2631 7.83261 9.33333 8.0087 9.33333 8.19231V8.88462C9.33244 9.71058 9.01608 10.5025 8.45366 11.0865C7.89125 11.6705 7.12871 11.9991 6.33333 12ZM18.3333 11.3077C18.3333 11.4913 18.2631 11.6674 18.1381 11.7972C18.013 11.9271 17.8435 12 17.6667 12C16.8713 11.9991 16.1088 11.6705 15.5463 11.0865C14.9839 10.5025 14.6676 9.71058 14.6667 8.88462V8.19231C14.6667 8.0087 14.7369 7.83261 14.8619 7.70277C14.987 7.57294 15.1565 7.5 15.3333 7.5C15.5101 7.5 15.6797 7.57294 15.8047 7.70277C15.9298 7.83261 16 8.0087 16 8.19231V8.88462C16.0005 9.34349 16.1763 9.78341 16.4887 10.1079C16.8012 10.4324 17.2248 10.6149 17.6667 10.6154C17.8435 10.6154 18.013 10.6883 18.1381 10.8182C18.2631 10.948 18.3333 11.1241 18.3333 11.3077Z" fill="white"/>
</svg>
