<svg width="24" height="24" viewBox="0 0 24 24" fill="none" xmlns="http://www.w3.org/2000/svg">
<path d="M18.6187 11.9584L12.1226 5.65538C11.7374 5.27669 11.7374 4.66271 12.1226 4.28402C12.5078 3.90533 13.1323 3.90533 13.5175 4.28402L20.7111 11.2727C21.0963 11.6514 21.0963 12.2654 20.7111 12.6441L13.5175 19.716C13.1323 20.0947 12.5078 20.0947 12.1226 19.716C11.7374 19.3373 11.7374 18.7233 12.1226 18.3446L18.6187 11.9584Z" fill="white"/>
<path d="M11.7004 11.9584L5.2889 5.65542C4.9037 5.27673 4.9037 4.66275 5.2889 4.28406C5.67411 3.90537 6.29865 3.90537 6.68386 4.28406L13.7928 11.2727C14.178 11.6514 14.178 12.2654 13.7928 12.6441L6.68386 19.716C6.29865 20.0947 5.67411 20.0947 5.2889 19.716C4.9037 19.3373 4.9037 18.7233 5.2889 18.3446L11.7004 11.9584Z" fill="white"/>
</svg>
