<svg width="24" height="24" viewBox="0 0 24 24" fill="none" xmlns="http://www.w3.org/2000/svg">
<path d="M5.38133 11.9584L11.8774 5.65538C12.2626 5.27669 12.2626 4.66271 11.8774 4.28402C11.4922 3.90533 10.8677 3.90533 10.4825 4.28402L3.2889 11.2727C2.9037 11.6514 2.9037 12.2654 3.2889 12.6441L10.4825 19.716C10.8677 20.0947 11.4922 20.0947 11.8774 19.716C12.2626 19.3373 12.2626 18.7233 11.8774 18.3446L5.38133 11.9584Z" fill="white"/>
<path d="M12.2996 11.9584L18.7111 5.65542C19.0963 5.27673 19.0963 4.66275 18.7111 4.28406C18.3259 3.90537 17.7013 3.90537 17.3161 4.28406L10.2072 11.2727C9.82198 11.6514 9.82198 12.2654 10.2072 12.6441L17.3161 19.716C17.7013 20.0947 18.3259 20.0947 18.7111 19.716C19.0963 19.3373 19.0963 18.7233 18.7111 18.3446L12.2996 11.9584Z" fill="white"/>
</svg>
