<svg width="24" height="24" viewBox="0 0 24 24" fill="none" xmlns="http://www.w3.org/2000/svg">
<path d="M6.86798 21C4.51685 21 3 19.525 3 17.225C3 14.8 4.46629 13.375 7.34831 13.375H8.83989V10.625H7.34831C4.46629 10.625 3 9.2 3 6.775C3 4.475 4.51685 3 6.86798 3C9.69944 3 10.6096 4.75 10.6096 6.85V8.925H13.3904V6.85C13.3904 4.75 14.3006 3 17.132 3C19.4831 3 21 4.475 21 6.775C21 9.2 19.5337 10.625 16.6517 10.625H15.1601V13.375H16.6517C19.5337 13.375 21 14.8 21 17.225C21 19.525 19.4831 21 17.132 21C14.3006 21 13.3904 19.25 13.3904 17.15V15.075H10.6096V17.15C10.6096 19.25 9.69944 21 6.86798 21ZM15.1601 6.8V8.925H16.6517C18.4466 8.925 19.2051 8.2 19.2051 6.775C19.2051 5.3 18.3202 4.725 17.132 4.725C15.8174 4.725 15.1601 5.525 15.1601 6.8ZM7.34831 8.925H8.83989V6.8C8.83989 5.525 8.18258 4.725 6.86798 4.725C5.67978 4.725 4.79494 5.3 4.79494 6.775C4.79494 8.2 5.55337 8.925 7.34831 8.925ZM10.6096 13.375H13.3904V10.625H10.6096V13.375ZM6.86798 19.275C8.18258 19.275 8.83989 18.475 8.83989 17.2V15.075H7.34831C5.55337 15.075 4.79494 15.8 4.79494 17.225C4.79494 18.7 5.67978 19.275 6.86798 19.275ZM15.1601 17.2C15.1601 18.475 15.8174 19.275 17.132 19.275C18.3202 19.275 19.2051 18.7 19.2051 17.225C19.2051 15.8 18.4466 15.075 16.6517 15.075H15.1601V17.2Z" fill="white"/>
</svg>
