<svg width="24" height="24" viewBox="0 0 24 24" fill="none" xmlns="http://www.w3.org/2000/svg">
<path fill-rule="evenodd" clip-rule="evenodd" d="M17.24 3.49194H11.9198C8.52289 3.49194 5.75989 6.25494 5.75989 9.65188C5.75989 13.049 8.52288 15.812 11.9198 15.812H15.0526C15.5165 15.812 15.8925 15.436 15.8925 14.972C15.8925 14.5081 15.5165 14.132 15.0526 14.132H11.9198C9.44986 14.132 7.43987 12.1219 7.43987 9.65188C7.43987 7.1819 9.44984 5.17193 11.9198 5.17193H17.24C19.71 5.17193 21.7199 7.1819 21.7199 9.65188C21.7199 11.5631 20.9834 13.0826 19.4129 13.7361C19.0175 13.9006 18.7609 14.3563 18.9236 14.8074C19.0695 15.212 19.5234 15.4595 19.9594 15.2912C22.3333 14.3748 23.4 12.1782 23.4 9.65192C23.3999 6.25494 20.6369 3.49194 17.24 3.49194ZM12.0801 8.18829H8.91467C8.45075 8.18829 8.07468 8.56437 8.07468 9.02829C8.07468 9.4922 8.45075 9.86828 8.91467 9.86828H12.0801C14.5501 9.86828 16.56 11.8782 16.56 14.3482C16.56 16.8182 14.5501 18.8282 12.0801 18.8282H6.76013C4.29013 18.8282 2.27996 16.8182 2.27996 14.3482C2.27996 12.5225 3.11878 11.0085 4.64297 10.3138C5.11368 10.0992 5.35822 9.4712 5.00058 8.99866C4.79285 8.72419 4.42316 8.59373 4.07711 8.71984C1.63538 9.60962 0.599976 11.7908 0.599976 14.3482C0.599976 17.7452 3.36298 20.5082 6.76013 20.5082H12.0801C15.477 20.5082 18.24 17.7452 18.24 14.3482C18.24 10.9513 15.477 8.18829 12.0801 8.18829ZM11.9198 3.89194H17.24C18.034 3.89194 18.791 4.05344 19.4799 4.34531C18.791 4.05345 18.034 3.89197 17.24 3.89197H11.9198C8.74382 3.89197 6.15991 6.47588 6.15991 9.6519C6.15991 10.7997 6.49736 11.8702 7.07826 12.7694C6.49735 11.8702 6.15989 10.7997 6.15989 9.65188C6.15989 6.47586 8.7438 3.89194 11.9198 3.89194ZM15.2986 14.6072C15.2283 14.5598 15.1437 14.532 15.0526 14.532H11.9198C10.9445 14.532 10.035 14.2444 9.27187 13.7495C10.035 14.2444 10.9445 14.5321 11.9198 14.5321H15.0526C15.1437 14.5321 15.2283 14.5598 15.2986 14.6072ZM21.7358 7.75416C21.9831 8.33779 22.1199 8.97915 22.1199 9.65188C22.1199 11.6618 21.3367 13.3688 19.5666 14.1054C19.3442 14.198 19.2181 14.445 19.2999 14.6717C19.3017 14.6768 19.3037 14.682 19.3058 14.687C19.3037 14.682 19.3018 14.6769 19.2999 14.6717C19.2182 14.445 19.3442 14.198 19.5666 14.1054C21.3368 13.3688 22.12 11.6618 22.12 9.6519C22.12 8.97917 21.9831 8.3378 21.7358 7.75416ZM8.91467 8.58829H12.0801C13.2711 8.58829 14.3788 8.95166 15.2983 9.57335C14.3788 8.95167 13.2711 8.58832 12.0801 8.58832H8.91469C8.67169 8.58832 8.4747 8.78531 8.4747 9.02831C8.4747 9.13448 8.5123 9.23187 8.57492 9.30788C8.51229 9.23186 8.47468 9.13447 8.47468 9.02829C8.47468 8.78528 8.67167 8.58829 8.91467 8.58829ZM16.1255 11.6217C16.6522 12.4006 16.96 13.3391 16.96 14.3482C16.96 17.0391 14.771 19.2282 12.0801 19.2282H6.76013C5.77014 19.2282 4.84804 18.9319 4.07788 18.4233C4.84805 18.9319 5.77015 19.2282 6.76016 19.2282H12.0801C14.771 19.2282 16.96 17.0391 16.96 14.3483C16.96 13.3392 16.6522 12.4006 16.1255 11.6217ZM4.64164 9.19429C4.53004 9.08341 4.36469 9.04077 4.21406 9.09566C1.97948 9.90996 0.999976 11.8997 0.999976 14.3482C0.999976 15.4943 1.33642 16.5632 1.91573 17.4615C1.33643 16.5632 1 15.4943 1 14.3483C1 11.8997 1.97951 9.90999 4.21409 9.09569C4.36471 9.0408 4.53004 9.08342 4.64164 9.19429Z" fill="white"/>
</svg>
