<svg width="24" height="24" viewBox="0 0 24 24" fill="none" xmlns="http://www.w3.org/2000/svg">
<path fill-rule="evenodd" clip-rule="evenodd" d="M11.783 4.02677C11.7831 4.02677 11.7831 4.02677 11.7831 4.02677L11.783 4.02677ZM12.0001 4.14741L6.13218 7.44808L12.0001 10.382L17.8679 7.44808L12.0001 4.14741ZM19.0001 9.11809L13.0001 12.1181V19.2902L19.0001 15.9152V9.11809ZM19.025 16.0518C19.025 16.0517 19.025 16.0517 19.025 16.0516L19.025 16.0518ZM11.0001 19.2902V12.1181L5.00006 9.11809V15.9152L11.0001 19.2902ZM11.695 2.10507C11.8963 2.06328 12.1038 2.06328 12.3051 2.10507L12.3055 2.10516C12.5441 2.1548 12.7536 2.27512 12.8546 2.33317C12.8651 2.33918 12.8744 2.34453 12.8825 2.34906L12.8825 2.3491L20.4903 6.62848C20.8052 6.80559 21.0001 7.13878 21.0001 7.50005V16.0322C21.0001 16.0417 21.0002 16.0529 21.0003 16.0654C21.0014 16.1863 21.0038 16.4364 20.9251 16.6759C20.8587 16.8779 20.7502 17.0632 20.6072 17.2196C20.607 17.2198 20.6069 17.2199 20.6067 17.2201C20.6066 17.2202 20.6065 17.2203 20.6065 17.2204C20.4363 17.4063 20.2174 17.5268 20.1114 17.585C20.1005 17.591 20.0908 17.5964 20.0825 17.601C20.0825 17.6011 20.0824 17.6011 20.0824 17.6011L12.4903 21.8716C12.1859 22.0429 11.8142 22.0429 11.5098 21.8716L3.91763 17.6011C3.91761 17.601 3.9176 17.601 3.91759 17.601C3.90924 17.5963 3.89952 17.591 3.88858 17.585C3.78268 17.5267 3.56374 17.4062 3.39361 17.2204C3.2499 17.0634 3.14139 16.8778 3.07505 16.676L3.07496 16.6757C2.99635 16.4364 2.9987 16.1863 2.99984 16.0654C2.99995 16.0529 3.00006 16.0418 3.00006 16.0322V7.50005C3.00006 7.13878 3.19492 6.80559 3.5098 6.62848L11.1176 2.3491L11.1177 2.34906C11.1257 2.34453 11.135 2.33918 11.1455 2.33316C11.2465 2.27512 11.456 2.1548 11.6946 2.10516L11.695 2.10507Z" fill="white"/>
</svg>
