<svg width="24" height="24" viewBox="0 0 24 24" fill="none" xmlns="http://www.w3.org/2000/svg">
<path d="M12 1.87501C9.26597 1.82882 6.62521 2.86879 4.65686 4.76685C2.6885 6.6649 1.55323 9.26611 1.5 12C1.55323 14.7339 2.6885 17.3351 4.65686 19.2332C6.62521 21.1312 9.26597 22.1712 12 22.125C14.734 22.1712 17.3748 21.1312 19.3431 19.2332C21.3115 17.3351 22.4468 14.7339 22.5 12C22.4468 9.26611 21.3115 6.6649 19.3431 4.76685C17.3748 2.86879 14.734 1.82882 12 1.87501ZM20.6325 9.57001C19.2647 8.70374 17.7327 8.12924 16.1325 7.88251C15.8941 6.44053 15.4095 5.05028 14.7 3.77251C16.0872 4.18066 17.3533 4.92251 18.3875 5.93318C19.4217 6.94384 20.1925 8.19253 20.6325 9.57001ZM12 20.625C11.1375 20.625 10.0425 19.065 9.4425 16.3575C10.2919 16.4503 11.1456 16.4978 12 16.5C12.8544 16.4978 13.7081 16.4503 14.5575 16.3575C13.9575 19.065 12.8625 20.625 12 20.625ZM12 15C11.0549 14.9997 10.1106 14.9421 9.1725 14.8275C8.94241 12.9495 8.94241 11.0505 9.1725 9.17251C11.0505 8.94242 12.9495 8.94242 14.8275 9.17251C14.9421 10.1107 14.9997 11.0549 15 12C14.9997 12.9451 14.9421 13.8894 14.8275 14.8275C13.8894 14.9421 12.9451 14.9997 12 15ZM7.6425 14.5575C4.935 13.9575 3.375 12.8625 3.375 12C3.375 11.1375 4.935 10.0425 7.6425 9.44251C7.45253 11.1422 7.45253 12.8578 7.6425 14.5575ZM12 3.37501C12.8625 3.37501 13.9575 4.93501 14.5575 7.64251C13.7081 7.54976 12.8544 7.50219 12 7.50001C11.1456 7.50219 10.2919 7.54976 9.4425 7.64251C10.0425 4.93501 11.1375 3.37501 12 3.37501ZM16.3575 9.44251C19.065 10.0425 20.625 11.1375 20.625 12C20.625 12.8625 19.065 13.9575 16.3575 14.5575C16.4503 13.7081 16.4978 12.8544 16.5 12C16.4978 11.1456 16.4503 10.2919 16.3575 9.44251ZM9.3 3.77251C8.59649 5.04894 8.11705 6.43654 7.8825 7.87501C6.28233 8.12174 4.75034 8.69624 3.3825 9.56251C3.82209 8.18812 4.59107 6.94206 5.62246 5.9329C6.65385 4.92373 7.91636 4.18206 9.3 3.77251ZM3.3675 14.43C4.73534 15.2963 6.26733 15.8708 7.8675 16.1175C8.10122 17.5586 8.58069 18.9488 9.285 20.2275C7.90053 19.8172 6.63747 19.0744 5.60602 18.0639C4.57456 17.0534 3.80604 15.8058 3.3675 14.43ZM14.7 20.2275C15.4035 18.9511 15.883 17.5635 16.1175 16.125C17.7177 15.8783 19.2497 15.3038 20.6175 14.4375C20.1779 15.8119 19.4089 17.058 18.3775 18.0671C17.3461 19.0763 16.0836 19.818 14.7 20.2275Z" fill="white"/>
</svg>
