<svg width="24" height="24" viewBox="0 0 24 24" fill="none" xmlns="http://www.w3.org/2000/svg">
<path fill-rule="evenodd" clip-rule="evenodd" d="M12 2.1001C6.53236 2.1001 2.09998 6.53248 2.09998 12.0001C2.09998 17.4678 6.53236 21.9001 12 21.9001C17.4676 21.9001 21.9 17.4678 21.9 12.0001C21.9 6.53248 17.4676 2.1001 12 2.1001ZM3.89998 12.0001C3.89998 7.52659 7.52647 3.9001 12 3.9001C16.4735 3.9001 20.1 7.52659 20.1 12.0001C20.1 16.4736 16.4735 20.1001 12 20.1001C7.52647 20.1001 3.89998 16.4736 3.89998 12.0001ZM16.1719 7.8282C15.9484 7.60465 15.6239 7.51479 15.3172 7.59146L9.66041 9.00567C9.33795 9.08629 9.08618 9.33806 9.00556 9.66052L7.59134 15.3173C7.51467 15.624 7.60453 15.9485 7.82807 16.172C8.05161 16.3955 8.37605 16.4854 8.68275 16.4087L14.3396 14.9945C14.662 14.9139 14.9138 14.6621 14.9944 14.3397L16.4086 8.68287C16.4853 8.37618 16.3954 8.05174 16.1719 7.8282ZM9.7014 14.2987L10.6208 10.621L14.2986 9.70152L13.3791 13.3792L9.7014 14.2987Z" fill="white"/>
</svg>
