<svg width="24" height="24" viewBox="0 0 24 24" fill="none" xmlns="http://www.w3.org/2000/svg">
<path d="M13.1252 20.8889L13.1252 10.2373L16.8321 13.8967C17.2709 14.3306 17.9795 14.3306 18.4183 13.8967C18.8627 13.4629 18.8627 12.7595 18.4183 12.3256L12.832 6.80834C12.6259 6.58472 12.3289 6.44438 12.0001 6.44438C11.671 6.44438 11.3737 6.58503 11.1675 6.80909L5.58206 12.3256C5.13768 12.7595 5.13768 13.4629 5.58206 13.8967C6.02081 14.3306 6.72946 14.3306 7.16822 13.8967L10.8751 10.2374L10.8751 20.8889C10.8751 21.5028 11.3813 22 12.0001 22C12.6189 22 13.1252 21.5028 13.1252 20.8889Z" fill="white"/>
<path d="M4.125 2.00007L19.875 2.00007C20.4938 2.00007 21 2.49727 21 3.11115C21 3.72501 20.4938 4.22222 19.875 4.22222L4.125 4.22222C3.50625 4.22222 3 3.72501 3 3.11114C3 2.49727 3.50625 2.00007 4.125 2.00007Z" fill="white"/>
</svg>
