<svg width="24" height="24" viewBox="0 0 24 24" fill="none" xmlns="http://www.w3.org/2000/svg">
<path fill-rule="evenodd" clip-rule="evenodd" d="M5.34677 3.87097C5.34677 3.38995 4.98932 3 4.54839 3C4.10745 3 3.75 3.38995 3.75 3.87097V15.4839C3.75 18.5303 6.01384 21 8.80645 21H19.4516C19.8925 21 20.25 20.6101 20.25 20.129C20.25 19.648 19.8925 19.2581 19.4516 19.2581H8.80645C6.89573 19.2581 5.34677 17.5683 5.34677 15.4839V3.87097ZM14.5218 7.35482C14.5218 6.8738 14.8793 6.48386 15.3202 6.48386H19.4467C19.4889 6.48355 19.5312 6.48688 19.5732 6.49389C19.5932 6.49722 19.6129 6.50136 19.6323 6.50627C19.6773 6.51761 19.7207 6.53308 19.7624 6.5523C19.7891 6.56465 19.8151 6.57854 19.8403 6.59388C19.8954 6.62741 19.9464 6.66783 19.9924 6.71408C20.0659 6.78776 20.1239 6.87341 20.1662 6.96599C20.2198 7.08303 20.25 7.21508 20.25 7.35482V11.5436C20.25 12.0246 19.8925 12.4146 19.4516 12.4146C19.0107 12.4146 18.6532 12.0246 18.6532 11.5436V9.76316L15.8072 13.4942C15.7833 13.5256 15.7575 13.555 15.7299 13.5824C14.9756 14.3284 13.8395 14.3766 13.0345 13.6966L13.0286 13.6916L13.5205 13.0119L13.5232 13.008L13.0286 13.6916L11.916 12.7336C11.7083 12.557 11.4111 12.5891 11.239 12.8042C11.1834 12.8832 11.1243 12.959 11.0618 13.0317C11.0579 13.0362 11.0539 13.0408 11.0498 13.0454L10.4811 12.4367L10.4798 12.4355L11.0498 13.0454L8.16925 16.2494C7.8605 16.5928 7.35501 16.5981 7.04021 16.2612C6.72541 15.9244 6.72051 15.3731 7.02927 15.0296L9.90354 11.8325C9.93004 11.8013 9.95505 11.7687 9.97849 11.7347L10.6161 12.259L10.6155 12.2585L9.97849 11.7347C9.98594 11.7239 9.9936 11.7134 10.0015 11.703C10.723 10.7537 12.0054 10.6014 12.8973 11.3593L12.9013 11.3628L14.0143 12.3213C14.1954 12.4724 14.4455 12.4707 14.6242 12.3219L17.7486 8.22579H15.3202C14.8793 8.22579 14.5218 7.83584 14.5218 7.35482Z" fill="white"/>
</svg>
