<svg width="24" height="24" viewBox="0 0 24 24" fill="none" xmlns="http://www.w3.org/2000/svg">
<path fill-rule="evenodd" clip-rule="evenodd" d="M16.5 3C14.0147 3 12 5.01472 12 7.5C12 9.98528 14.0147 12 16.5 12C18.9853 12 21 9.98528 21 7.5C21 5.01472 18.9853 3 16.5 3ZM14 7.5C14 6.11929 15.1193 5 16.5 5C17.8807 5 19 6.11929 19 7.5C19 8.88071 17.8807 10 16.5 10C15.1193 10 14 8.88071 14 7.5Z" fill="white"/>
<path d="M16.5001 13C12.5133 13 10.014 15.8884 9.57091 19.0033C9.49313 19.5501 9.94771 20 10.5 20C11.0523 20 11.4905 19.5482 11.5958 19.006C12.0131 16.858 13.7744 15 16.5001 15C19.2257 15 20.9869 16.858 21.4042 19.006C21.5095 19.5482 21.9477 20 22.5 20C23.0523 20 23.5069 19.5501 23.4291 19.0033C22.986 15.8884 20.4869 13 16.5001 13Z" fill="white"/>
<path d="M1.5 21C0.947715 21 0.493688 20.5504 0.566676 20.0029C0.974281 16.9458 3.23775 14 7.00007 14C7.62932 14 8.22484 14.085 8.78141 14.2442C9.31241 14.396 9.52377 15.0012 9.28672 15.5C9.04966 15.9988 8.45209 16.1986 7.9108 16.089C7.62521 16.0311 7.32171 16 7.00007 16C4.60432 16 2.96708 17.8062 2.58537 20.0047C2.49089 20.5489 2.05228 21 1.5 21Z" fill="white"/>
<path fill-rule="evenodd" clip-rule="evenodd" d="M7 5C4.79086 5 3 6.79086 3 9C3 11.2091 4.79086 13 7 13C9.20914 13 11 11.2091 11 9C11 6.79086 9.20914 5 7 5ZM5 9C5 7.89543 5.89543 7 7 7C8.10457 7 9 7.89543 9 9C9 10.1046 8.10457 11 7 11C5.89543 11 5 10.1046 5 9Z" fill="white"/>
</svg>
