<svg width="24" height="24" viewBox="0 0 24 24" fill="none" xmlns="http://www.w3.org/2000/svg">
<path d="M2.48486 7.78224L11.584 11.9099C11.8496 12.0306 12.15 12.0306 12.4156 11.9099L21.5148 7.78224C22.1612 7.48888 22.1612 6.51194 21.5148 6.21859L12.416 2.09052C12.2855 2.03087 12.1437 2 12.0002 2C11.8567 2 11.7149 2.03087 11.5844 2.09052L2.48486 6.2182C1.83838 6.51155 1.83838 7.48888 2.48486 7.78224ZM21.5151 11.2306L19.246 10.2021L12.932 13.0642C12.6367 13.1982 12.323 13.2661 12 13.2661C11.677 13.2661 11.3637 13.1982 11.068 13.0642L4.75437 10.2021L2.48486 11.2306C1.83838 11.5236 1.83838 12.5001 2.48486 12.7931L11.584 16.9177C11.8496 17.038 12.15 17.038 12.4156 16.9177L21.5151 12.7931C22.1616 12.5001 22.1616 11.5236 21.5151 11.2306ZM21.5151 16.2227L19.2546 15.1981L12.932 18.0641C12.6367 18.1981 12.323 18.2661 12 18.2661C11.677 18.2661 11.3637 18.1981 11.068 18.0641L4.74577 15.1981L2.48486 16.2227C1.83838 16.5157 1.83838 17.4923 2.48486 17.7852L11.584 21.9098C11.8496 22.0301 12.15 22.0301 12.4156 21.9098L21.5151 17.7852C22.1616 17.4923 22.1616 16.5157 21.5151 16.2227Z" fill="white"/>
</svg>
