<svg width="24" height="24" viewBox="0 0 24 24" fill="none" xmlns="http://www.w3.org/2000/svg">
<path d="M12 14.7273C12.7576 14.7273 13.4015 14.4621 13.9318 13.9318C14.4621 13.4015 14.7273 12.7576 14.7273 12C14.7273 11.2424 14.4621 10.5985 13.9318 10.0682C13.4015 9.53788 12.7576 9.27273 12 9.27273C11.2424 9.27273 10.5985 9.53788 10.0682 10.0682C9.53788 10.5985 9.27273 11.2424 9.27273 12C9.27273 12.7576 9.53788 13.4015 10.0682 13.9318C10.5985 14.4621 11.2424 14.7273 12 14.7273ZM12 16.5455C10.7424 16.5455 9.67045 16.1023 8.78409 15.2159C7.89773 14.3295 7.45455 13.2576 7.45455 12C7.45455 10.7424 7.89773 9.67045 8.78409 8.78409C9.67045 7.89773 10.7424 7.45455 12 7.45455C13.2576 7.45455 14.3295 7.89773 15.2159 8.78409C16.1023 9.67045 16.5455 10.7424 16.5455 12C16.5455 13.2576 16.1023 14.3295 15.2159 15.2159C14.3295 16.1023 13.2576 16.5455 12 16.5455ZM5.63636 12C5.63636 12.5021 5.22935 12.9091 4.72727 12.9091H2.90909C2.40701 12.9091 2 12.5021 2 12C2 11.4979 2.40701 11.0909 2.90909 11.0909H4.72727C5.22935 11.0909 5.63636 11.4979 5.63636 12ZM22 12C22 12.5021 21.593 12.9091 21.0909 12.9091H19.2727C18.7707 12.9091 18.3636 12.5021 18.3636 12C18.3636 11.4979 18.7707 11.0909 19.2727 11.0909H21.0909C21.593 11.0909 22 11.4979 22 12ZM12 5.63636C11.4979 5.63636 11.0909 5.22935 11.0909 4.72727V2.90909C11.0909 2.40701 11.4979 2 12 2C12.5021 2 12.9091 2.40701 12.9091 2.90909V4.72727C12.9091 5.22935 12.5021 5.63636 12 5.63636ZM12 22C11.4979 22 11.0909 21.593 11.0909 21.0909V19.2727C11.0909 18.7707 11.4979 18.3636 12 18.3636C12.5021 18.3636 12.9091 18.7707 12.9091 19.2727V21.0909C12.9091 21.593 12.5021 22 12 22ZM7.52194 7.47638C7.18515 7.83907 6.61648 7.85534 6.25951 7.5125L5.27434 6.56636C4.90976 6.21622 4.89891 5.63654 5.25013 5.27299C5.60998 4.90051 6.20722 4.90146 6.56589 5.27508L7.51184 6.26043C7.83689 6.59903 7.84132 7.13243 7.52194 7.47638ZM18.7498 18.7271C18.39 19.0995 17.7928 19.0987 17.434 18.7251L16.4764 17.7281C16.1469 17.3849 16.1474 16.8428 16.4775 16.5002C16.8164 16.1485 17.3762 16.1376 17.7285 16.476L18.7256 17.4336C19.0902 17.7838 19.1011 18.3635 18.7498 18.7271ZM16.5236 7.52194C16.1609 7.18515 16.1447 6.61648 16.4875 6.25951L17.4336 5.27434C17.7838 4.90976 18.3635 4.89891 18.727 5.25013C19.0995 5.60998 19.0985 6.20722 18.7249 6.56589L17.7396 7.51184C17.401 7.83689 16.8676 7.84132 16.5236 7.52194ZM5.27292 18.7498C4.90046 18.39 4.90134 17.7928 5.27487 17.434L6.27194 16.4764C6.61506 16.1469 7.15723 16.1474 7.49979 16.4775C7.85153 16.8164 7.86237 17.3762 7.52401 17.7285L6.56642 18.7256C6.21624 19.0902 5.63651 19.1011 5.27292 18.7498Z" fill="white"/>
</svg>
