<svg width="24" height="24" viewBox="0 0 24 24" fill="none" xmlns="http://www.w3.org/2000/svg">
<path fill-rule="evenodd" clip-rule="evenodd" d="M9.35655 19.7778V4.25522L14.7582 4.25522H9.3565V19.7778L9.35655 19.7778ZM18.4469 4.25522H16.9245V7.5873L16.9245 7.58736V4.25522L18.4469 4.25522ZM15.8413 6.29387L15.8413 6.29384L14.7583 7.56658V7.56663L15.8413 6.29387ZM14.5583 8.11028L15.8401 6.60389L17.1245 8.13771V4.45522H18.247V19.5778H9.55655V4.45522H14.5583V8.11028ZM19.0887 2.77197H4.82403C4.35924 2.77197 3.98242 3.14879 3.98242 3.61359V20.4194C3.98242 20.8842 4.35923 21.261 4.82403 21.261H19.0887C19.5534 21.261 19.9303 20.8842 19.9303 20.4194V3.61361C19.9303 3.14879 19.5534 2.77197 19.0887 2.77197ZM5.66555 4.45522H7.8734V19.5778H5.66555V4.45522ZM19.1031 2.97213C19.4508 2.97985 19.7302 3.2641 19.7302 3.61361V20.4194C19.7302 20.7187 19.5252 20.9702 19.248 21.0411C19.5253 20.9702 19.7303 20.7187 19.7303 20.4194V3.61361C19.7303 3.26409 19.4508 2.97983 19.1031 2.97213ZM4.82403 21.061L4.82399 21.061C4.82398 21.061 4.82398 21.061 4.82397 21.061C4.82399 21.061 4.82401 21.061 4.82403 21.061ZM5.46555 19.7778V4.25522L8.07335 4.25522H5.4655V19.7778L5.46555 19.7778Z" fill="white"/>
</svg>
