<svg width="24" height="24" viewBox="0 0 24 24" fill="none" xmlns="http://www.w3.org/2000/svg">
<path d="M12.2885 2.84138C12.1038 2.76446 11.8962 2.76446 11.7115 2.84138L7.09615 4.69235C6.80579 4.80849 6.61539 5.08972 6.61539 5.40246V10.0529L2.45673 11.8558C2.17782 11.9879 2 12.2689 2 12.5775V17.8205C2 18.1027 2.14535 18.3649 2.38462 18.5145L7 21.0866L7.00948 21.0916C7.23052 21.2095 7.49414 21.2166 7.72115 21.1106L12 18.9712L16.2788 21.1106C16.5059 21.2166 16.7695 21.2095 16.9905 21.0916L17 21.0866L21.6154 18.5145C21.8547 18.3649 22 18.1027 22 17.8205V12.5775C22 12.2689 21.8222 11.9879 21.5433 11.8558L17.3846 10.0529V5.40246C17.3846 5.08972 17.1942 4.80849 16.9038 4.69235L12.2885 2.84138ZM12 4.40388L14.524 5.38946L12 6.37504L9.47596 5.38946L12 4.40388ZM8.15385 6.51927L11.2308 7.69715V11.4472L8.15385 10.077V6.51927ZM15.8462 6.51927V10.077L12.7692 11.4472V7.69715L15.8462 6.51927ZM7.38462 11.4231L10.1731 12.6491L7.38462 14.0193L4.59615 12.625L7.38462 11.4231ZM16.6154 11.4231L19.4038 12.625L16.6154 14.0193L13.8269 12.6491L14.6923 12.2645L16.6154 11.4231ZM3.53846 13.8029L6.61539 15.3414V19.1154L3.53846 17.3847V13.8029ZM20.4615 13.8029V17.3847L17.3846 19.1154V15.3414L20.4615 13.8029ZM11.2308 13.851V17.625L8.15385 19.1635V15.3414L11.2308 13.851ZM12.7692 13.851L15.8462 15.3414V19.1635L12.7692 17.625V13.851Z" fill="white"/>
</svg>
