<svg width="24" height="24" viewBox="0 0 24 24" fill="none" xmlns="http://www.w3.org/2000/svg">
<path d="M19.6007 16.75L19.5627 15.8001H19.4535C19.0925 15.8001 17.924 15.7573 16.6083 15.3013C15.9528 15.078 15.2593 14.7503 14.6038 14.2895C13.9436 13.8241 13.3213 13.2208 12.7941 12.4228C11.9628 11.1736 11.5449 9.7201 11.5449 8.24286C11.5449 6.76563 11.9628 5.27414 12.7988 3.96315C13.0031 3.64965 12.9983 3.24594 12.7988 2.93245C12.5946 2.61895 12.2288 2.45745 11.8583 2.50969C9.44062 2.87544 7.33644 4.08193 5.84497 5.77767C4.34874 7.4734 3.45099 9.66311 3.45099 11.9953H4.38195L3.45099 11.9763V11.9953H4.38195L3.45099 11.9763C3.45099 11.9811 3.44153 12.1093 3.49378 12.2803L4.40097 12.0001H3.45099C3.45099 14.6363 4.60049 17.0113 6.32471 18.7165C8.04894 20.4218 10.3668 21.4953 12.7941 21.5H12.9699C14.0766 21.4762 15.0836 21.2245 15.9576 20.8588C17.2686 20.3125 18.2993 19.5145 19.0403 18.8163C19.7765 18.1133 20.2325 17.5006 20.3703 17.3011C20.584 17.0066 20.6077 16.6171 20.4367 16.2988C20.2657 15.9758 19.9237 15.7858 19.5627 15.8001L19.6007 16.75L18.8312 16.1943C18.6982 16.3795 18.0618 17.2345 17.0358 18.0325C16.5228 18.4363 15.9148 18.821 15.2261 19.106C14.5373 19.391 13.7773 19.581 12.9318 19.6H12.7941C10.9416 19.6048 9.06545 18.7593 7.65947 17.3676C6.25824 15.9758 5.35096 14.0758 5.35096 12.0001C5.35096 11.9003 5.33666 11.8149 5.30817 11.7199L4.40573 11.9953L5.35096 11.9716C5.35096 11.9241 5.34141 11.8291 5.30817 11.7199L4.40573 11.9953L5.35096 11.9716L4.41523 11.9953L5.35096 12.0144V11.9716L4.41523 11.9953L5.35096 12.0144L4.54825 12.0001L5.35096 12.0191V12.0144L4.54825 12.0001L5.35096 12.0191V11.9953C5.35096 10.1571 6.05871 8.4044 7.26994 7.03641C8.47643 5.66368 10.1769 4.68515 12.1434 4.39066L12.0009 3.45018L11.2029 2.9372C10.1627 4.56169 9.64491 6.40938 9.64491 8.24286C9.64016 10.0763 10.1627 11.9051 11.2077 13.4773C11.8774 14.4796 12.6753 15.2538 13.5065 15.838C14.751 16.7215 16.0573 17.1776 17.1356 17.4246C18.2185 17.6716 19.0735 17.7 19.4535 17.7H19.6388L19.6007 16.75Z" fill="white"/>
</svg>
