<svg width="24" height="24" viewBox="0 0 24 24" fill="none" xmlns="http://www.w3.org/2000/svg">
<path fill-rule="evenodd" clip-rule="evenodd" d="M4.29291 4.2929C4.36903 4.21677 4.50497 4.12263 4.93871 4.06431C5.40121 4.00213 6.02892 4.00001 7 4.00001H17C17.9711 4.00001 18.5988 4.00213 19.0613 4.06431C19.495 4.12263 19.631 4.21678 19.7071 4.29291C19.7832 4.36903 19.8774 4.50498 19.9357 4.93871C19.9979 5.40121 20 6.02892 20 7V13H16.3333L16.276 13C15.7757 12.9999 15.3051 12.9999 14.9199 13.0516C14.4914 13.1093 14.0222 13.247 13.6346 13.6346C13.247 14.0222 13.1093 14.4914 13.0516 14.9199C12.9999 15.3051 12.9999 15.7757 13 16.276L13 16.3333V20H7C6.02892 20 5.40121 19.9979 4.93871 19.9357C4.50498 19.8774 4.36903 19.7832 4.29291 19.7071C4.21677 19.631 4.12263 19.495 4.06431 19.0613C4.00213 18.5988 4.00001 17.9711 4.00001 17V7C4.00001 6.02892 4.00213 5.40121 4.06431 4.93871C4.12263 4.50497 4.21679 4.36902 4.29291 4.2929ZM15 19.5858L19.5858 15H16.3333C15.7551 15 15.422 15.0021 15.1864 15.0338C15.1251 15.0421 15.084 15.0508 15.0577 15.0577C15.0508 15.084 15.0421 15.1251 15.0338 15.1864C15.0021 15.422 15 15.7551 15 16.3333V19.5858ZM7 2L6.93417 2C6.04769 1.99995 5.28387 1.99991 4.67221 2.08215C4.0167 2.17028 3.38834 2.36903 2.87868 2.87869C2.36902 3.38835 2.17028 4.0167 2.08215 4.67221C1.99991 5.28387 1.99995 6.04768 2 6.93417L2 6.93417L2 7L2 17.0658C1.99995 17.9523 1.99991 18.7161 2.08215 19.3278C2.17028 19.9833 2.36902 20.6116 2.87868 21.1213C3.38834 21.631 4.01669 21.8297 4.67221 21.9179C5.28387 22.0001 6.04768 22.0001 6.93417 22L14.1716 22L14.2564 22.0003C14.5728 22.0017 14.9753 22.0034 15.351 21.8478L15.3512 21.8478C15.727 21.6921 16.0104 21.4061 16.2331 21.1814L16.2929 21.1213L21.1213 16.2929L21.1814 16.2331C21.4061 16.0104 21.6921 15.727 21.8478 15.3512L21.8478 15.351C22.0034 14.9753 22.0017 14.5728 22.0003 14.2564L22 14.1716L22 6.93417C22.0001 6.04768 22.0001 5.28387 21.9179 4.67221C21.8297 4.01669 21.631 3.38834 21.1213 2.87868C20.6116 2.36902 19.9833 2.17028 19.3278 2.08215C18.7161 1.99991 17.9523 1.99995 17.0658 2L7 2ZM15.0177 15.0716C15.0174 15.0715 15.0194 15.0703 15.0244 15.0683C15.0204 15.0707 15.0179 15.0717 15.0177 15.0716ZM15.0706 15.0192C15.07 15.0203 15.0693 15.022 15.0683 15.0244C15.0707 15.0204 15.0717 15.0179 15.0716 15.0177C15.0716 15.0175 15.0712 15.018 15.0706 15.0192Z" fill="white"/>
</svg>
