<svg width="24" height="24" viewBox="0 0 24 24" fill="none" xmlns="http://www.w3.org/2000/svg">
<g clip-path="url(#clip0_64_203)">
<path d="M12 24.012C18.6274 24.012 24 18.6394 24 12.012C24 5.38454 18.6274 0.0119629 12 0.0119629C5.37258 0.0119629 0 5.38454 0 12.012C0 18.6394 5.37258 24.012 12 24.012Z" fill="#151515"/>
<path d="M12 5.92798C9.516 5.92798 7.5 7.94398 7.5 10.4279C7.5 12.8639 9.408 14.8439 11.94 14.9159C11.976 14.9159 12.024 14.9159 12.048 14.9159C12.072 14.9159 12.108 14.9159 12.132 14.9159C12.144 14.9159 12.156 14.9159 12.156 14.9159C14.58 14.8319 16.488 12.8639 16.5 10.4279C16.5 7.94398 14.484 5.92798 12 5.92798Z" fill="#857DEA"/>
<path d="M20.1369 20.8319C18.0009 22.7999 15.1449 24.0119 12.0009 24.0119C8.85687 24.0119 6.00087 22.7999 3.86487 20.8319C4.15287 19.7399 4.93287 18.7439 6.07287 17.9759C9.34887 15.7919 14.6769 15.7919 17.9289 17.9759C19.0809 18.7439 19.8489 19.7399 20.1369 20.8319Z" fill="#857DEA"/>
</g>
<defs>
<clipPath id="clip0_64_203">
<rect width="24" height="24" fill="white"/>
</clipPath>
</defs>
</svg>
