<svg width="24" height="24" viewBox="0 0 24 24" fill="none" xmlns="http://www.w3.org/2000/svg">
<path d="M2.25004 4.87494C2.25023 4.25624 2.42048 3.6495 2.7422 3.12101C3.06392 2.59253 3.52471 2.16266 4.07423 1.87836C4.62375 1.59407 5.24084 1.4663 5.85807 1.50902C6.47529 1.55174 7.0689 1.7633 7.57402 2.12058C8.07913 2.47787 8.47631 2.96712 8.72216 3.53489C8.968 4.10265 9.05305 4.72706 8.968 5.33989C8.88296 5.95272 8.63109 6.53038 8.23993 7.00974C7.84876 7.4891 7.33336 7.85171 6.75004 8.05794V15.9419C7.50108 16.2073 8.1341 16.7297 8.53722 17.4167C8.94034 18.1037 9.0876 18.9111 8.95296 19.6962C8.81832 20.4813 8.41047 21.1935 7.80148 21.707C7.19249 22.2204 6.42159 22.502 5.62504 22.502C4.82849 22.502 4.05759 22.2204 3.44861 21.707C2.83962 21.1935 2.43176 20.4813 2.29712 19.6962C2.16249 18.9111 2.30974 18.1037 2.71286 17.4167C3.11598 16.7297 3.74901 16.2073 4.50004 15.9419V8.05794C3.84186 7.82524 3.27204 7.39417 2.86907 6.82411C2.46611 6.25404 2.24983 5.57305 2.25004 4.87494ZM10.7655 4.60944L14.3595 1.01544C14.412 0.962864 14.4789 0.927041 14.5517 0.912516C14.6245 0.897991 14.7 0.905418 14.7686 0.933856C14.8372 0.962294 14.8959 1.01046 14.9371 1.07225C14.9783 1.13405 15.0002 1.20668 15 1.28094V3.74994H16.5C17.4946 3.74994 18.4484 4.14503 19.1517 4.84829C19.855 5.55156 20.25 6.50538 20.25 7.49994V15.9419C21.0011 16.2073 21.6341 16.7297 22.0372 17.4167C22.4403 18.1037 22.5876 18.9111 22.453 19.6962C22.3183 20.4813 21.9105 21.1935 21.3015 21.707C20.6925 22.2204 19.9216 22.502 19.125 22.502C18.3285 22.502 17.5576 22.2204 16.9486 21.707C16.3396 21.1935 15.9318 20.4813 15.7971 19.6962C15.6625 18.9111 15.8097 18.1037 16.2129 17.4167C16.616 16.7297 17.249 16.2073 18 15.9419V7.49994C18 7.10212 17.842 6.72059 17.5607 6.43928C17.2794 6.15798 16.8979 5.99994 16.5 5.99994H15V8.46894C15.0002 8.54321 14.9783 8.61584 14.9371 8.67763C14.8959 8.73943 14.8372 8.78759 14.7686 8.81603C14.7 8.84447 14.6245 8.8519 14.5517 8.83737C14.4789 8.82285 14.412 8.78702 14.3595 8.73444L10.7655 5.14044C10.7306 5.10561 10.7029 5.06423 10.684 5.01867C10.6651 4.97311 10.6554 4.92427 10.6554 4.87494C10.6554 4.82562 10.6651 4.77678 10.684 4.73122C10.7029 4.68566 10.7306 4.64428 10.7655 4.60944ZM5.62504 3.74994C5.32667 3.74994 5.04053 3.86847 4.82955 4.07945C4.61857 4.29043 4.50004 4.57658 4.50004 4.87494C4.50004 5.17331 4.61857 5.45946 4.82955 5.67044C5.04053 5.88142 5.32667 5.99994 5.62504 5.99994C5.92341 5.99994 6.20956 5.88142 6.42054 5.67044C6.63152 5.45946 6.75004 5.17331 6.75004 4.87494C6.75004 4.57658 6.63152 4.29043 6.42054 4.07945C6.20956 3.86847 5.92341 3.74994 5.62504 3.74994ZM5.62504 17.9999C5.32667 17.9999 5.04053 18.1185 4.82955 18.3294C4.61857 18.5404 4.50004 18.8266 4.50004 19.1249C4.50004 19.4233 4.61857 19.7095 4.82955 19.9204C5.04053 20.1314 5.32667 20.2499 5.62504 20.2499C5.92341 20.2499 6.20956 20.1314 6.42054 19.9204C6.63152 19.7095 6.75004 19.4233 6.75004 19.1249C6.75004 18.8266 6.63152 18.5404 6.42054 18.3294C6.20956 18.1185 5.92341 17.9999 5.62504 17.9999ZM18 19.1249C18 19.4233 18.1186 19.7095 18.3295 19.9204C18.5405 20.1314 18.8267 20.2499 19.125 20.2499C19.4234 20.2499 19.7096 20.1314 19.9205 19.9204C20.1315 19.7095 20.25 19.4233 20.25 19.1249C20.25 18.8266 20.1315 18.5404 19.9205 18.3294C19.7096 18.1185 19.4234 17.9999 19.125 17.9999C18.8267 17.9999 18.5405 18.1185 18.3295 18.3294C18.1186 18.5404 18 18.8266 18 19.1249Z" fill="white"/>
</svg>
