<svg width="24" height="24" viewBox="0 0 24 24" fill="none" xmlns="http://www.w3.org/2000/svg">
<path fill-rule="evenodd" clip-rule="evenodd" d="M6.27963 3.21777H17.7204C17.9492 3.21803 18.1742 3.2768 18.374 3.38849C18.5733 3.49992 18.7409 3.66035 18.8609 3.8546L18.8617 3.85592L5.13873 3.85515M15.8415 7.89532L17.2747 4.55111H13.3333L15.8415 7.89532ZM14.6667 8.55114L12 4.99556L9.33332 8.55114H14.6667ZM8.15851 7.89532L10.6667 4.55111H6.72528L8.15851 7.89532ZM5.13873 3.85515C5.25877 3.66066 5.42649 3.50003 5.62599 3.38849C5.82576 3.2768 6.05076 3.21803 6.27963 3.21777M5.13873 3.85515C5.13825 3.85592 5.13841 3.85566 5.13825 3.85592L2.20247 8.59474C2.05783 8.8287 1.98782 9.10113 2.00174 9.37584C2.01565 9.65055 2.11285 9.91451 2.28039 10.1327L2.28114 10.1336L10.9364 21.3599C10.9366 21.3601 10.9368 21.3604 10.937 21.3606C11.0621 21.5234 11.2229 21.6554 11.4071 21.7462C11.5915 21.8372 11.7944 21.8845 12 21.8845C12.2056 21.8845 12.4085 21.8372 12.5929 21.7462C12.7771 21.6554 12.9379 21.5234 13.063 21.3606C13.0632 21.3604 13.0634 21.3601 13.0636 21.3599L21.7196 10.1327C21.8871 9.91452 21.9843 9.65055 21.9983 9.37584C22.0122 9.10113 21.9422 8.8287 21.7975 8.59474L21.7972 8.59421L18.8617 3.85592M5.68413 5.50656L3.79796 8.55114H6.98894L5.68413 5.50656ZM7.5283 9.88448H3.77267L10.699 18.8683L7.5283 9.88448ZM13.301 18.8683L20.2273 9.88448H16.4717L13.301 18.8683ZM15.0578 9.88448L12 18.5481L8.94225 9.88448H15.0578ZM20.202 8.55114L18.3159 5.50656L17.0111 8.55114M17.0111 8.55114H20.202H17.0111Z" fill="white"/>
</svg>
