<svg width="24" height="24" viewBox="0 0 24 24" fill="none" xmlns="http://www.w3.org/2000/svg">
<path d="M19.0712 4.92909C20.7071 6.56506 21.7251 8.71764 21.9519 11.0201C22.1786 13.3225 21.5999 15.6323 20.3145 17.5559C19.0292 19.4795 17.1165 20.8979 14.9026 21.5695C12.6886 22.241 10.3103 22.1241 8.17292 21.2387C6.0355 20.3533 4.27121 18.7541 3.18067 16.7137C2.09012 14.6733 1.7408 12.3179 2.19222 10.0488C2.64364 7.77972 3.86787 5.73735 5.65631 4.2697C7.44476 2.80205 9.68676 1.99993 12.0003 2C12.2414 2 12.4727 2.09578 12.6431 2.26627C12.8136 2.43675 12.9094 2.66798 12.9094 2.90909V10.4336C13.256 10.6338 13.5269 10.9427 13.6801 11.3124C13.8333 11.6822 13.8601 12.0922 13.7565 12.4788C13.653 12.8654 13.4247 13.207 13.1072 13.4507C12.7896 13.6943 12.4006 13.8264 12.0003 13.8264C11.6001 13.8264 11.211 13.6943 10.8935 13.4507C10.5759 13.207 10.3477 12.8654 10.2441 12.4788C10.1405 12.0922 10.1674 11.6822 10.3205 11.3124C10.4737 10.9427 10.7446 10.6338 11.0912 10.4336V8.01909C10.2095 8.22214 9.42029 8.71238 8.84752 9.41277C8.27475 10.1132 7.95091 10.984 7.9269 11.8885C7.90289 12.7929 8.18006 13.6797 8.71486 14.4095C9.24966 15.1393 10.0118 15.6707 10.8815 15.9203C11.7511 16.1698 12.6791 16.1234 13.5195 15.7882C14.3599 15.453 15.0651 14.8481 15.5243 14.0685C15.9835 13.2889 16.1707 12.3788 16.0564 11.4813C15.9421 10.5838 15.5329 9.74966 14.893 9.11C14.7217 8.93905 14.6254 8.70706 14.6251 8.46505C14.6248 8.22305 14.7207 7.99085 14.8917 7.81954C15.0626 7.64824 15.2946 7.55186 15.5366 7.5516C15.7786 7.55134 16.0108 7.64724 16.1821 7.81818C17.1243 8.75576 17.7231 9.9834 17.882 11.303C18.0408 12.6227 17.7505 13.9574 17.0578 15.0918C16.3651 16.2262 15.3104 17.0941 14.064 17.5556C12.8175 18.0171 11.4519 18.0452 10.1875 17.6354C8.92303 17.2256 7.83354 16.4018 7.09475 15.2969C6.35596 14.1919 6.01095 12.8703 6.11538 11.5453C6.21982 10.2202 6.7676 8.96895 7.67037 7.99339C8.57313 7.01783 9.77822 6.37485 11.0912 6.16818V3.86818C9.24888 4.07404 7.53105 4.89946 6.21913 6.20923C4.90721 7.519 4.07897 9.23548 3.87009 11.0775C3.6612 12.9195 4.08406 14.7779 5.06938 16.3481C6.05471 17.9184 7.54409 19.1075 9.29356 19.7207C11.043 20.3339 12.9489 20.3347 14.6989 19.7232C16.449 19.1116 17.9394 17.9239 18.9262 16.3545C19.913 14.7851 20.3375 12.9272 20.1303 11.085C19.9231 9.24276 19.0965 7.52552 17.7858 6.21454C17.6989 6.13068 17.6297 6.03037 17.582 5.91946C17.5344 5.80855 17.5093 5.68925 17.5083 5.56855C17.5072 5.44784 17.5302 5.32813 17.5759 5.2164C17.6216 5.10468 17.6891 5.00318 17.7745 4.91782C17.8599 4.83247 17.9614 4.76496 18.0731 4.71925C18.1848 4.67354 18.3045 4.65054 18.4252 4.65159C18.5459 4.65264 18.6652 4.67772 18.7761 4.72536C18.887 4.77301 18.9874 4.84226 19.0712 4.92909Z" fill="white"/>
</svg>
