<svg width="24" height="24" viewBox="0 0 24 24" fill="none" xmlns="http://www.w3.org/2000/svg">
<path fill-rule="evenodd" clip-rule="evenodd" d="M2.40039 12.0004C2.40039 17.2804 6.72039 21.6004 12.0004 21.6004C17.2804 21.6004 21.6004 17.2804 21.6004 12.0004C21.6004 6.72039 17.2804 2.40039 12.0004 2.40039C6.72039 2.40039 2.40039 6.72039 2.40039 12.0004ZM4.32039 12.0004C4.32039 7.77639 7.77639 4.32039 12.0004 4.32039C16.2244 4.32039 19.6804 7.77639 19.6804 12.0004C19.6804 16.2244 16.2244 19.6804 12.0004 19.6804C7.77639 19.6804 4.32039 16.2244 4.32039 12.0004ZM18 12C18 15.3 15.3 18 12 18V6C15.3 6 18 8.7 18 12Z" fill="white"/>
</svg>
