<svg width="24" height="24" viewBox="0 0 24 24" fill="none" xmlns="http://www.w3.org/2000/svg">
<path d="M15.053 9.73273L19.8858 4.9173L19.8701 7.64693C19.865 7.87449 20.0448 8.0722 20.2723 8.06713L20.5605 8.06657C20.7875 8.0615 20.9757 7.92575 20.9808 7.69818L21.0818 3.58636C21.0818 3.5903 21.083 3.58891 21.0818 3.58636V3.33978C21.084 3.22544 21.073 3.0726 21 2.99994C20.927 2.92615 20.5199 2.91289 20.4069 2.91626L20.4088 3.01625C20.4049 3.01625 20.4021 3.01794 20.3976 3.0185L16.3682 3.00048C16.1412 3.00555 15.9536 3.19368 15.9485 3.42181L15.948 3.71077C15.9822 3.97888 16.1929 4.13604 16.4199 4.13097L19.0751 4.13829L14.2591 8.93739C14.04 9.15707 14.04 9.51418 14.2591 9.73442C14.4782 9.95466 14.8339 9.9541 15.0535 9.73442L15.053 9.73273ZM8.96452 14.2671L4.13172 19.0679L4.14689 16.3529C4.15251 16.1253 3.9716 15.9271 3.74462 15.9321L3.43899 15.9327C3.21145 15.9383 3.02381 16.0735 3.01875 16.3011L3.00695 20.3674C3.00695 20.3713 3.02268 20.3736 3.02268 20.3781L3.00021 20.5837C2.9974 20.698 3.02437 20.8005 3.09797 20.8732C3.17044 20.947 3.27269 20.9915 3.38562 20.9886L3.59125 20.9836C3.59518 20.9836 3.59799 20.9819 3.60248 20.9819L7.64929 20.9999C7.87627 20.9943 8.06391 20.8061 8.06953 20.5786L8.07009 20.2891C8.03526 20.0209 7.82514 19.8638 7.59816 19.8689L4.94299 19.8621L9.75837 15.0641C9.97748 14.8444 9.97748 14.4879 9.75837 14.2677C9.53926 14.0474 9.18363 14.0469 8.96452 14.2671ZM21.0936 20.52L20.9813 16.3011C20.9763 16.0735 20.7886 15.9378 20.5617 15.9327L20.2734 15.9321C20.0465 15.9271 19.8661 16.1253 19.8712 16.3529L19.8869 19.0825L15.1249 14.1965C14.9058 13.9768 14.4794 14.0474 14.2597 14.2671C14.04 14.4868 14.0406 14.8433 14.2597 15.0636L19.0751 19.8615L16.4199 19.8683C16.1929 19.8632 15.9822 20.0204 15.948 20.2885L15.9485 20.578C15.9536 20.8056 16.1418 20.9943 16.3682 20.9993L20.3033 20.9881L20.4068 21.083C20.4804 21.0103 21.0958 20.6344 21.0936 20.52ZM4.94299 4.13716L7.59873 4.1304C7.8257 4.13547 8.03582 3.97832 8.07066 3.7102L8.07009 3.42124C8.06448 3.19312 7.87683 3.00498 7.64985 2.99991L3.60248 3.01737C3.59799 3.01681 3.59518 3.01512 3.59125 3.01512L3.38562 3.01005C3.27269 3.00724 3.17044 3.05173 3.09797 3.12496C3.02381 3.19819 2.9974 3.29958 3.00021 3.41448L3.02268 3.62064C3.02268 3.62458 3.00695 3.6274 3.00695 3.63191L3.01875 7.69818C3.02381 7.92575 3.21145 8.0615 3.43899 8.06657L3.74519 8.06713C3.97216 8.0722 4.15194 7.87449 4.14689 7.64693L4.13116 4.93251L8.96395 9.7333C9.18306 9.95297 9.53926 9.95297 9.75837 9.7333C9.97748 9.51362 9.97748 9.1565 9.75837 8.93626L4.94299 4.13716Z" fill="white"/>
<path fill-rule="evenodd" clip-rule="evenodd" d="M20.5605 8.06657L20.2723 8.06713C20.0448 8.0722 19.865 7.87449 19.8701 7.64693L19.8858 4.9173L15.053 9.73273L15.0535 9.73442C14.8339 9.9541 14.4782 9.95466 14.2591 9.73442C14.04 9.51418 14.04 9.15707 14.2591 8.93739L19.0751 4.13829L16.4199 4.13097C16.1929 4.13604 15.9822 3.97888 15.948 3.71077L15.9485 3.42181C15.9536 3.19368 16.1412 3.00555 16.3682 3.00048L20.3976 3.0185C20.3996 3.01825 20.4028 3.01733 20.4028 3.01733C20.4048 3.01677 20.4067 3.01625 20.4088 3.01625L20.4069 2.91626C20.5199 2.91289 20.927 2.92615 21 2.99994C21.073 3.0726 21.084 3.22544 21.0818 3.33978V3.58636L20.9808 7.69818C20.9757 7.92575 20.7875 8.0615 20.5605 8.06657ZM21.0818 3.58636L21.083 3.58891C21.083 3.57214 21.0884 3.60053 21.083 3.58891L21.0808 7.70041C21.0741 7.99784 20.8252 8.16068 20.5628 8.16654L20.5607 8.16659L20.2745 8.16711L20.2735 8.16713C19.9841 8.17296 19.7643 7.92355 19.7701 7.64556L19.7844 5.1595L15.1674 9.75991L15.1679 9.76148L15.1243 9.80513C14.8657 10.0637 14.4466 10.0647 14.1882 9.80495C13.9304 9.54575 13.9302 9.12553 14.1883 8.86677L18.8337 4.23763L16.4208 4.23097C16.1447 4.23651 15.8897 4.04335 15.8488 3.72344L15.8471 3.71057L15.8485 3.41959C15.8548 3.13829 16.0852 2.90677 16.366 2.9005L16.3687 2.90044L20.4069 2.91626M3.43899 15.9327L3.74462 15.9321C3.9716 15.9271 4.15251 16.1253 4.14689 16.3529L4.13172 19.0679L8.96452 14.2671C9.18363 14.0469 9.53926 14.0474 9.75837 14.2677C9.97748 14.4879 9.97748 14.8444 9.75837 15.0641L4.94299 19.8621L7.59816 19.8689C7.82514 19.8638 8.03526 20.0209 8.07009 20.2891L8.06953 20.5786C8.06391 20.8061 7.87627 20.9943 7.64929 20.9999L3.60248 20.9819C3.60016 20.9819 3.59648 20.9828 3.59648 20.9828L3.59125 20.9836L3.38562 20.9886C3.27269 20.9915 3.17044 20.947 3.09797 20.8732C3.02437 20.8005 2.9974 20.698 3.00021 20.5837L3.02268 20.3781C3.02268 20.3757 3.01848 20.374 3.01442 20.3723C3.01063 20.3708 3.00695 20.3674 3.00695 20.3674L3.01875 16.3011C3.02381 16.0735 3.21145 15.9383 3.43899 15.9327ZM2.90695 20.4646V20.4374C2.90695 20.4374 2.90695 20.3848 2.90695 20.3674L2.91875 16.2989C2.92194 16.1555 2.98374 16.0378 3.08165 15.9567C3.17785 15.877 3.30444 15.836 3.43652 15.8327L3.43881 15.8327L3.74347 15.8321C4.03209 15.8263 4.2532 16.0761 4.24688 16.3544L4.24686 16.3554L4.23307 18.8262L8.89362 14.1966C9.15198 13.9371 9.57127 13.9378 9.82926 14.1971C10.0871 14.4563 10.0873 14.876 9.82917 15.1347L5.18442 19.7627L7.59724 19.7689C7.87351 19.7633 8.12775 19.9566 8.16926 20.2762L8.17096 20.2893L8.16953 20.5811C8.1626 20.8617 7.93226 21.0929 7.65177 21.0999L7.64884 21.1L3.61064 21.0819L3.59306 21.0836M2.90695 20.4646L2.9008 20.5728L2.90024 20.5812C2.89705 20.711 2.92724 20.8448 3.02716 20.9438C3.11854 21.0365 3.24711 21.0921 3.38811 21.0886L3.59306 21.0836M21.0936 20.52C21.0958 20.6344 20.4804 21.0103 20.4068 21.083L20.3033 20.9881L16.3682 20.9993C16.1418 20.9943 15.9536 20.8056 15.9485 20.578L15.948 20.2885C15.9822 20.0204 16.1929 19.8632 16.4199 19.8683L19.0751 19.8615L14.2597 15.0636C14.0406 14.8433 14.04 14.4868 14.2597 14.2671C14.4794 14.0474 14.9058 13.9768 15.1249 14.1965L19.8869 19.0825L19.8712 16.3529C19.8661 16.1253 20.0465 15.9271 20.2734 15.9321L20.5617 15.9327C20.7886 15.9378 20.9763 16.0735 20.9813 16.3011L21.0936 20.52C21.1871 20.4433 21.1871 20.4433 21.0936 20.52ZM21.0936 20.52L21.1003 20.5811C21.0936 20.7578 21.0731 20.8439 20.9731 20.9431C20.882 21.0362 20.7527 21.0916 20.612 21.0881L20.4068 21.083M21.0936 20.52L21.0814 16.3008L21.0813 16.2989C21.0747 16.0016 20.8265 15.8386 20.5639 15.8327L20.2757 15.8322L20.2746 15.8321C19.9858 15.8263 19.7655 16.0763 19.7712 16.3541L19.7855 18.8403L15.1249 14.1965M19.0751 19.8615L14.1891 15.1344C13.9314 14.8753 13.9301 14.4553 14.189 14.1964C14.4476 13.9378 14.8667 13.9378 15.1249 14.1965M19.0751 19.8615L16.4208 19.7683C16.1447 19.7628 15.8897 19.9559 15.8488 20.2758L15.8485 20.5782L15.8486 20.5802C15.8548 20.861 16.0858 21.0931 16.366 21.0994L20.4068 21.083M8.07066 3.7102C8.03582 3.97832 7.8257 4.13547 7.59873 4.1304L4.94299 4.13716L9.75837 8.93626C9.97748 9.1565 9.97748 9.51362 9.75837 9.7333C9.53926 9.95297 9.18306 9.95297 8.96395 9.7333L4.13116 4.93251L4.14689 7.64693C4.15194 7.87449 3.97216 8.0722 3.74519 8.06713L3.43899 8.06657C3.21145 8.0615 3.02381 7.92575 3.01875 7.69818L3.00695 3.63191C3.00695 3.62958 3.01115 3.6277 3.01521 3.62589C3.01901 3.62419 3.02268 3.62064 3.02268 3.62064L3.00021 3.41448C2.9974 3.29958 3.02381 3.19819 3.09797 3.12496C3.17044 3.05173 3.27269 3.00724 3.38562 3.01005L3.59125 3.01512C3.59343 3.01512 3.59527 3.01564 3.59725 3.0162C3.59725 3.0162 3.60049 3.01712 3.60248 3.01737L7.64985 2.99991C7.87683 3.00498 8.06448 3.19312 8.07009 3.42124L8.07066 3.7102ZM3.6136 2.91733L7.65209 2.8999C7.9329 2.90617 8.16314 3.13772 8.17006 3.41878L8.17012 3.42105L8.17068 3.7232C8.12917 4.04276 7.87407 4.23595 7.5978 4.23041L5.18438 4.23655L9.82896 8.86543C10.0868 9.12463 10.0873 9.54516 9.82917 9.80392C9.57103 10.0627 9.15148 10.0628 8.89329 9.80405L4.23256 5.17419L4.24688 7.64557C4.25259 7.92345 4.03292 8.17295 3.74404 8.16713L3.43676 8.16656C3.30451 8.16362 3.17783 8.12259 3.0816 8.04279C2.98371 7.9616 2.92196 7.84368 2.91877 7.70041L2.91873 7.69848L2.90695 3.6322C2.90695 3.61328 2.89988 3.75032 2.89988 3.58197C2.89988 3.41362 2.89988 3.41694 2.89988 3.41694C2.8967 3.28664 2.92666 3.15385 3.0273 3.05421C3.11859 2.96219 3.24706 2.90657 3.38808 2.91008L3.59316 2.91514" fill="white"/>
</svg>
