<svg width="24" height="24" viewBox="0 0 24 24" fill="none" xmlns="http://www.w3.org/2000/svg">
<path fill-rule="evenodd" clip-rule="evenodd" d="M11.5386 2.61955C11.8256 2.46015 12.1744 2.46015 12.4614 2.61955L21.0114 7.36955C21.313 7.5371 21.5 7.85499 21.5 8.2C21.5 8.54501 21.313 8.8629 21.0114 9.03045L19.0862 10.1L21.0114 11.1696C21.313 11.3371 21.5 11.655 21.5 12C21.5 12.345 21.313 12.6629 21.0114 12.8305L19.0862 13.9L21.0114 14.9696C21.313 15.1371 21.5 15.455 21.5 15.8C21.5 16.145 21.313 16.4629 21.0114 16.6305L12.4614 21.3804C12.1744 21.5399 11.8256 21.5399 11.5386 21.3804L2.98864 16.6305C2.68705 16.4629 2.5 16.145 2.5 15.8C2.5 15.455 2.68705 15.1371 2.98864 14.9696L4.91383 13.9L2.98864 12.8305C2.68705 12.6629 2.5 12.345 2.5 12C2.5 11.655 2.68705 11.3371 2.98864 11.1696L4.91383 10.1L2.98864 9.03045C2.68705 8.8629 2.5 8.54501 2.5 8.2C2.5 7.85499 2.68705 7.5371 2.98864 7.36955L11.5386 2.61955ZM6.87 11.1868L5.40617 12L12 15.6632L18.5938 12L17.13 11.1868L12.4614 13.7804C12.1744 13.9399 11.8256 13.9399 11.5386 13.7804L6.87 11.1868ZM6.87 14.9868L5.40617 15.8L12 19.4632L18.5938 15.8L17.13 14.9868L12.4614 17.5805C12.1744 17.7399 11.8256 17.7399 11.5386 17.5805L6.87 14.9868ZM5.40617 8.2L12 11.8632L18.5938 8.2L12 4.53676L5.40617 8.2Z" fill="white"/>
</svg>
