<svg width="24" height="24" viewBox="0 0 24 24" fill="none" xmlns="http://www.w3.org/2000/svg">
<mask id="path-1-outside-1_64_176" maskUnits="userSpaceOnUse" x="0.199219" y="1.26172" width="23" height="21" fill="black">
<rect fill="white" x="0.199219" y="1.26172" width="23" height="21"/>
<path fill-rule="evenodd" clip-rule="evenodd" d="M13.0799 4.38862C12.5993 3.55275 11.3933 3.55275 10.9126 4.38863L10.2817 4.02587L10.9126 4.38863L2.86967 18.3764L2.31566 18.0578L2.86967 18.3764C2.39052 19.2097 2.99202 20.2495 3.9533 20.2495H20.0392C21.0005 20.2495 21.602 19.2097 21.1229 18.3764L13.0799 4.38863L13.7272 4.01644L13.0799 4.38862ZM9.61227 3.64093C10.6696 1.80199 13.3229 1.80197 14.3802 3.64092L13.7301 4.01477L14.3802 3.64092L22.4232 17.6287L22.4232 17.6287C23.4773 19.462 22.154 21.7495 20.0392 21.7495H3.9533C1.83852 21.7495 0.515145 19.462 1.56931 17.6287L2.21949 18.0026L1.56931 17.6287L9.61227 3.64093C9.61227 3.64093 9.61227 3.64093 9.61227 3.64093ZM11.7502 8.25C12.1645 8.25 12.5002 8.58579 12.5002 9V13C12.5002 13.4142 12.1645 13.75 11.7502 13.75C11.336 13.75 11.0002 13.4142 11.0002 13V9C11.0002 8.58579 11.336 8.25 11.7502 8.25ZM12.262 16.4408C12.5697 16.7181 12.5945 17.1923 12.3172 17.5L12.3072 17.5111C12.03 17.8189 11.5558 17.8436 11.248 17.5664C10.9403 17.2891 10.9155 16.8149 11.1928 16.5072L11.2028 16.4961C11.48 16.1883 11.9542 16.1636 12.262 16.4408Z"/>
</mask>
<path fill-rule="evenodd" clip-rule="evenodd" d="M13.0799 4.38862C12.5993 3.55275 11.3933 3.55275 10.9126 4.38863L10.2817 4.02587L10.9126 4.38863L2.86967 18.3764L2.31566 18.0578L2.86967 18.3764C2.39052 19.2097 2.99202 20.2495 3.9533 20.2495H20.0392C21.0005 20.2495 21.602 19.2097 21.1229 18.3764L13.0799 4.38863L13.7272 4.01644L13.0799 4.38862ZM9.61227 3.64093C10.6696 1.80199 13.3229 1.80197 14.3802 3.64092L13.7301 4.01477L14.3802 3.64092L22.4232 17.6287L22.4232 17.6287C23.4773 19.462 22.154 21.7495 20.0392 21.7495H3.9533C1.83852 21.7495 0.515145 19.462 1.56931 17.6287L2.21949 18.0026L1.56931 17.6287L9.61227 3.64093C9.61227 3.64093 9.61227 3.64093 9.61227 3.64093ZM11.7502 8.25C12.1645 8.25 12.5002 8.58579 12.5002 9V13C12.5002 13.4142 12.1645 13.75 11.7502 13.75C11.336 13.75 11.0002 13.4142 11.0002 13V9C11.0002 8.58579 11.336 8.25 11.7502 8.25ZM12.262 16.4408C12.5697 16.7181 12.5945 17.1923 12.3172 17.5L12.3072 17.5111C12.03 17.8189 11.5558 17.8436 11.248 17.5664C10.9403 17.2891 10.9155 16.8149 11.1928 16.5072L11.2028 16.4961C11.48 16.1883 11.9542 16.1636 12.262 16.4408Z" fill="white"/>
<path d="M10.2126 4.10147C10.2605 4.129 10.3216 4.11251 10.3491 4.06463C10.3767 4.01675 10.3602 3.95562 10.3123 3.92809L10.2126 4.10147ZM10.2956 3.91846C10.2477 3.89093 10.1865 3.90743 10.159 3.95531C10.1315 4.00318 10.148 4.06431 10.1959 4.09184L10.2956 3.91846ZM10.3123 3.92809L10.2956 3.91846L10.1959 4.09184L10.2126 4.10147L10.3123 3.92809ZM10.1959 4.09184L10.2126 4.10147L10.3123 3.92809L10.2956 3.91846L10.1959 4.09184ZM10.9126 4.38863L10.8129 4.56201C10.8589 4.58845 10.9135 4.59554 10.9647 4.58172C11.016 4.5679 11.0596 4.53431 11.086 4.48832L10.9126 4.38863ZM13.0799 4.38862L12.9065 4.48831C12.9329 4.5343 12.9766 4.56789 13.0278 4.58171C13.079 4.59553 13.1336 4.58844 13.1796 4.562L13.0799 4.38862ZM10.3814 3.85249C10.2857 3.79743 10.1634 3.83042 10.1084 3.92618C10.0533 4.02193 10.0863 4.14419 10.182 4.19925L10.3814 3.85249ZM10.9126 4.38863L11.086 4.48833C11.1411 4.39257 11.1081 4.27031 11.0123 4.21525L10.9126 4.38863ZM2.86967 18.3764L2.76998 18.5498C2.81596 18.5762 2.87057 18.5833 2.92178 18.5695C2.97299 18.5557 3.01661 18.5221 3.04305 18.4761L2.86967 18.3764ZM2.31566 18.0578L2.41535 17.8845C2.3196 17.8294 2.19734 17.8624 2.14228 17.9582C2.08722 18.0539 2.12021 18.1762 2.21597 18.2312L2.31566 18.0578ZM2.86967 18.3764L3.04305 18.4761C3.09811 18.3803 3.06512 18.2581 2.96937 18.203L2.86967 18.3764ZM21.1229 18.3764L21.2962 18.2767L21.2962 18.2767L21.1229 18.3764ZM13.0799 4.38863L12.9802 4.21524C12.8844 4.2703 12.8514 4.39256 12.9065 4.48832L13.0799 4.38863ZM13.7272 4.01644L13.8268 4.18982C13.9226 4.13476 13.9556 4.0125 13.9005 3.91675C13.8455 3.82099 13.7232 3.788 13.6275 3.84306L13.7272 4.01644ZM9.61227 3.64093L9.77402 3.75856C9.77822 3.75279 9.7821 3.7468 9.78566 3.74062L9.61227 3.64093ZM13.6304 3.84139C13.5346 3.89645 13.5016 4.01871 13.5567 4.11446C13.6117 4.21022 13.734 4.24321 13.8297 4.18815L13.6304 3.84139ZM22.4232 17.6287L22.2498 17.7284L22.2517 17.7316L22.4232 17.6287ZM22.4232 17.6287L22.5967 17.529L22.5947 17.5258L22.4232 17.6287ZM2.1198 18.1759C2.21556 18.231 2.33782 18.198 2.39287 18.1022C2.44793 18.0065 2.41494 17.8842 2.31919 17.8292L2.1198 18.1759ZM9.61227 3.64093L9.45052 3.5233C9.44633 3.52907 9.44245 3.53505 9.43889 3.54124L9.61227 3.64093ZM12.3172 17.5L12.4658 17.6339L12.4658 17.6339L12.3172 17.5ZM12.262 16.4408L12.3959 16.2922L12.262 16.4408ZM12.3072 17.5111L12.1586 17.3773L12.3072 17.5111ZM11.248 17.5664L11.1142 17.715L11.248 17.5664ZM11.1928 16.5072L11.0442 16.3733H11.0442L11.1928 16.5072ZM11.2028 16.4961L11.3514 16.6299H11.3514L11.2028 16.4961ZM11.086 4.48832C11.4897 3.78618 12.5028 3.78619 12.9065 4.48831L13.2533 4.28893C12.6957 3.31931 11.2968 3.31931 10.7393 4.28894L11.086 4.48832ZM10.182 4.19925L10.8129 4.56201L11.0123 4.21525L10.3814 3.85249L10.182 4.19925ZM11.0123 4.21525L10.3814 3.85249L10.182 4.19925L10.8129 4.56202L11.0123 4.21525ZM3.04305 18.4761L11.086 4.48833L10.7393 4.28894L2.69629 18.2767L3.04305 18.4761ZM2.21597 18.2312L2.76998 18.5498L2.96937 18.203L2.41535 17.8845L2.21597 18.2312ZM2.96937 18.203L2.41536 17.8845L2.21596 18.2312L2.76998 18.5498L2.96937 18.203ZM3.9533 20.0494C3.14583 20.0494 2.64057 19.1761 3.04305 18.4761L2.69629 18.2767C2.14047 19.2433 2.83822 20.4494 3.9533 20.4494V20.0494ZM20.0392 20.0494H3.9533V20.4494H20.0392V20.0494ZM20.9495 18.4761C21.3519 19.176 20.8467 20.0494 20.0392 20.0494V20.4494C21.1543 20.4494 21.852 19.2433 21.2962 18.2767L20.9495 18.4761ZM12.9065 4.48832L20.9495 18.4761L21.2962 18.2767L13.2533 4.28893L12.9065 4.48832ZM13.6275 3.84306L12.9802 4.21524L13.1796 4.56201L13.8268 4.18982L13.6275 3.84306ZM13.1796 4.562L13.8268 4.18982L13.6275 3.84306L12.9802 4.21524L13.1796 4.562ZM14.5536 3.54123C13.4193 1.56853 10.5732 1.56856 9.43889 3.54123L9.78566 3.74062C10.7661 2.03543 13.2264 2.03541 14.2069 3.74061L14.5536 3.54123ZM13.8297 4.18815L14.4799 3.8143L14.2805 3.46754L13.6304 3.84139L13.8297 4.18815ZM14.2805 3.46754L13.6304 3.84139L13.8297 4.18815L14.4799 3.8143L14.2805 3.46754ZM22.5966 17.529L14.5536 3.54123L14.2069 3.74062L22.2498 17.7284L22.5966 17.529ZM22.5947 17.5258L22.5947 17.5258L22.2517 17.7316L22.2517 17.7316L22.5947 17.5258ZM20.0392 21.9494C22.3078 21.9494 23.7274 19.4957 22.5966 17.529L22.2499 17.7284C23.2273 19.4284 22.0002 21.5494 20.0392 21.5494V21.9494ZM3.9533 21.9494H20.0392V21.5494H3.9533V21.9494ZM1.39593 17.529C0.265094 19.4956 1.68473 21.9494 3.9533 21.9494V21.5494C1.99232 21.5494 0.765196 19.4284 1.74269 17.7284L1.39593 17.529ZM2.31919 17.8292L1.66901 17.4553L1.46962 17.8021L2.1198 18.1759L2.31919 17.8292ZM1.46962 17.8021L2.1198 18.1759L2.31919 17.8292L1.66901 17.4553L1.46962 17.8021ZM9.43889 3.54124L1.39593 17.529L1.7427 17.7284L9.78565 3.74063L9.43889 3.54124ZM9.45053 3.52329C9.44177 3.53534 9.43561 3.54664 9.43131 3.55577C9.42927 3.56011 9.42776 3.56373 9.42681 3.56608C9.42633 3.56726 9.42596 3.56822 9.42573 3.56881C9.42561 3.56911 9.42552 3.56935 9.42546 3.5695C9.42543 3.56957 9.42541 3.56964 9.4254 3.56967C9.42539 3.56969 9.42538 3.56971 9.42538 3.56972C9.42538 3.56972 9.42538 3.56972 9.42538 3.56973C9.42538 3.56973 9.42537 3.56973 9.42537 3.56973C9.42537 3.56973 9.42537 3.56973 9.42537 3.56973C9.42511 3.57043 9.43308 3.54728 9.45052 3.5233L9.77402 3.75857C9.78278 3.74652 9.78894 3.73522 9.79324 3.72609C9.79528 3.72175 9.79679 3.71813 9.79774 3.71578C9.79821 3.7146 9.79859 3.71364 9.79882 3.71305C9.79893 3.71275 9.79902 3.71251 9.79908 3.71236C9.79911 3.71228 9.79913 3.71222 9.79915 3.71219C9.79916 3.71217 9.79916 3.71215 9.79916 3.71214C9.79917 3.71214 9.79917 3.71213 9.79917 3.71213C9.79917 3.71213 9.79917 3.71213 9.79917 3.71213C9.79917 3.71213 9.79917 3.71213 9.79917 3.71213C9.79944 3.71143 9.79146 3.73458 9.77402 3.75856L9.45053 3.52329ZM12.7002 9C12.7002 8.47533 12.2749 8.05 11.7502 8.05V8.45C12.054 8.45 12.3002 8.69624 12.3002 9H12.7002ZM12.7002 13V9H12.3002V13H12.7002ZM11.7502 13.95C12.2749 13.95 12.7002 13.5247 12.7002 13H12.3002C12.3002 13.3038 12.054 13.55 11.7502 13.55V13.95ZM10.8002 13C10.8002 13.5247 11.2256 13.95 11.7502 13.95V13.55C11.4465 13.55 11.2002 13.3038 11.2002 13H10.8002ZM10.8002 9V13H11.2002V9H10.8002ZM11.7502 8.05C11.2256 8.05 10.8002 8.47533 10.8002 9H11.2002C11.2002 8.69624 11.4465 8.45 11.7502 8.45V8.05ZM12.4658 17.6339C12.817 17.2441 12.7857 16.6434 12.3959 16.2922L12.1281 16.5894C12.3538 16.7927 12.372 17.1405 12.1686 17.3662L12.4658 17.6339ZM12.4558 17.645L12.4658 17.6339L12.1686 17.3662L12.1586 17.3773L12.4558 17.645ZM11.1142 17.715C11.504 18.0662 12.1047 18.0348 12.4558 17.645L12.1586 17.3773C11.9553 17.603 11.6076 17.6211 11.3819 17.4178L11.1142 17.715ZM11.0442 16.3733C10.693 16.7631 10.7243 17.3638 11.1142 17.715L11.3819 17.4178C11.1562 17.2145 11.1381 16.8667 11.3414 16.641L11.0442 16.3733ZM11.0542 16.3622L11.0442 16.3733L11.3414 16.641L11.3514 16.6299L11.0542 16.3622ZM12.3959 16.2922C12.006 15.9411 11.4053 15.9724 11.0542 16.3622L11.3514 16.6299C11.5547 16.4042 11.9024 16.3861 12.1281 16.5894L12.3959 16.2922Z" fill="white" mask="url(#path-1-outside-1_64_176)"/>
</svg>
